/* XPM */
static char *_02cd31c281e4c07b4367e1a1804aaa4HMyqN6YIrCjDhKph[] = {
/* columns rows colors chars-per-pixel */
"64 64 256 2 ",
"   c #390800",
".  c #2E0500",
"X  c #460700",
"o  c #540C00",
"O  c #5A0D00",
"+  c #580300",
"@  c #4A1601",
"#  c #5B1301",
"$  c #5B1B00",
"%  c #531701",
"&  c #640C00",
"*  c #6C0C01",
"=  c #680300",
"-  c #760B02",
";  c #631401",
":  c #641B01",
">  c #6B1C02",
",  c #691502",
"<  c #731401",
"1  c #741C01",
"2  c #7B1904",
"3  c #751A12",
"4  c #5C2302",
"5  c #592808",
"6  c #592A16",
"7  c #542C0D",
"8  c #652402",
"9  c #6B2403",
"0  c #6C2A03",
"q  c #682909",
"w  c #732301",
"e  c #7B2302",
"r  c #7C2B02",
"t  c #732C0B",
"y  c #772908",
"u  c #69350B",
"i  c #79330A",
"p  c #652915",
"a  c #762A12",
"s  c #693716",
"d  c #7B3313",
"f  c #7C3D1B",
"g  c #753916",
"h  c #693C24",
"j  c #783921",
"k  c #583B2A",
"l  c #7C431D",
"z  c #774419",
"x  c #6F4815",
"c  c #6A4626",
"v  c #794626",
"b  c #794C35",
"n  c #7A5337",
"m  c #705230",
"M  c #5E4D2E",
"N  c #715544",
"B  c #75634C",
"V  c #666552",
"C  c #841904",
"Z  c #8E1F11",
"A  c #862906",
"S  c #932C07",
"D  c #883608",
"F  c #96380C",
"G  c #872C16",
"H  c #833B13",
"J  c #8B3C15",
"K  c #833B1A",
"L  c #8A3717",
"P  c #973917",
"I  c #942713",
"U  c #A5381A",
"Y  c #893A22",
"T  c #983C23",
"R  c #8F2A21",
"E  c #88420B",
"W  c #8C441B",
"Q  c #874619",
"!  c #984719",
"~  c #8A561C",
"^  c #98541B",
"/  c #96420E",
"(  c #A5491C",
")  c #A5541C",
"_  c #B4461E",
"`  c #844B24",
"'  c #8B4B24",
"]  c #864826",
"[  c #934C24",
"{  c #974926",
"}  c #8C532C",
"|  c #885629",
" . c #985629",
".. c #864C36",
"X. c #885836",
"o. c #9B5C34",
"O. c #965835",
"+. c #954C33",
"@. c #A44928",
"#. c #A75728",
"$. c #B25829",
"%. c #A75B36",
"&. c #B45935",
"*. c #AF4C32",
"=. c #99662C",
"-. c #8B6539",
";. c #9D643B",
":. c #986738",
">. c #9C7238",
",. c #A8642C",
"<. c #B6642D",
"1. c #A66639",
"2. c #B76637",
"3. c #A9743A",
"4. c #B6733B",
"5. c #C16E3B",
"6. c #C75C3F",
"7. c #965C44",
"8. c #895B45",
"9. c #8A6645",
"0. c #996946",
"q. c #9A7749",
"w. c #887756",
"e. c #9A7856",
"r. c #8B744C",
"t. c #AB6D43",
"y. c #A66946",
"u. c #B56B46",
"i. c #A7764A",
"p. c #B6774A",
"a. c #A87855",
"s. c #B77A55",
"d. c #AC6F52",
"f. c #8C7969",
"g. c #A97C64",
"h. c #AF5B46",
"j. c #C66D43",
"k. c #C37548",
"l. c #CA7853",
"z. c #C77A63",
"x. c #7D8D7C",
"c. c #9A8359",
"v. c #B78348",
"b. c #A98555",
"n. c #B78858",
"m. c #B99159",
"M. c #AA874D",
"N. c #998866",
"B. c #928E74",
"V. c #A88867",
"C. c #B98965",
"Z. c #A7966A",
"A. c #BA9667",
"S. c #A79775",
"D. c #B89877",
"F. c #B58C73",
"G. c #ABA478",
"H. c #B8A778",
"J. c #B6A56D",
"K. c #9CA179",
"L. c #C68759",
"P. c #CD8E59",
"I. c #C88B65",
"U. c #C69668",
"Y. c #C49A74",
"T. c #D3976F",
"R. c #C5A879",
"E. c #D7AA79",
"W. c #D0AA71",
"Q. c #E29D74",
"!. c #7AA7A0",
"~. c #949287",
"^. c #A99A84",
"/. c #B2988E",
"(. c #95A895",
"). c #A9A787",
"_. c #B7A889",
"`. c #BAB38C",
"'. c #B5AD97",
"]. c #B8B998",
"[. c #ABB193",
"{. c #95B3AC",
"}. c #B9BBA8",
"|. c #A9B5AB",
" X c #C89E83",
".X c #C9AA88",
"XX c #D6AC88",
"oX c #C8B689",
"OX c #D4B688",
"+X c #C7B894",
"@X c #D4B896",
"#X c #D8AA92",
"$X c #E4B48D",
"%X c #CFBDA4",
"&X c #BBC599",
"*X c #ADC19C",
"=X c #B8C6A9",
"-X c #A9C6B6",
";X c #B9CBB6",
":X c #BBD4BC",
">X c #B7D3B9",
",X c #ACCCB3",
"<X c #95C2BE",
"1X c #C7C599",
"2X c #D3C59A",
"3X c #D2C68F",
"4X c #E8C998",
"5X c #C8C8A5",
"6X c #D7CAA7",
"7X c #C8D2A8",
"8X c #C5CCB7",
"9X c #C6D4B9",
"0X c #D5D2B3",
"qX c #E7CDAE",
"wX c #AABEC2",
"eX c #99C7C4",
"rX c #99D7DA",
"tX c #99CCD0",
"yX c #A7CAC4",
"uX c #B7CCC3",
"iX c #AAD5C9",
"pX c #BCDCCB",
"aX c #B7D7C7",
"sX c #A9DAD6",
"dX c #B7DBD5",
"fX c #BCE2CD",
"gX c #ABE4D8",
"hX c #B3E3DB",
"jX c #B8E6D7",
"kX c #AFEDD5",
"lX c #99DCE7",
"zX c #8FDEF1",
"xX c #9CE5E9",
"cX c #9BE7F6",
"vX c #9EF4F6",
"bX c #A4ECEE",
"nX c #A8E7E7",
"mX c #B7EAE5",
"MX c #B8F5EA",
"NX c #A5ECF6",
"BX c #A6F5FA",
"VX c #B8F5F5",
"CX c #B3EDF3",
"ZX c #AAE2E3",
"AX c #C5DAC7",
"SX c #CCDACE",
"DX c #C7E3CB",
"FX c #D6E5CA",
"GX c #C5E7D8",
"HX c #D6E7D5",
"JX c #CDF2D8",
"KX c #E5EBD3",
"LX c #C6E9E2",
"PX c #C7F7E7",
"IX c #CFF3EE",
"UX c #EAEADA",
/* pixels */
"rXrXlXlXlXlXzXcXzXzXcXcXcXcXNXcXnXbXbXxXnXhXdXdXiXgXjXjXiXGXaXiXiXsXiXgXgXkXMXgXmXCXNXBXBXBXNXBXbXbXbXnXgXsXiXyXyXyX<XeXiXyXeXeX",
"xXlXlXlXlXlXcXcXcXcXcXcXNXNXNXbXNXbXxXxXnXhXdXGXpXiXiXaXDXIXAXpXSXGXfXjXkXkXgXMXMXVXCXBXVXNXCXbXnXVXCXgXsXsXiXiX-X-XyXiXyXeXeX<X",
"xXxXlXlXlXxXbXNXNXxXbXNXNXbXbXxXbXbXnXgXgXdXaXuXaXGXGXAX;X;X;XAX}.'.;XHXfXjXgXgXCXIXCXCXVXCXMXmXmXVXmXgXhXhXiXyX{.{.yXiXyXeXiXeX",
"xXxXxXxXlXnXnXnXnXnXbXCXbXnXnXrXxXnXgXsXdXGXGXDXuXHX8X~.B.B V k N f.M ~.AXpXjXsXmXIXCXmXmXhXkXgXmXhXgXhXhXdXpXaX(.|.-XyXyXyXsXtX",
"xXxXxXnXnXnXnXnXnXnXmXnXnXnXnXnXnXmXhXiXaXaXaXAXHX8Xf.k B ^.^.f.e.X.h k B.HXpXIXCXVXIXmXmXiXaX,XaXyXdXhXiXdXGXAXx.|.-X|.yXyXsXsX",
"cXcXxXnXnXnXZXZXmXhXmXgXsXgXmXMXMXkXjXGXpX-X-X>XSX~.N N /.@X%X@X$Xs.v h m ^.IXLXPXIXIXmXLXiXaX:XaXaXjXGXjXGXaX(.x.;X:X-XyXyXtXrX",
"NXBXNXxXnXCXsXeXmXhXhXsXsXgXmXmXkXkXjXJXJXAXpXFX0XB 7 8..X.X.X XY.C.X.s 8.V.SXIXMXMXVXMXPXaXDXDXAXGXGXJXGXaX{.~.(.8X8X-XyXeXrXlX",
"cXBXNXxXnXCXsX{.LXjXhXgXsXgXhXhXMXPXGXaXpXDXFXFX^.N 6 c V.F.g.X.X.-.` 8 X.8.^.AXGXmXMXMXPX,X:XAX:XDXGXGXpX{.(.-X;X8X=X-X-XeXlXlX",
"vXBXBXvXbXCXsX{.dXdXhXiXsXmXmXhXPXjXGXaXaXDXAX%Xf.b 6 n h 7 @ 5 @ s c 4 v 0.V.+XDXGXMXkXPXaXAXSX9XJXpX{.{.{.AXuX=X:X>X>XiXsXlXlX",
"cXBXBXvXBXVXZX{.yXLXhXsXhXmXLXLXjXaXGXDXpX9X5XS.g.8.X b F.e.g.7.X. Xa.4 O.O.0.g._.AXDX,XpXAXAX8XDX,X-X,X>XAXHX;X=X;XAXpXsXnXnXxX",
"NXBXBXBXBXVXsX{.{.LXhXhXPXmXLXdXaXDXpX:XHX7X_.D.g.7.5   b  X..p 7.#Xh @ O.O.f y.e.%XFX;X=XSXKXFX|.{.:XAX;X;X8X=X9X=XaXpXsXsXrXnX",
"BXBXBXvXBXCXsX{.{.LXGXjXPXGXGXuX;XAX>X:XFX`.V.C.T.s.g % p 8.p 6 ....X 4 o.T.I.o.s.D.6X5X5X8X0X'.|.:XFX8X5X=X].9X8X;X>XiXhXsXZXsX",
"BXBXBXBXBXVXdX|.|.GXIXLXjXGXAX;X8X;X9X0X1XV.q.' u.%.d o p   h 6 p # # 8 I.Q.I.' l 0.F._._.].).).HXHX8X].`._.Z.N.[.FXGXyXdXsXsX!.",
"CXNXBXBXBXCXdXwXyXpXLXjXiXaX;X}.8X8X5X).c.| [ r { { @.& ; X @   X X a t %.u.1.z g C.F.D.N.S.w.5XUXSX7X`.r.n c.Z.B.|.uXuXdXdXGX{.",
"CXCXbXbXBXCXdXwX|.AXpXpXaX;X;X}.'.].S.w.-.g i r ! #.U I 3 ; . . . j Y > P u. .>.R.4XoXS.Z.G.r.G.KXAX0XS.7 5 -.V._.B.uXGXdXuXaX(.",
"CXnXbXBXVXPXLXuX|.HXpXfXGX:X8X8X}.'.).`.D.:. .J ! j.6.- 3 j     @ d K e @.%.%.L.XXR.OXD.OXoXR.`.].)._.V.:.n.i.e.S.M |.SXuXAX8XB.",
"BXBXxXbXVXPXHX|.~.AXGXjXDX:X|.;X|.;XSXFX6XZ.i.W e @.j.R 3 a $ X : W 1.! #.&.%.u.s.y.i.X.9.e.9.V.^.N.n X.E.U.a.q.w.M 8X}.'.}.^.w.",
"vXBXBXnXsXIX|.~./.~.JXJXAX;X=X(.9X8XFX9X0X+Xb. .1 A T G a { [ H y.t.3.4.k.P.! @.{ d s 0.A.XXXXR.V.0.v 1.o.1.| 9.m f.qX'.w.9.9.9.",
"BXBXVXMXdXIX[.f.f.f.=XIX:X(.}.FX1X5X].5X6XR.p.^ A S 1 A y.L.1.:.C.Y.A.n.3.,.1.y 9 v Y.qX+X3X@Xa.O.W Q ^ ,.1.z | e.F.D.V.X.0.y.o.",
"bXVXnXmXIX|.'.SX/.B 8X=X[.].+X+XZ..Xe.F.4XC.[ ^ / / ! u.p.U.m.>.V..Xe.q.m.=.,.> X 0.#X4X.Xe.q.l D S $.4.T.v.M.U.4XD.9.9.} ;.t.,.",
"nXCXhXGXHXB.0X%Xk w.KX[.S.%XqXH.Y.0.0.d...f r w A / <.L.t.m.A.r._.S.Z.R.n.=.0 > u.h.p p 7.i.4 E &.A E k.p.=.:.:.e.V.q.0.0.:.| =.",
"MXmXLXHX}.B.S.c   F.N.r.9.0.D.b.n.d.] a + + O , D <.5.2.t.A.Z.c.+X.XD.U.L.H O r a & & + u.o.Q E J J ^ #. .Q >.q.C.D.D.-.v } 3.v.",
"gXmXdXHX}.M c b ] ..0.0.s.y.y.| [ +.& = = * 3 , D #.k. .} V.S.N.D.XXT.k.P * @.@.L T - h.*.&.p. .W { ! r { +.y.d.V.V.F.e.s z u.u.",
"mXgXGXUXB.B .Xs.s.d.] ] u.z.+.i # > 3 3 = = + * G 2.2.i s.@X_.'.6X#Xz.*.Z U *.@.G , *.T P J i p.%.W r J w O.7.F.@X.X_.@Xa.` [  .",
"MXjXfXHX).w.D.O.{ %.t X 1 G e # X # + = - - - + * *.{ L y.F.%X6XoXb.} y * 2 1 O + A &.&.P < 0 s.k.%.' 9 ` 0..X+X5XG.`.6XC.l Q #.",
"MXjXfXDX].m r.O.a L O # T @.D ; X t > * = Z R = = A 2 J { d.D.D.-.z g a < * O + y A J F w D o.I.L.u.%.u.C.a..XqX2X+XV.e.0.f i k.",
"mXhXfXAX8XB m b t > X o , & O $ O.i.1.%.< - 2 - C A A F %.o.a.y.[ W T G 3 * * a P !  .o.:.E.T.t.j.@.G [ O.q v i.X.s ` s.[ > D l.",
"gXhXjXaXFX).9.9.8 O g | K { t.T.U.m.n.L.W & * 2 * S 2 A D W O.L.F D e 1 3 3 = - T { t.n.| -.} { J 2 & > W t q f  .u.2.{ w W #.2.",
"sXhXjXfXDXFXG.D...q .XqX$XXXXXOXR.b.i.v.3.H G C - S A A <.#.J w F $.@.G 2 A - Z 2 G J [ ' p.%.L w > 9 8 0 i d %.%.{ 1 w r W ~ :.",
"mXmXhXPXJXKX_.D.I.v oX1XoX+X2X@X@XH.b.M.L.^ G 2 - I F ( ( 2.@.F _ $.F A A T C - P G y d d d , & # : Q O.` W 0 w A { w r %.Q $ o.",
"IXmXjXPXJXFXB.V.F.X.`.7X1X+X1X1X1X1XJ.m.U. .A C - Z P P #.( U S S S S F P U - * G a > O ; K J J +.t : o.y.z.%.> H W  . .i ; K z.",
"mXmXjXfXfX>XK._.F.r.G.7X7X&X&X5X1X0XH.J.E.p.J A = A A A ! ! U 6.@.F S U F S - < & + 9 +.y.u.%. .u.K X ] Y %.h.# : t W K ; O Y z.",
"GXfXaXpX>X*X[.oXD.r.`.1X&X1X5X5X7X5X1XZ.R.U.[ e e ! ! 2.$.< = C - 2 P P ( S 2 < & d p.y.1.o.[  .{ +.$ t ] o.d t 9 % t ; G > Y s.",
"fXfXaX;X;X=X].`.H.e.oX1X&X&X7X5X7X1X1X1XA.t.%.! $.<.<.<.2.P C - < < I P P P S A { l.t.1.` ' 1.H  .1.g 4 ` s.+.%.O.q $ , > > +.y.",
"fXpX:X;X,X=X=X].+Xc.`.7X7X7X5X5X&X1XG.R.|  .P.l.5.<.<.$.<.&.P e e P @.P P S S #.2.%.' O.t.I.t.` p.n.:.| ` ;.t.O.` } t 8 o d y.a.",
"GXpX:X>X;X=X=X5X5Xf.).7X7X&X1X2XoXR.b.E.o.E 4.2.$.) ) ( ! ! W J L 1 2 2 2 A ! #.%.' t.;.t.p.o.n.E.U.m.E.b.z } l } ;.f $ 4 t.C.b.",
"DX:X>X>X>X:X9X5X%XN.).7X&X`.+XoXOX3Xm.L.1.^ #.^ #.#.) $.#.%.L.P.u.&.&.$.j.$.P #.%.p.;.i.s.' ' o.:.q.A.E.E.b.0.:.I.} ` 4 q C.C.i.",
"aX>X,X,X>XHXFX=X+XB.).6X1X1XR.b.A.E.4.D / ,.,. .,.4.) ) ! ^ 1.W ! A F ( #.( #.#.[ p.} T.s.l Q =.n.A.q.:.>.i.A.O.1.Q } 8 g n.s.s.",
">X:XaX>X>XFXFX=X].N.S.2X@XOXA.:.3.,.Q ! ,.1.=.=.=.3. ./ ! #.#.r 1 1 e A #.$.! W 1.:.} C.O.Q ' t.A.A.-.n.b.:.C.` t L H 0 ` i.t.t.",
">XaXGXDX,X>X9X8X'.w.N.OXA.n.p.3.,.Q Q L.Q.E.U.M.M.v.3.^ ) 5.5.2.! ( $.! ) #.#.! =.| ;.s.` } 1.` q.R.i.i.n.a.0.| d T y ] f z 0.y.",
"fXfXDXpX:XAX9X9X].w.q.A.:.4.4.,.,.u.s.n.U.A.b.m.W.U.W.v.<.$.$.F ( F D #.) 2.#.!  .s.$Xy.u ;.p.1.C.XX0.y.C.-.0.O.Y Y 9 ] f q X.y.",
"GXfXfXpX:X:X9X7X0XN.-.v.,.2.,.) P.i.b.Y.D.A.m.>.=.P.P.,.^ $.F _ 5.#.( ) #.5.! ! t.s.I.g ;.=.t.p.A.Y.X.y.0.-.a.0.f : +.O.5 s ..7.",
"GXfXpXpX:X;X=X5X7XZ.| t.4.<.) ,.:.b.R.oXH.OX$XL.E 4.^ E E ) $.l.l.#.$.! #.2.D W 1.;.` o.I.o.i o.u 4 s ..0.C.0.X.v 8 O...% 6 h c ",
"GXpXpXAX9X;X=X[.1XZ.-.p.5.( D =.m.3X2XH.H.OXI. .j.$.D E D ( j.6.$.#.2.! #.&.D W p.s.} n.I.u.H H @ X % z a.9.0.i.....v p 6 6 n 9.",
"GXfXpXpX:X=X].).&XH.-.L.k./ D 4.E.3X3X3X4X$XL.1.2.A ( F F 5.&.F D ! ( F ( ( A i u.t.} o.s.[ { y ; $ s @ 0.XXE.a.8.0.c 6 6 @ c 9.",
"GXDXpX>X=X=X].).).G.m 1.%.r E m.R.J.R.3XR.m.p.4.<.F $._ ( F < = A ! F A F ! r , p.y.` ' L.W W J > G f [ l ` o.v % @ @ 5 s p c n ",
"DXAX:X;X}.].&X].7X1Xr.i.o.H ;.E.3XR.J.A.b.i.3.3.#./ F _ U - = 2 F $.F S F @.D ; s.I.' i [  .W D P P %.o.K ' t 8 %   @ s j ..c c ",
"AX:X>X;X].].&X1X&X6Xc.a.O.` n.4XH.OXR.m.m.>.~ ,.4.! F U Z C - A F $.( S D #.A O %.u.f t H [ ! F S F P J [ K ; 8 g p 5 s p v ..8.",
"DX;X:X=X=X[.&X).&X1Xc.-.` } Y.J.J.R.M.>.>.~ ~ p.%.T P A < * < ! @.#.( F / #.e w k.%.T L  .#.! F A / ! { { ; : 9 l 4 5 7 h b n n ",
"AX:X:X>X&XK.).6X7X2X9.v u t.b.b.b.M.x z =.v.L.k.w G R + + 1 P j.@.<.#.F #.2.D D 1.K P P #.%.,.^ ! ! / %.J y t ] } s z s h b N n ",
"AXAX>X9X&XB.w.G.2XoXn | g u q.A.q.>.x ~ =.P.p.r , < G < = { &.P r &.2.F 2.p.! D i X y L W  .L.4.#.D ! #.e J H s.' g v s s b X.n ",
"|.=X;X=X&XG.Z.H.D.H.X.| } i.W.i.v z x z Q  .H ; y A * , P @.G r 9 @.<.D #.,.! J O.0 K W Q ;.L.4.2.r ! J A  .9 u.o.` ` u s v n b ",
"B.(.].[.].2X@XXX-.n v v l T.i.5 u u ` g g : O y y e , L { e A J H ! #.J  . .#.W 1.l d K ` p.p.,.#.r #.H [ K 9 O.o.` ` 5 5 c n X.",
").}.9X[.S.Z.b.0.:.u z } s l l l z ;.s.g a # O 1 e w J k.{ > { J [ [ [ i o.p.p.[ } | g Q Q 1.o. . .W J i ] O t ` g z | u s v v n ",
"f.'.0X`.N.q.:.s.O.u u g z 4 ] } ` t.O.# O O 9 , K %.[ [ %.H t [ o.%.W 0  .p.p.} u g g ` | :.o.t.u.H # t d o d 8 g ` ;.v g g s v ",
"^._.S.Z.e.-.8 [ [ 0 q z } v 0 t i d O ; ; + : $ ' 1.Q 0 1.o.8 ` ' [ W [ p.;.K t g 5 8 u z z u g W # O ] 8 % g f g ` o.g q 5 s n ",
"qXqXZ.r.q.` 9 w r 9 4 ` 0.` K i w w > a o O # j s.:.3.~ | | i.z Q W Q 1.p.[ t : 8 u ` f u s z l t O 9 j % 4 s g q o.z z g s c c ",
"Z.@X9.X.:.o. .e 1 , $ ` i.} K y y y > ; ; # % v ` i.3.z M.M.b.m.Q i H d O.f d t 4 g ] ] ;.y.` g t q f 4 X 4 ..7.q ` ` l v b n n ",
"9.R.a.o.o.u.u.w w , 8 g i.l 0 , > , ; , a $ $ 4 | | x i.4XM.M.m.i i [ y q 8 9 > 8 q [ 1.s.t.g d d a +.X X % s X.s g v g | -.x m ",
"-.n.T.1.W u.{ , y , 9 q i.l i y , & + a q $ v 4 X.:.i.U.E.m.>.=.0 i W i $ t a 9 g 8 Q i X @ 8 K a f f X % X @ 4 s f g g X.9.7 m ",
"| :.P.@.r #.y ; y ; t 8 y.z i H ; ; : t % 8 l g 5 :.x i.>.| | ~ E E i : % g +.a Q 8 i i f 1.[ 9 : ] X X 5   6 4 5 q q v v 9.c m ",
"=.1.2.! A ! D w t O a 0 ;.z 0 d a a f % @ z z i.v z z :.n.1.^ ^  .^ H 9 8 t +.d 8 0 i d } } 0 O a p X @ 7   @ h q @ q X.7 m m k ",
">.p.! F S F J d 9 o d d t.[ i Q ] f g   4 :.>.U.U.g g s.I.0 D ^ ! Q  .H g a { K 8 0 9 H o.` t t a % $ % @   . s p % j X.7 c m M ",
"~ 3.D C C A d t q o d g 1.Q 9 0 q % %   z i.n.O.C.| s ' H i r / ^ ~ %.} f f a d Q z 0 y 0 $ : o X q p @ X   @ @ @ @ v s s c c m "
};
