/* XPM */
static char *_bbf1ea5d8b94313afe9c1b25cd1d52fRooxoJxXdN5bisWk[] = {
/* columns rows colors chars-per-pixel */
"64 64 256 2 ",
"   c #1A170B",
".  c #1C1C13",
"X  c #1C1B16",
"o  c #251C0D",
"O  c #231E14",
"+  c #2B1C14",
"@  c #271C18",
"#  c #301F18",
"$  c #28210E",
"%  c #252215",
"&  c #2C2315",
"*  c #2D2916",
"=  c #25221A",
"-  c #2C251B",
";  c #2D2A1C",
":  c #27281A",
">  c #332514",
",  c #332B15",
"<  c #33251B",
"1  c #342B1C",
"2  c #3A2C1C",
"3  c #3A2A1A",
"4  c #3C331D",
"5  c #37311B",
"6  c #37240A",
"7  c #2E2C21",
"8  c #342D22",
"9  c #3B2C23",
"0  c #322723",
"q  c #353223",
"w  c #3B3324",
"e  c #3C342A",
"r  c #3C3A2A",
"t  c #3A3628",
"y  c #3E3A32",
"u  c #2E3023",
"i  c #412D1D",
"p  c #47371B",
"a  c #452E25",
"s  c #433424",
"d  c #4A3524",
"f  c #443A25",
"g  c #4B3B24",
"h  c #43342A",
"j  c #4C342C",
"k  c #443B2B",
"l  c #4B3B2C",
"z  c #543D2D",
"x  c #553A2B",
"c  c #443C31",
"v  c #4C3C32",
"b  c #493834",
"n  c #533D33",
"m  c #583D35",
"M  c #643F39",
"N  c #3F4136",
"B  c #4C422C",
"V  c #484129",
"C  c #53432C",
"Z  c #59462B",
"A  c #4C4333",
"S  c #4C463A",
"D  c #484638",
"F  c #534333",
"G  c #5B4534",
"H  c #544A34",
"J  c #5C4B35",
"K  c #53453A",
"L  c #5B453B",
"P  c #544C3B",
"I  c #5B4C3B",
"U  c #5A523D",
"Y  c #5B5237",
"T  c #5D502D",
"R  c #624A2C",
"E  c #634C35",
"W  c #634C3C",
"Q  c #654638",
"!  c #63533C",
"~  c #6B5A3D",
"^  c #675537",
"/  c #735B3A",
"(  c #72643C",
")  c #574E41",
"_  c #5D5343",
"`  c #5B5746",
"'  c #4F5143",
"]  c #634C40",
"[  c #635543",
"{  c #6B5444",
"}  c #645A45",
"|  c #6B5B44",
" . c #655B4A",
".. c #6C5C4A",
"X. c #635749",
"o. c #725D44",
"O. c #755848",
"+. c #6A5E51",
"@. c #78574A",
"#. c #6B624D",
"$. c #696348",
"%. c #736244",
"&. c #73644C",
"*. c #7B6A4B",
"=. c #796847",
"-. c #6D6353",
";. c #746452",
":. c #746A54",
">. c #7B6C53",
",. c #796A59",
"<. c #797358",
"1. c #7D7148",
"2. c #7D7662",
"3. c #756B62",
"4. c #89763E",
"5. c #836A48",
"6. c #88764A",
"7. c #947B4B",
"8. c #856955",
"9. c #83735C",
"0. c #8A7B5C",
"q. c #887756",
"w. c #937C54",
"e. c #967A56",
"r. c #976959",
"t. c #847963",
"y. c #887A66",
"u. c #967665",
"i. c #926C5D",
"p. c #98854D",
"a. c #8D815C",
"s. c #958354",
"d. c #95835A",
"f. c #9B8659",
"g. c #A38A58",
"h. c #AC935C",
"j. c #A59155",
"k. c #B2975C",
"l. c #A1884E",
"z. c #8D8364",
"x. c #8D856B",
"c. c #938563",
"v. c #978965",
"b. c #9B8B63",
"n. c #93856C",
"m. c #958A6C",
"M. c #9B8C6A",
"N. c #9B8465",
"B. c #9A926C",
"V. c #958C73",
"C. c #9B8D74",
"Z. c #968775",
"A. c #9C9274",
"S. c #9D957C",
"D. c #8D8371",
"F. c #A28D63",
"G. c #A78A68",
"H. c #AB9464",
"J. c #A69269",
"K. c #AB946A",
"L. c #AD9A6C",
"P. c #A79565",
"I. c #B39C6B",
"U. c #B79A65",
"Y. c #A3957A",
"T. c #A59A7C",
"R. c #A99876",
"E. c #B39C72",
"W. c #B79C77",
"Q. c #A98974",
"!. c #B8A26D",
"~. c #B5A373",
"^. c #BCA373",
"/. c #BAA479",
"(. c #B9A779",
"). c #B1A779",
"_. c #C09F6F",
"`. c #C5A56B",
"'. c #C3A474",
"]. c #C3AB74",
"[. c #C4AC7B",
"{. c #CBAD7C",
"}. c #CAAC75",
"|. c #CCB27C",
" X c #C7B27B",
".X c #D3B47C",
"XX c #D9B779",
"oX c #D2AF77",
"OX c #9C9781",
"+X c #A69B84",
"@X c #B49E85",
"#X c #ACA487",
"$X c #BDAC83",
"%X c #B5A588",
"&X c #B7AD95",
"*X c #BBB598",
"=X c #B9B08C",
"-X c #C3AC83",
";X c #C5AC8B",
":X c #C5B284",
">X c #CBB483",
",X c #CCB58B",
"<X c #CDB98D",
"1X c #CAB689",
"2X c #D2B484",
"3X c #DBBB85",
"4X c #D4BC8C",
"5X c #DABD8C",
"6X c #D5B886",
"7X c #C3B392",
"8X c #CCBC93",
"9X c #C8B999",
"0X c #D3BD92",
"qX c #D7BC95",
"wX c #C6AF91",
"eX c #E1BE89",
"rX c #C9BCA4",
"tX c #C69C8C",
"yX c #DAC18C",
"uX c #CDC29C",
"iX c #D6C294",
"pX c #DBC393",
"aX c #DCC69A",
"sX c #D8C69B",
"dX c #DED296",
"fX c #E3C38D",
"gX c #E8C48A",
"hX c #E3C492",
"jX c #E2C59C",
"kX c #E2CB9D",
"lX c #E9C791",
"zX c #E1D29B",
"xX c #CBC3A9",
"cX c #DBC5A3",
"vX c #DCCAA4",
"bX c #DDCCA9",
"nX c #D5C6A5",
"mX c #DCD2B5",
"MX c #DBCFB0",
"NX c #E3CCA2",
"BX c #E3CBA9",
"VX c #E5D2A4",
"CX c #EAD4A4",
"ZX c #EAD5AC",
"AX c #ECDBAD",
"SX c #E9D6AA",
"DX c #F2DBAA",
"FX c #ECDCB3",
"GX c #E7D7B5",
"HX c #F2DCB5",
"JX c #E4CFB2",
"KX c #EDE1AE",
"LX c #EBE1B4",
"PX c #F4E2BA",
"IX c #E5DCC3",
"UX c #F1E8C6",
/* pixels */
"#.#...9.&.=.=.6.w.w.d.b.b.d.R.b.b.f.(.dXVXZXGXBXtXQ.r.8.8.u.@XwXqXpXhXlXfXfXfX.X^.E.W.R.M.w.q.w.w.g.F.P.F.s.6.5.=.*.>.;...;...W ",
"..#.9.y.0.0.w.d.d.d.F.J.E.).).R.K.~.yXzXAXZX;XQ.8.O.O.5.Q x ^ G.;X5X5X5XfXfXfX6X'.E.I.J.v.d.w.w.w.E.~.I.L.P.F.w.6.6.q.9.>.>.>.;.",
"[ #.n.m.m.M.c.d.d.b.K.J.$X1X-X$X-X0XaXCXcXR.8.O.@.8.@.M M x a R F.<XaXpXlXlXfX.X'.H.g.e.w.f.F.G.W.5X5X[.!.~.!.b.d.6.=.q.N.J.G.N.",
"! | 0.n.c.v.c.w.d.F.K.1XpX1X:X<XqXjXVXHX%Xo.Q G Q x m m j a 9 i o./.0X4XhXfX3X}.U.g.f.f.g.g.G.H.2XfXyX2X[.^.!.H.s.6.5.6.f.E.L.F.",
"..| &.0.c.c.v.d.f.L.-XkXVXpXpXpXCXZXZXnX9.C s > > i 3 < 9 # + 3 | R.wX,XpX5X.X].U.U.!.{.{.[.'.'.3XfXfXfXyX|.^.H.g.f.s.g.I.(.I.P.",
"&.| ~ >.M.c.v.d.b.E.0XkXkXDXDXCXSXZXHX%X[ k & & 2 l s 8 0 < < 3 E G.;X<X5X2X{.].'.'.|.5XhXfXeXeXlXlXfXfXfX6X].^.U.I.^.[.[.].I.I.",
"| %.%.8.M.c.v.b.J.K.-XNXDXDXCXDXDXAXPX7XJ 3 > I V.*X+X[ 9 9 9 f 8.W.4XjXjXpXpXpX4X6X4XiXpXhXhXhXlXlXfXfXhXyX3X6X3X5X5XyXpX5X^.U.",
"*.0.q.0.c.c.0.M.E.(.~.4XkXCXDXCXDXSXHX9XW s ,.rXGXmXmX+X..P :.#X8XjXjXjXjXjXNXkXNXNXNXkXkXkXhX5X6X6X5XhXhX3X|.|.6XfXfXyX5XyX'.U.",
"q.c.z.c.z.0.a.b.E.(.$XiXpXCXDXDXDXDXAX%Xg s y.xXIXMX#X9.&.J ! R.kXkXaXaXaXZXNXBXcX;XW.b.f.f.e.e.G.I.U.U.2XhX3X|.}..X.X.X3X2X'.W.",
"c.v.z.c.c.a.v.B.L.).:XaXaXCXCXCXCXDXFXd.[ f U x.*X#X>.:.A.z.~ ( L.VXCXCXZXbX9XY.0.| C C ^ N.K.e.e.W.[.'.U.2XhX3X}.`..X.X`.'._.W.",
"v.v.c.v.v.c.v.M.M.L.(.1X<XkXCXSXFXAXFXc.t.D.A H <.m.&.<.&X*XB.=.1.).uX9X#Xz.| C l J >.@X9XcXNX4XE.K.-X5X[.I.6XyX.X.X.XoX`._.'.'.",
"c.c.v.M.b.d.b.F.L.E.(.$X:XaXNXAXZXFXFX=X&.C.D._ 9.x.&.z.xXMX).q.a.$.$.Y V B U t.+XrXnXMXJXBXcXBXqXW.;XqXaX1X5XyX3X3X3X3XXX}._.'.",
"v.d.d.b.d.f.F.L./.(.:X:X<XNXVXAXZXGXZXGX@Xy.y.t.x.x.9.T.MXmX#Xz.<.` A r B P -.Z.+X&X&X%X%X%XR.R.J.M.J.R.W.wX,XpXhX5X3XeXeXXX.X}.",
"b.d.d.d.b.P.L.^.[.1X4X0XaXVXSXFXPXZXHXFXJXnXxX+XV.V.x.S.&X9XA.z.$.P P r k A S ) _ P U ! J J C C C g C g C J / f.W.4XhXeXeXgXgXXX",
"f.d.d.f.L.!.^.[.iXaXaXaXNXNXSXFXZXPXAXKXFXHXIXOXt.2.x.&XxXMX#Xz.2.A B 2 & 1 1 1 1 & 1 1 1 9 9 < > , w w s 2 s p E F.2XlXfXgXgXgX",
"f.f.g.H.^.[.[.5X5XjXaXkXNXNXSXAXFXLXKXKXAXUXmX:.D #.x.S.#X*XS.:.U V A  . .F I H H H l k h h v A P A < w w _ ,.O.Z R 7.6XfXeXlXgX",
"g.h.H.I.[.6XyXaX5XjXNXNXVXVXVXAXFXLXKXLXLXUXrX_ q V ` <.<.<._ k t t A D.xX*X7X7X7X7X%X#XT.C.m.t.n.S.,.....F { y.T.=./ g.2XlXgXgX",
"I.I.!.^.:X4X0XiXkXpX5XkXCXVXVXFXLXAXLXFXGXUX&XP t D r U V.#.f A r 8 A D.mXGXmXbXJXvXbXbXnXnXnX7X@X%X&XC.Y.0.! ! n.wXe.g.'.3XfXgX",
">X].[.[.1XiXiXiX>X{.>XiXVXSXSXSXAXAXAXFXLXUXS.k U OXS.Y.*Xn.y.+X3.D D -.&XIXmXmXbXvXBXNXcXBXJXcXnX7XnX7X#X7XY.8.E W.-XF.2X2XfXfX",
">X^.^.^.^.1X4X6X[.>X4XaXNXSXFXZXCXLXAXSXUXGXt.k H #XxX&X9X+XS.&X3.c A D #.OX*XMXJXGXBXNXZXJXBXBXvXcXsX0X$X8X;X8Xq.5.,X-XqX4X4XyX",
"E.K.H.H.H.!.].[.>X6XjXkXNXNXZXZXFXZXFXPXUX#XU k w ,.C.t.V.<.} t.-.c S D r D #.m.7X9X;XwXqXqXBXZXVXNXNXaXaX<X-XaX0Xw./.NXiX<X4X1X",
"J.H.L.K.P.H.I.^.].2XpXkXNXZXHXHXPXHXUXHX&X} k k 1 K ..C F B t ' ' D D D D k k I n.Q.Q.G.R.%X$XW.,XNXaXkXkXaXpXaXpXE.E.NXiX:X8X:X",
"J.J.L.L.L.I.I.^.{.4XpXjXVXHXHXHXGXGXGX+X` D ' D w e k k e c D q q N y y S A l { u.u.u.e.N.N.*.^ d.NXaXaXpXpXpXaXkX<X~.sX8X,X(.~.",
"J.F.F.K.^.^.^.[.>X4XpXNXZXcXqXqX9X%XC.#.D D ' D q 0 8 K c t ' D : u t c v h j 8.i.8.8.8.0.*.J 8.c.$XVXvXiXiXiXpXaX<X$XcX7X$XT.R.",
"J.F.K.E.^.[.>X>X>X4XaXNXqX;XR.@X%X+X:.P D D D c 8 e e e e 8 q r 7 7 t v l j Q @.O.{ @.o.o.J ! C.n.*.#XMXvXsXiX<X8X9X7X7X7X#XR.T.",
"J.F.E.(.^.].>X4X4XpXaXNX%XQ.N.C.C.Z.t._ c D D t 8 S S e - - 8 8 t ; 1 h j n Q ] m G W J J G ..y.&.g >.9XbXnX8X8X8X9X7X%XT.Y.Y.T.",
"K.J.E./.'.].>X4XiXiXvXFXR.q.*.y.9.8.y.,.K e e k q v P K h < w A k 1 < h n Q L n l l l A l F ;.,._ 2 #.C.%XmXuX9X7X7X=XY.n.n.A.T.",
"E.K.I.^.].[.>X<X0XaXvXJX0.| ....>.! ..;.[ F l k < w A K l s l F k h s l L m j h h l k k s v ;...v k <.$.$.9XnX9X&X&X#XC.y.z.A.T.",
"~.L.I.^.{.>X>X1X4XsXvXbX~ 2 [ I ! ! W L L I K l s 1 t v v k l l h h j v n h 9 h k r t k k v I I s P -.P f V.xXrX&X%X+XV.z.m.Y.T.",
"L.I.I.[.>X>X2X<X0XiXbX9X>.B l G G ! W L n j l l k * & 8 e k l h h 9 h h 3 3 h k k q & t A I F h s [ _ k H #.x.*X&X#X+XV.m.m.A.A.",
"H.I.'.{.2X2X2X,X0XsXnXm.<.,.F h C F F L m h 9 w w q 8 = 8 K K h e 8 8 1 & 1 h 9 w s > & t P P q k I A 2 _ H B +X#X#XOXV.V.m.m.M.",
"U.^.[.|.2X2X>X,X0XuX=X$.C _ ..l w s v h h h 9 < 1 8 q ; 0 c v e e e 0 - w A l w s t 1 8 1 t S _ I l f B _ f H V.OX+XS.V.V.m.m.m.",
"`.}.|.>X5X6X:X1X8XcX+XJ s s F P r D c < < h & 1 & 1 ; - 0 w - 0 t c r P _ } U A r q q q k r w P _ l k U U f U <.t.S.+XA.A.A.m.B.",
"}.}.{.>X0X0X1X1X8XuXY.#.P s 3 2 c D e - 9 e 3 9 k k k k r w - - e S +.t.y.<.} P k t t ; q k k f k F U U A k P -.<.V.Y.T.T.A.B.B.",
" X].].-X,XqX<X,XsX%X| U [ K h 9 k k h e e w h A  .-.:.,._ e 8 < e _ 2.D.y.:.I H k q 8 ; 8 q 1 k H H C B B A F _ y.V.V.A.Y.R.L.L.",
"].^.(.-X-X0X0X8XcXA.f 5 A A A A l w I A w 8 e S ` -.:.2._ h e 9 h P  . .[ I l k t e 8 ; q q q A [ J B B C J F [ D.S.C.Y.R.E.(. X",
"^.(.(.1X8XcXcX9X9XY...k w 8 w A g C ..F t w w k P I I [ A k v h h v I I ! [ H l k 8 1 ; - 1 t r F Y ! ! ! ~ [ :.t.A.%X%X$X(.[.1X",
"~.~.$X8XsXvXbX9X%Xn.<.P v 9 2 s p %.&.B t q q r P _ I I l l v h l G ] I [ | I A k 8 - - % & - 1 , s g C J ^ o.>.*.q.%X$X:X:X[.|.",
"J.L.~.:X8X0XnXnXS.:.-._ [ I C g R q.&.B q ; 8 t A U I J G F v v F W W J W ! [ P k c 8 O % - - * 2 2 2 p E / =.=.~ ^ (.$X[.>X{..X",
"f.F.L.~.(.$XuXMX<.P _ ) P l C Z 5.5.o.C 1 ; q r S U I I W I F F I { ..;.t.,.,.X.S q = - - - 1 & 2 l G J E ^ %./ Z p $X<X X|..XXX",
"e.s.f.h.!.~.8X9XU $ ; 1 < d ^ o.5./ ^ C 5 * q V _ ;.9.9.&.I F n I ..9.n.n.9.} A c 8 = - - - 8 1 H >.>.o.~ E E Z p Z ,X1X|.oXXXXX",
"e.7.7.l.H.P.$XB.V % - & , J / / / / ^ g , & $ 1 A [ ,.9...n l L I ..&...| [ F t e - = = % ; k A >.m.m.9.o.C C p 6 5.0X|.|.oXoXXX",
"7.7.l.k.U.P.).>.f : - & , Z ^ ^ 5.( ^ J f $ o > s F [ [ G z G ] { I G I I l k k q - - = & - f  .>.%.&.>.! d C p p L.4X|.}.}.`.`.",
"f.7.l.k.!.^.L.Y q % ; 1 , p R ( 5./ =.>.| B > $ > 2 s d j F G F F z F W [ G k q ; ; - - - & f :.&.J J [ ! g p p 6.1X6X6XoX`.k.U.",
"g.p.l.h.!.^.0.B * % ; * , p E / ^ R %.%.>.>.g 6 a i j l z n z z G I L F C n s < 8 0 - - < 2 [ m.9.>.U l B B 4 T 1XyX].].`.U.k.U.",
"l.j.j.U.^.E.o.g - - ; & 5 5 C C p Z C T 8.0.o.x a s F F j z x z z n F L J F l h w < - 1 1 F 9.n.>.| I k k B , V (.4X!.k.U.h.g.H.",
"j.l.l.h.^.N.E 2 & % % * 5 * 5 2 f Z V ~ *.=.8.O.j j L ] L G z z E W W L z l k h w 8 < < s [ ;.~ %.T B t 1 8 * , a.>X].k.k.h.g.h.",
"j.p.p.f.G.=.z s + - * 5 * $ 1 > A f J ~ Z R 8.0.W a h n F z d d z G G C d 2 2 2 k c w > G :.| g Z ^ B 1 ; ; & 3 / -X[.k.h.h.g.l.",
"p.7.p.s.e.^ F < & O & 1 , 1 & < s F | C p p ^ &...L n K F d s i d p x z g f f P U H k 2  .&.~ p d C D ; ; - 9 l ! G./.H.H.g.h.h.",
"6.4.7.7.q.E F 1   8 1 A F k A v A s I B p p ^ ~ C I L l s s s i i R o.! C V B U U k f l | ! Y C p s k % - - w F J 5.N.f.f.g.g.H.",
"p.p.7.6.=.Z d & O c P  . ...+...) A B 5 4 ! ! p C ..| l > > B F i [ ;.! V f g H A k G [ x.Y.n.! 4 > ; % = - 9 v J E 5.w.s.f.g.h.",
"s.p.7.6./ Z l < < _  .:.;.-.,.+.P A w , 5 ~ H p Y :.y.9.J 2 l l C J H C H B f l i j I [ 9.m.V.<.s o % % - = < h L Z / w.s.s.p.g.",
"6.6.6.5.E Z l + 9 ) } -.#. .` ` ` k 5 , f H f V | n.%X%X9.s 4 B f 4 3 p C C g d G G Q W &.>.9.9.l & % - - @ - 9 n G E *.w.6.s.g.",
"6.1.6.5.R z j + k k [  . ._ k _ ` q % & , w * 4 z.+XT.Y.m.J , s 1 , > 2 l J W Q Q O.O.Q E { *.t.A - O @ = @ @ 0 j L C ^ 5.5.s.g.",
"1.( =./ R z l 3 v K _ ..[ A t S ) 5 % ; ; ; $ H z.T.T.M.C.;.s 4 f 4 > > g { O.Q Q Q ^ O.E E ~ ;.F 1 O @ - 0 @ # 9 l C Z =.1.s.s.",
"( ( %.^ R x j < A I  .[ F k - c ' q %   q ; o H x.A.Y.c.m.y.} H | [ L j d G { G Q Q Q Q x E | | P q - - e y 0 + < s G G =.5.w.q.",
"~ =.o.^ Q m d l F A ) A k k O ; S t   . O = & B 9.M.c.M.m.C.&.I :.,.[ F F E G m Q W ^ E E z J | I k o e h v h # # a n F ! *.q.*.",
"%.%.E E m m j I A A A k k 1 O = y q O . O = & k >.c.c.M.m.m.:.! { L F I l F G F G G G z C s j [ P k & c h v b 0 + 9 b n W o.>.%.",
"~ ^ C G j j v +.S k k k 8 % =   ; 7 % X X = & q $.y.0.q.0.0.| l F F l f w 5 1 w l k 4 3 s f 1 w k 1 & l b v n a + # h n L ] ..| ",
"T T C Q x j K :.A t w 8 7 O . % . = O . . = & 1 [ >.&.~ %.>.| s 2 l 2 & q r $   1 A f & & w o O % O + j v v n c < + 9 v n F [ &.",
"^ T G G n j L +.U * & ; - O O     X . . . % - 1 I $.&.>.&.:.#.f s 2 , * 1 k t ; k } P , , q O % O @ + a n v v v 9 + # h n n [ -.",
"~ ^ J n j j ) X.#.P -     . X X . X . . . X % ; B } } } J C F P  .H V 5 & q t k P } B 5 k 8   % % - + < v n v K h - + 9 v F I [ ",
"~ | W G j j ) P A ' D e O O X X X X . . . . % % , P U H F 4 4 U #.$.A 1 q w o > I [ s 2 k &   = = = o + a n F K c 8 + + h F K P ",
"~ ~ G m j v v 1 q t t e e y X = X = . . X . = % 1 k P B 5 * 5 f Y P w 1 c k o 2 ..,.l 2 v 1 % q u 7 O + 9 v A A c c < O 9 v A A "
};
