/* XPM */
static char *_c3fcce098e84d12aab178fb76a4f59fId9zxzYWJGuW26fJ[] = {
/* columns rows colors chars-per-pixel */
"64 64 256 2 ",
"   c #1C1602",
".  c #2B1E0A",
"X  c #2A2804",
"o  c #3A2E05",
"O  c #3A3605",
"+  c #362919",
"@  c #312D0E",
"#  c #120F20",
"$  c #3E3425",
"%  c #26253A",
"&  c #302B28",
"*  c #25112C",
"=  c #423400",
"-  c #453C01",
";  c #493C08",
":  c #483B17",
">  c #553914",
",  c #493926",
"<  c #412927",
"1  c #434200",
"2  c #4B4301",
"3  c #4A4707",
"4  c #544C02",
"5  c #524B0C",
"6  c #5D4E0D",
"7  c #564602",
"8  c #555300",
"9  c #5D5302",
"0  c #5C5A0C",
"q  c #5B5A06",
"w  c #4C4413",
"e  c #4B4719",
"r  c #5C4A14",
"t  c #56481B",
"y  c #5E5B1B",
"u  c #5B5516",
"i  c #4E510E",
"p  c #614A06",
"a  c #645402",
"s  c #645B03",
"d  c #6C5C03",
"f  c #635D0C",
"g  c #685A0E",
"h  c #775E04",
"j  c #634C15",
"k  c #645514",
"l  c #685A18",
"z  c #735A16",
"x  c #6D6808",
"c  c #7C6305",
"v  c #7D640B",
"b  c #776B0C",
"n  c #73730A",
"m  c #787804",
"M  c #6B6213",
"N  c #63641C",
"B  c #6B681A",
"V  c #726C19",
"C  c #7B6B1A",
"Z  c #756516",
"A  c #7B7A1B",
"S  c #797616",
"D  c #6D730F",
"F  c #564726",
"G  c #5C5527",
"H  c #594B37",
"J  c #5D5436",
"K  c #48482A",
"L  c #665B25",
"P  c #645A2A",
"I  c #6B5C2C",
"U  c #675627",
"Y  c #735D2B",
"T  c #634B35",
"R  c #695835",
"E  c #614E23",
"W  c #6B6625",
"Q  c #746B23",
"!  c #746B2D",
"~  c #786827",
"^  c #737326",
"/  c #7D7324",
"(  c #7C752C",
")  c #7E7B2C",
"_  c #797C24",
"`  c #6D6537",
"'  c #756B33",
"]  c #797634",
"[  c #6B723E",
"{  c #675846",
"}  c #74574F",
"|  c #756646",
" . c #7E6E52",
".. c #757242",
"X. c #574D4B",
"o. c #81660C",
"O. c #836A0E",
"+. c #876C09",
"@. c #8C7B01",
"#. c #887708",
"$. c #947B0D",
"%. c #836712",
"&. c #856C12",
"*. c #886F14",
"=. c #866C19",
"-. c #886E19",
";. c #926F1B",
":. c #8B7216",
">. c #8C7A14",
",. c #8D741A",
"<. c #8D791C",
"1. c #847418",
"2. c #937C14",
"3. c #90771B",
"4. c #937A1D",
"5. c #9A7C1D",
"6. c #967618",
"7. c #816C24",
"8. c #8C7523",
"9. c #8E7B23",
"0. c #8C7C2C",
"q. c #847828",
"w. c #927622",
"e. c #967D21",
"r. c #987F22",
"t. c #947B2B",
"y. c #9B7F2A",
"u. c #836A36",
"i. c #8D7C34",
"p. c #857937",
"a. c #957D33",
"s. c #937838",
"d. c #A17D31",
"f. c #897B45",
"g. c #8C7251",
"h. c #7E8304",
"j. c #7F8112",
"k. c #7E813E",
"l. c #878706",
"z. c #978708",
"x. c #8E920B",
"c. c #8B9508",
"v. c #929502",
"b. c #97980A",
"n. c #8D8C1B",
"m. c #878818",
"M. c #958414",
"N. c #9A8214",
"B. c #93821C",
"V. c #9B831C",
"C. c #928D1C",
"Z. c #9C881A",
"A. c #9A8914",
"S. c #8D9318",
"D. c #929414",
"F. c #949C15",
"G. c #92951B",
"H. c #9D951D",
"J. c #949A1C",
"K. c #9B9A16",
"L. c #A2861C",
"P. c #A48C1C",
"I. c #A48C16",
"U. c #A69718",
"Y. c #AD920A",
"T. c #99A30C",
"R. c #9CA31D",
"E. c #9AA113",
"W. c #A3A618",
"Q. c #AAB41E",
"!. c #838324",
"~. c #8A8524",
"^. c #89872A",
"/. c #958324",
"(. c #9B8225",
"). c #9C8C21",
"_. c #95822A",
"`. c #9E8529",
"'. c #9C8C2D",
"]. c #938D28",
"[. c #8C9323",
"{. c #939425",
"}. c #9B9C24",
"|. c #93942C",
" X c #9E932B",
".X c #9B9B2A",
"XX c #989925",
"oX c #838133",
"OX c #8D8A32",
"+X c #8B8439",
"@X c #938233",
"#X c #9D8333",
"$X c #9D8A34",
"%X c #938C3C",
"&X c #978838",
"*X c #959735",
"=X c #9A9D3C",
"-X c #9A9836",
";X c #8F9335",
":X c #A28424",
">X c #A28B24",
",X c #A0872A",
"<X c #A8862A",
"1X c #A38A2D",
"2X c #AC8E2C",
"3X c #A98E25",
"4X c #AA922E",
"5X c #A59626",
"6X c #A38634",
"7X c #A68D31",
"8X c #A88F32",
"9X c #A38D3B",
"0X c #A5883C",
"qX c #AA9134",
"wX c #A39D35",
"eX c #AB933A",
"rX c #AC9A3D",
"tX c #A79838",
"yX c #B19739",
"uX c #B29737",
"iX c #B19323",
"pX c #9CA223",
"aX c #9FA429",
"sX c #9EAE2A",
"dX c #9CA335",
"fX c #A2A424",
"gX c #A5AB2A",
"hX c #A7A52A",
"jX c #ABB823",
"kX c #A5A335",
"lX c #A7AA38",
"zX c #B2A936",
"xX c #B5B23F",
"cX c #AFB735",
"vX c #B3C123",
"bX c #848242",
"nX c #898345",
"mX c #998845",
"MX c #9A9243",
"NX c #9C9747",
"BX c #92894C",
"VX c #A98A48",
"CX c #AC9341",
"ZX c #AC954A",
"AX c #A59647",
"SX c #B09651",
"DX c #AC924E",
"FX c #9AA441",
"GX c #A7A54B",
"HX c #B4A547",
"JX c #B8B746",
"KX c #AFA852",
"LX c #908363",
"PX c #A1946A",
"IX c #A1A060",
"UX c #C6C75F",
/* pixels */
"(.,X1X7X1X`.(.(.eX7X1X7X7X1X`.,X,X1XqXqX1X1X1X1X`.qXqX`.(.(.`.qX(.4.4.(.`.4.,.3.,.:.&.&.&.:.e.1X`.4.:.:.&.O.:.e.(.(.e.<.:.:.&.v ",
"(.`.1X7X1X1X1X1X1X,X,X7X7X,X(.(.`.1X8XqX7X1X1X1X`.qX1X`.1X1X,X1X(.e.r.(.(.e.e.(.r.4.:.,.,.,.4.(.r.4.3.4.,.:.3.(.(.e.4.4.w.<.-.&.",
"(.`.1X1X1X1X8XqX`.(.,X8XqX1X(.r.r.`.1XqXqX1X,X`.(.1X`.(.1X7X`.`.(.,X`.(.r.(.(.(.(.4.,.4.e.4.4.4.4.4.e.(.(.e.e.(.e.:.:.4.t.<.-.-.",
",X,X,X,X1X1XqXqX1X,X1X8X8X,X(.r.4.(.1X7X7X,X(.e.e.`.(.4.`.,X(.`.1X7X,Xe.e.`.`.4.r.,.:.4.(.(.4.3.r.(.`.`.`.(.(.(.4.O.o.<.t.:.%.=.",
"1X1X`.`.,X1X7XqXqX1X,X1X,X(.e.e.4.r.`.,X,X(.e.3.r.,X(.3.e.(.(.1X7X1X(.3.e.1X`.3.(.4.3.(.1X`.e.,.`.1X1X`.(.(.(.(.4.O.O.4.w.*.v &.",
"8X1X,X`.,X1X7X7XqX1X(.(.r.4.3.4.e.e.e.(.(.(.e.4.`.7X`.4.e.(.`.8X`.r.3.3.(.1X,Xr.1X(.(.1X7X1Xe.,.`.1X,X(.e.(.(.r.4.:.:.w.w.*.%.%.",
"qX1X,X,X1X7X8X8XqX,X(.r.e.4.3.4.r.4.4.4.e.(.(.(.1X7X`.4.(.,X`.1X4.3.3.e.(.(.`.1X1X`.`.7XqX1Xr.4.4.r.(.e.e.(.(.(.:.3.4.w.<.*.&.&.",
"qX1X1X1X7XqXqXqX8X,X(.(.(.e.4.e.(.4.3.3.e.`.,X1X1X1Xr.4.,X1X(.(.4.3.4.`.(.4.(.7X(.(.(.1X8X1X(.r.&.,.e.e.e.`.`.(.&.,.e.<.-.*.&.%.",
"1XqXeXqX7X7XqXyXeXqX1X(.4.3.4.4.(.e.4.3.4.(.(.`.qX`.4.4.`.1X,X(.4.4.4.,.,.4.(.1X(.1X`.(.`.(.(.7X:.&.,.e.4.e.(.e.:.,.<.*.&.&.:.:.",
",X7XqXqXqX7XqXqXeXqX1X(.4.3.4.e.(.e.4.3.4.r.(.(.1X(.4.4.(.`.(.4.4.4.4.4.4.4.e.(.e.,X`.(.`.(.e.(.4.:.,.4.4.e.(.4.,.4.4.*.O.&.*.:.",
"(.1XqXqX8X7X7X7XqX8X1X(.4.4.4.r.`.(.e.e.(.(.`.`.(.r.r.r.(.(.e.4.4.e.e.e.4.4.3.4.4.`.`.(.1X(.3.e.(.,.,.4.3.e.(.,.4.w.4.&.v O.&.*.",
"`.1X7X7X1X1X1X1X8X7X1X(.4.4.e.(.1X,X`.`.,X1X1X1X(.(.`.(.(.r.(.(.r.(.(.e.4.,.,.,.3.(.(.(.1X(.4.e.`.3.,.3.3.e.(.,.,.4.:.O.v v &.*.",
"7X1X1X,X`.`.`.,X7X7X1X`.e.4.e.(.1X1X,X1X1X7X1X1X(.`.`.(.e.4.(.,X`.`.(.e.3.,.,.4.4.r.e.e.`.`.r.`.,X3.,.3.3.e.(.,.:.<.:.&.v &.:.4.",
"8X1X,X`.(.(.`.,X7X8X7X,Xe.4.e.(.1X,X,X1X1X1X1X`.(.`.`.(.4.4.(.,X1X1X`.r.4.4.4.e.4.e.4.3.(.`.(.,X`.4.4.4.4.e.r.,.:.4.<.:.&.:.e.r.",
"1X1X`.`.`.`.,X,X7XqXqX,Xe.4.4.(.,X,X,X1X1X1X,X`.(.`.1X,X(.(.(.`.1X1X1X`.(.e.e.e.4.e.,.:.(.(.e.`.`.e.e.r.4.4.4.:.:.<.4.:.:.,.e.r.",
"`.`.`.,X1X1X1X,X7XqXqX1Xe.3.4.(.1X1X1X1X7X7X1X`.`.1X7X7X1X,X,X,X`.1X1X1X,X(.r.r.3.4.,.:.(.(.4.e.,Xr.(.(.3.,.3.&.&.:.,.:.*.:.4.4.",
"5.2.5X5XM.'.9X8.#X4XiX$.4.y.8.0XY.<XDXCXz.z.(.VX:X3X_.zXg.} z.(.1X1X7X7X,X(.r.e.s.s.C >.z.z.#. X>X2.r.6Xt.w.V.+.M.#.#.B.4.*.%.,.",
"7Xe.`.1X4.(.eX6X#X1X>XV.r.r.3.2.y.,X,X4.rXeX(.2X<X0X/.q.: ; k ZXr.(.`.`.`.(.e.4.@.z.9.l Y t R { q.4 6 - r ~ g 9 Z i.&X0.8.<.:.c ",
"`.w.#XCX6Xy.,X1XCXqX(.e.:.,.>XA.a.ZXKX7.DXa.:.iX<XVX/.I l S H f.4.e.e.(.(.r.4.,.M.<.7 R , F y 0 O X ..K X : G 5 F o o k 8.4.2.N.",
"/.e.`.0X6X(.:XP.(.>X>XqXt.t.qXN.b L | : 0.V.V.<Xy.9X/ ` S.aXH t (.(.(.r.4.3.3.4.s.l - mX) A c.T.[ O X e ` O L bX| : = l q.*.+.2.",
").>X(.:.6.:X3X4X5X).).9.z ~ mX9X+XO F o q.rXuX*.CXhX` oXv.S u ` `.1X1X(.,.:.4.(.Q d C..X-X1 W N ] bXl 2 MXq.= - 2 l / q.8.4.r.:X",
"B.3XL.$.V.1Xi.q.AX'.'.b 7 k W i.g.5 *XS W u.#XA.ZXl.k =XD.f m SX`.,X,Xr.:.:.e.`.I / XXj.0 : , $ 2 8 %X4 = $X`.4.n >././.&.h v %.",
"8.`.L.P.qXi.F $ , E NX^.) ) 2 g , 2 lX{.l U Z uXq.4 9 {.^ Q 2.7X`.(.r.4.,.,.,.3.H p.S q.2 PXW +X) 2 V KXa d &.h 4.O.o.,.e.3.e.7X",
"mX#X5.L.6XU . # * + ..V !.AXV NX] 0 ;X|..X-X9 ~ ~ R D.].F i.eXL.`.(.4.3.3.:.O.c 8 m.J.].6 BX4 z.i IXO +X/ a @X=.%.,X6X-.o.:.:.c ",
"<X(.(.'.&X' :   % % & K H e e G Q.x.fXJ.}.JXoX2 8 W.fXR | 5XU.w.g.I.@.m x./ < T w 0 pX!.F z.r q.6 MXM ^ ) a <.O.,.e.(.4.:.:.-.%.",
"(.V.B./.'.@X] W i @   & X.{ G N fXkX{.zXfXD.JX-XGXMXkXx.q R mXU.5.@.$Xg.~ E t x P ^.dX*XE M.k ( k p.B ^ V Z eX6.4.(.e.,.*.*.-.&.",
":X(.Z.Z.Z.`.$X9XwX%XW : @ X t nX9.OXGXkXD.b.E.W.-XG ^ vXW.` R b Z.@.Z : ; R ! m P J._ n.r /.Z l W - 1 ^ M a r.1X(.(.4.:.&.&.-.-.",
"`.,X,X>XV.V.5.(.9.$XtXrX=X( G F Z g %X-XfXcXK.gXS.B w N cXQ.b F f.9 2 A GX! - p.L T.0 h.r a.*.r bXbXbXQ M _.1X+.(.e.,.*.&.&.-.:.",
"t.t.y.(.(.5.5.6.ZX6X3.M.4XrX$XmXt.7.7 ^ OXm.lXHXR.cX! + W jXR.R , P [.F.{.V ; F ' Q._ S.j t.>.l o 4 0 2 Z 9X`.:X4.4.:.:.*.*.-.,.",
"#Xy.t.t.r.r.r.r.3XyXCX0X#X4.M.U.7XCXW - q ^.kX-XgXfXlXk.e y |..X! O A XX2 - Z Y ! jXFX{.U ,.,.0.C M g 7.9X,.h 3X4.:.*.:.:.-.-.,.",
"1X,X(.e.w.e.(.`.P.4X6X#X0X<XN.A.5.6XmX2 B UXxXzXxXm.F.gXB O W hXS - ]..X; u.HXk W j.lXm.Y z.=./.O.e.8.=.w.$X1X4.4.:.&.*.:.*.=.:.",
"N.N.V.2.4.4./.'.9XrX4XI.I.:Xd.VX2X#X6 W =XpXW.W. X5XD.F.lXoX5 5 oX; m.gX~ 7.(.u.oXD sXS g.Y.7.2.6.:.*.w.%.:.7X1.r.:.&.*.-.&.&.:.",
",X(.4.r.(.`.1X8XqXeXqX,X(.e.(.r.'.s I *XpXG.R.GXW.C.tXD.v.Q.^ @ |.wXv.v./ ~ tXd *XD.J.q.~ _.5.3.,.,.:.&.:.4.e.4.4.,.,.4.e.4.,.:.",
"`.e.e.(.,X1X1XqXqXqXqX1X7X7X`.e.Q L K.n.dXpXw ^ F.hX XXXU.K.!.N l.~.C.H.q.S ].U *XJ.fX%XW w.2.;.,.,.:.&.:.4.4.3.:.:.,.4.e.e.4.,.",
"r.e.r.,X7X7X7XqX,X,X,X1XqXqX(.&.$ Q pXW.{.' t t n JX.X{.wXC.XXG.b.~.{.}./ C A U A l.pXMXk <.2.6.,.,.:.&.:.,.4.,.:.,.,.4.4.4.3.,.",
"e.4.(.1XqX7X1X1X>X>X`.,X8X7X4.v & 8 p.lXx E mXI u =XaXD.C.C.H.x..Xm.b.x.w F f Q x m J.MX6 <.2.;.,.,.:.*.:.3.4.,.3.4.4.4.3.3.:.&.",
"4.4.(.1X7X1X`.`.3X1X1X1X8X7X(.:.y . `  .l M.VX`.J N J.E.v.H.C.M.{.~.b.R.t G B oXOXG.}.oX6 ,.2.*.3.4.,.:.,.4.4.,.,.e.e.3.,.3.,.*.",
"e.4.e.`.1X`.(.(.,X1XqX1X1X7X1X(.q.P , T s.P.Z.Z. .- S pXE.K.n.'.W.!.S kX) OXA G NX}.XXM k :.N.5.,.4.,.:.,.4.4.3.:.4.e.,.,.4.e.,.",
"e.4.4.(.`.`.`.,X>X>X,X,X1X1X,X(.i. X> =.yXs.U.3.&Xk t ( |.J.D. XK.^.s ].B _ n 1 ) m.S.4 ~ <.N.r.,.,.,.:.,.e.e.3.:.4.e.,.,.e.r.4.",
"e.3.3.r.`.`.1X7X1X1X1X,X1X1X`.w.&X8.z.I.e.`.VX:Xb.@X, , ] S.F.m.~.GXx.gXw t m.m.f h.G.8 +X/.N.6.:.:.:.:.,.4.4.,.,.(.(.3.,.e.e.3.",
"3.4.(.,X`.(.`.7XqX1X,X,X1X1X,X(.(.r.e.(.1X7XqXqX4XeX7.l f |.}.K.5X'.) =XgXl.5Xg X MX( a #X(.O.r.O.:.:.&.:.4.e.3.4.e.r.4.,.,.4.3.",
"4.4.(.`.`.(.`.1XqX1X`.`.,X1X`.(.r.e.e.(.,X7XqXqX3X,XZXMX9 OXJXD.K.wX- q m F.n.&X) oXM C #X<.:.`.&.,.,.:.&.:.3.3.4.4.4.,.:.,.3.,.",
"4.4.e.`.`.(.`.1XqX1X`.(.`.`.`.(.e.e.e.(.,X7XqXqX2XuX$X@XV $XkX5Xv.c.{.[.F.T.W.D.oXf f &X6X,.e.,.&.,.3.:.O.*.3.e.,.3.,.:.:.,.3.:.",
"e.4.4.(.`.`.`.`.7X,X(.(.(.(.(.(.4.e.r.(.,X7XqXqXuXyXt.@Xq.~.B.zX=X5 J F ` ' ! 5 q f 1.9Xy.:.(.O.*.:.:.&.&.:.4.(.:.:.:.:.,.4.,.&.",
"r.4.4.(.(.(.(.`.1X`.(.(.r.(.(.(.e.r.(.`.1X1X8XqXuX,XHXKXs S kXhXN G : , + : . ] b _._.r.4.:.(.4.3.:.O.&.:.,.4.4.&.:.:.,.4.4.:.O.",
"e.4.4.r.(.r.(.`.`.`.(.(.(.r.r.r.r.(.,X1X1X1X7X8X8XeX@XC 4 m.kX}.|.x x S 9.~.x #._.7X,.4.,X4.4.).(.,.&.&.:.:.:.:.O.:.,.,.,.3.:.O.",
"4.4.e.(.e.4.(.,X(.`.`.`.(.(.e.e.(.`.1X1X7X7X7X8XCX$Xs 9 D .XG.D.f.B AXt.8.v 9X_.e.r.*.5.,X4.4.4.(.,.:.:.,.*.&.&.&.:.,.:.&.*.&.O.",
"4.4.r.(.4.3.r.1X(.`.`.`.`.(.e.4.`.1X7X7X7X1X7X8XZXg M GX*XdXpXc.; q.>.N.N.2X,.2.r.y.5.6.o.:.>X>.4.:.:.,.,.&.&.,.&.:.:.&.o.O.&.&.",
"3.e.(.e.4.4.(.1Xr.(.`.(.e.4.e.(.e.`.1X1X`.`.1XqXLXw B n {.[.KX8 &.3.(.`.`.(.e.3.:.:.,.,.,.:.,.,.,.4.4.:.&.&.*.,.<.<.O.c &.&.O.*.",
"4.e.r.e.4.e.(.1X(.`.,X`.(.e.e.r.`.`.`.,X1X1X1X1Xl - 0 q V 0 W y ,.e.(.(.(.(.r.4.:.,.,.,.:.&.&.&.:.*.&.&.&.:.:.:.,.4.*.O.&.&.O.:.",
"4.4.4.e.r.(.`.,X,X,X1X,X`.(.e.e.1X`.(.`.7XqX1X(.b 1.0.k U I e | (.`.r.4.e.(.r.3.:.,.,.,.:.*.&.*.:.&.v o.:.4.,.:.:.4.:.&.&.o.v :.",
"e.4.4.e.(.`.,X`.,X,X,X,X,X`.(.e.1X`.(.`.8XqX1X(.$.qX9Xj j BXU Y 1X`.e.4.e.(.e.:.*.:.,.,.,.,.3.4.4.:.O.&.:.4.<.:.:.4.*.o.O.o.v :.",
"r.4.4.e.(.,X`.(.`.`.`.,X,X,X`.(.,X,X`.,X1X1X,X`.2.4._.z p SX9.&.1X`.4.4.e.(.4.&.&.:.,.,.3.4.4.e.,.:.&.*.:.,.,.,.4.4.&.v &.&.&.:.",
"r.4.4.e.(.`.(.(.(.(.`.`.`.`.`.`.,X,X1X,X,X,X,X1X1X:.`.6Xv 1X>XH.`.(.4.4.e.(.4.&.:.,.,.,.:.:.:.:.&.&.&.&.&.:.,.4.w.4.&.v :.:.*.<.",
"e.e.e.e.(.(.(.r.(.`.`.(.e.e.(.`.,X,X`.`.`.,X1X1X8X4.(.qX:.>.B.).`.(.e.4.e.(.4.,.3.4.4.3.:.*.&.&.&.&.&.&.*.:.,.4.*.:.&.O.:.:.*.:.",
"e.e.r.r.e.e.e.e.(.`.`.(.4.3.r.`.1X,X(.(.`.1X1X7X1X7X(.>X)._.$Xa.`.`.r.4.4.(.(.4.4.e.e.4.,.:.:.:.<.:.*.*.:.:.:.:.h &.&.&.*.&.v *.",
"1Xr.4.(.`.e.4.4.4.r.(.`.(.4.4.4.`.,X1X,X`.`.1X7X1X1X`.`.(.(.(.r.`.(.r.e.r.r.e.4.3.4.4.,.:.:.:.:.4.:.&.&.:.<.,.=.&.*.&.O.&.*.=.%.",
"1X(.e.`.,X`.r.r.(.`.`.(.r.e.e.e.,X1X1X1X,X,X1X8X1X1X1X`.(.e.e.(.`.(.r.e.e.e.4.4.,.,.3.,.:.:.:.:.4.,.*.*.:.:.-.%.&.&.&.O.&.*.&.%.",
"`.(.e.`.,X,X`.`.`.`.(.r.4.4.e.(.,X1X1X1X1X1X1X1X1X7X7X,Xe.4.e.(.`.(.(.e.e.e.4.3.,.,.,.,.:.:.:.:.,.:.:.:.:.,.=.&.:.:.&.&.&.-.=.%.",
"(.e.e.(.`.,X,X,X(.(.e.4.4.4.e.(.`.`.,X1X1X1X,X`.1X1X,X`.r.e.(.`.`.(.(.e.e.4.3.,.,.,.3.,.:.*.:.:.&.&.:.:.:.:.:.-.,.,.:.*.*.:.,.&.",
"e.e.e.r.(.,X1X1X4.e.e.e.e.e.(.(.,X`.`.,X1X1X1X`.,X(.e.e.(.`.`.(.(.(.r.e.e.4.,.:.,.3.3.,.:.&.&.*.*.:.:.:.:.*.=.=.,.,.:.&.*.:.-.%.",
"(.(.(.(.(.1X7X1Xr.(.(.(.(.(.`.,X7X,X`.1X7XqX1X,X`.e.3.4.(.`.`.(.(.r.e.e.e.4.,.:.,.,.,.,.:.&.&.*.:.,.3.,.*.&.&.%.,.,.:.&.&.&.%.v ",
"(.`.`.(.(.,X1X1X,X,X`.(.r.(.`.1XqX1X(.`.7XqX7X,X(.e.3.3.4.(.(.(.e.e.4.e.e.4.,.:.:.:.,.:.:.:.:.:.:.,.,.:.&.o.%.-.3.3.:.&.&.&.%.h ",
"r.`.(.4.4.(.,X`.7X1X(.4.4.4.(.1X8X`.r.(.1X8X1X`.(.e.4.3.3.4.r.(.4.4.4.e.e.4.3.:.&.*.:.:.:.:.,.,.O.*.:.:.&.&.-.w.e.e.,.*.&.*.&.v "
};
