/* XPM */
static char *_b1aa71047924b4bd220406d481722482pdr1jWXtbKn075c[] = {
/* columns rows colors chars-per-pixel */
"64 64 231 2 ",
"   c #0A161A",
".  c #111A1D",
"X  c #020C0E",
"o  c #0C1B25",
"O  c #0A1B26",
"+  c #121E24",
"@  c #141F2B",
"#  c #0E2129",
"$  c #0C2127",
"%  c #142325",
"&  c #13242C",
"*  c #1A262B",
"=  c #15292D",
"-  c #1B2B2D",
";  c #1A2527",
":  c #0E2A39",
">  c #152531",
",  c #162A33",
"<  c #1B2C34",
"1  c #1D2E3A",
"2  c #172B37",
"3  c #1D3135",
"4  c #1D323A",
"5  c #222C2E",
"6  c #222E34",
"7  c #212E39",
"8  c #223235",
"9  c #23343B",
"0  c #2A363B",
"q  c #25393D",
"w  c #2B3A3D",
"e  c #2A3634",
"r  c #333C3A",
"t  c #26322E",
"y  c #17211F",
"u  c #35413D",
"i  c #1B3647",
"p  c #243642",
"a  c #253A42",
"s  c #2B3D43",
"d  c #283C48",
"f  c #313E44",
"g  c #363F46",
"h  c #2D4146",
"j  c #2D424A",
"k  c #27414D",
"l  c #334245",
"z  c #33454B",
"x  c #3A464B",
"c  c #35494E",
"v  c #3B4B4C",
"b  c #3A4645",
"n  c #294554",
"m  c #354B52",
"M  c #3A4D53",
"N  c #384E5A",
"B  c #3D5155",
"V  c #3D525B",
"C  c #3A545D",
"Z  c #3C514F",
"A  c #3C5563",
"S  c #324F62",
"D  c #414B4D",
"F  c #434A46",
"G  c #47514D",
"H  c #434D51",
"J  c #435354",
"K  c #43555A",
"L  c #4A555B",
"P  c #45595D",
"I  c #4B5A5D",
"U  c #4A5555",
"Y  c #535D5C",
"T  c #565B57",
"R  c #58615D",
"E  c #4D615F",
"W  c #62645E",
"Q  c #455B63",
"!  c #4B5D63",
"~  c #445C69",
"^  c #535E63",
"/  c #595E64",
"(  c #445F70",
")  c #4D6065",
"_  c #4D636B",
"`  c #43606E",
"'  c #536264",
"]  c #5B6564",
"[  c #53646A",
"{  c #5B666B",
"}  c #55696E",
"|  c #5C6A6C",
" . c #5F6866",
".. c #4C6572",
"X. c #4B6778",
"o. c #536A74",
"O. c #5B6C73",
"+. c #556B79",
"@. c #5D7075",
"#. c #5D737B",
"$. c #56717C",
"%. c #636964",
"&. c #636D6C",
"*. c #686A66",
"=. c #6A726D",
"-. c #73746E",
";. c #636D73",
":. c #647274",
">. c #6A7474",
",. c #63757B",
"<. c #6C767B",
"1. c #6B797C",
"2. c #69797A",
"3. c #757A75",
"4. c #7B7B75",
"5. c #747D7B",
"6. c #767874",
"7. c #736F6A",
"8. c #625D59",
"9. c #817D79",
"0. c #7D827D",
"q. c #79827B",
"w. c #83837D",
"e. c #858A7D",
"r. c #5B7583",
"t. c #647B84",
"y. c #6A7C83",
"u. c #657C88",
"i. c #737E84",
"p. c #6C838C",
"a. c #6B8287",
"s. c #7B8483",
"d. c #73848B",
"f. c #7B868A",
"g. c #7C898C",
"h. c #758385",
"j. c #6B8695",
"k. c #7A8C93",
"l. c #748A97",
"z. c #7C929B",
"x. c #7A96A3",
"c. c #868A83",
"v. c #8B8B85",
"b. c #838C8C",
"n. c #8C8E89",
"m. c #878682",
"M. c #928E8A",
"N. c #908C87",
"B. c #8D928D",
"V. c #8E9284",
"C. c #93938D",
"Z. c #98978F",
"A. c #848D92",
"S. c #84959B",
"D. c #8B969B",
"F. c #8A9697",
"G. c #949691",
"H. c #9A9691",
"J. c #969A93",
"K. c #9B9A94",
"L. c #939B9B",
"P. c #9C9D9A",
"I. c #A19E98",
"U. c #9BA29C",
"Y. c #96A19A",
"T. c #A3A39C",
"R. c #A5A59A",
"E. c #8C9DA4",
"W. c #859BA6",
"Q. c #929EA3",
"!. c #989DA1",
"~. c #8DA1AA",
"^. c #94A5AC",
"/. c #9BA6AC",
"(. c #9EAAAC",
"). c #98A4A5",
"_. c #8BA7B4",
"`. c #99ABB3",
"'. c #9CB2BB",
"]. c #A4AAA4",
"[. c #ABACA4",
"{. c #ABAEA9",
"}. c #A4A9A8",
"|. c #ADB3AC",
" X c #ACB0A7",
".X c #B2B3AC",
"XX c #B4B6AA",
"oX c #A2AEB3",
"OX c #AAAEB2",
"+X c #A4B1B5",
"@X c #ABB3B5",
"#X c #A4B4BB",
"$X c #ABB5BB",
"%X c #ABB9BD",
"&X c #ABB9B5",
"*X c #B4B6B2",
"=X c #B5B9B3",
"-X c #B9BBB5",
";X c #BDBDBA",
":X c #B1B9BC",
">X c #BEC2BB",
",X c #C2C3BE",
"<X c #ABBBC2",
"1X c #B3BDC3",
"2X c #B9BEC2",
"3X c #9DB6C1",
"4X c #ADC1CA",
"5X c #B4C1C4",
"6X c #BAC5CA",
"7X c #BAC5CA",
"8X c #B7CAD2",
"9X c #BED1D5",
"0X c #BED7E3",
"qX c #C5C5C2",
"wX c #C6C9C3",
"eX c #CACBC6",
"rX c #CCCDCA",
"tX c #C4C8CA",
"yX c #CED1CC",
"uX c #D2D2CD",
"iX c #C7CED2",
"pX c #C9D3D7",
"aX c #D4D5D3",
"sX c #D5D8D6",
"dX c #D9D9D5",
"fX c #DBDBDA",
"gX c #D5D8DA",
"hX c #D1CEC8",
"jX c #CBDBE3",
"kX c #CBE1EA",
"lX c #E2E3DE",
/* pixels */
"-X;X-X*X*X=X;X;X,X>X>X>X-X.X{. XY.J.J.U.U.Y.Y.L.B.L.].].).P.L.L.P.C.B.m.6.0.v.0.6.3.4.4.3.=.*.-.6.6.6.6.6.3.6.-.W T W 7.%.W %.%.",
";X;X;X;X;X;X,XqX*X-X-X-X*X.X{.].U.Y.Y.).U.Y.J.B.Y.).).L.G.G.P.U.K.G.K.C.w.w.v.m.c.n.n.c.0.=.%.=.v.v.c.m.c.c.c.0.7.%.=.7.R T *.-.",
"qX;X;X,X;X-X-X,X;X;X-X.X{.[.T.G.Y.J.Y.].].].U.J.{.].U.B.c.n.L.T.K.G.K.G.v.c.v.m.n.K.P.P.P.G.C.K.Z.Z.C.C.C.Z.B.c.4.-.-.7.W W -.4.",
";X=X=X;X;X*X*X;X,XqX;X.X{..X{.T.U.Y.T.|.|.=X.X].{.{.T.C.v.C.K.P.U.G.B.B.n.B.n.c.C.G.C.C.G.C.n.C.G.Z.C.Z.H.G.M.v.v.w.6.-.-.-.7.*.",
"{.{.*XqXwX,X>XqX,X,X-X.X=XwXeX,X-X|.|..X.X=X*X[.U.].[.T.P.T.T.P.G.C.C.Z.G.C.n.C.K.K.v.v.C.G.C.G.H.C.H.J.K.H.C.v.C.M.w.4.4.6.7.*.",
"{.*X,XuXaXrXqXqXeXwX,X=X-X,XwXqX,X=X X].].{.{.T.Z.T. X X{. X[.T.v.n.B.G.P.Z.n.G.w.w.6.6.m.Z.H.H.H.H.H.K.K.Z.M.M.m.C.M.w.9.4.4.9.",
"-X;XeXrXrXeX,X>XuXuXeXqX,X;X-X-X>X.X].T.T.{.{.T.K.[..X[.[.[.R.J.0.-.*.4.K.K.C.G.Z.Z.C.N.J.I.I.I.H.H.K.K.H.M.v.N.9.C.M.w.9.9.4.9.",
";XqXqX,X;XqX,X,XrXrXyXuXuXwX,XqX,X=X{.].]..X=X{.R. X XR.U.R.Z.V.4.T r T C.T.C.n.v.Z.H.Z.I.T.T.T.K.K.I.I.H.v.v.N.v.H.C.w.w.9.7.*.",
";XqXrXrXwXwXeXeXuXuXuXuXrXrXeXeXqXqX.X].=X;X.X.X=XXX[.C.6.R.R.V.W %.G G B.].T.G.K.n.v.Z.K.T.R.I.T.[.T.M.m.v.Z.T.Z.K.H.M.C.v.7.8.",
";XwXrXrXrXrXrXrXrXrXrXrXrXrXrXyXeXeX;X=X,XqX=X=X;X XK.q.K.e.e.c.R  .&.G m.].T.J.U.J.J.Z.Z.R.R.T.[.[.H.N.M.M.M.C.H.I.K.H.H.v.4.6.",
"qXrXaXaXaXaXaXuXeXrXeXeXwXwXeXyXrXrX,X,XwX,X*X=X>X;X Xe.T.c.Z.Y.=.=. .u T |.].U.B.C.J.Z.Z.T..X[.[.I.C.C.I.K.H.I.T.[.I.K.C.9.-.4.",
"wXrXuXaXaXfXdXuXuXuXyXeXqXqXeXrXrXwX,X,X,X-X.X-XwX=X X0.3.].Y.=.3.| u t e ).].P.U.Y.T.U.P.T.[.K.K.J.C.G.J.Z.K..X[.T.K.H.v.*.W =.",
"rXrXrXuXaXdXdXaXdXdXaXuXeXeXeXyXeX,XwXeX,X=X*X*X].].>Xc.=.U.c.=.' ' w r r s.&X}.].J.J.G.G.K.P.G.H.G.n.v.m.0.v.[.I.C.v.C.v.*.T W ",
"uXaXaXaXdXfXfXdXuXuXuXrXrXrXrXrXeXwXeXeX;X X].Y.U.Y.@X0.3. .r G l v v 0 l v (.OX}.Y.L.C.n.K.P.J.K.H.v.m.w.w.v.T.[.J.n.G.G.6.W W ",
"uXaXfXfXfXfXdXaXrXeXeXrXuXuXyXeXeXqXwX>X{.].U.B.B.s.>.3.F.J.>.=.l h l 8 w 8 | :.F.].{.G.w.B.J.v.Z.K.Z.n.n.n.G.T. XT.G.P.U.w.%.R ",
"tXyXaXgXaXaXuXeXuXrXrXuXdXdXuXrXwX;X-X|.U.].|.U.0.Y.5.b.R b.F.>.] P c K J E l 0 w &.b.6.%.0.n.4.c.J.P.C.v.c.B.Y.].J.B.G.J.0.W T ",
"iXiXaXgXaXtXrXsXrXaXhXuXuXuXuX,XeX|.].].&XaXyX].b.3.=.%.m.B.B.&.| B I c K K l J Y G t y F b r F v.P.J.B.Y.G.b.).5.%.R =.F.v.%.%.",
"pXpXgXaXiXtXrXyXaXrXeXdXhX,XhXuX>XU.Y.=XeXyX>X}.5.%.%.%.s.n.G.5.K Z E Z c e 0 Z  .v ' >.>.Y F . r 3.B.J.J.0.q.>.%.F ] 3.&.5.m.=.",
"pXgXgXaXaXgXaXuXeXeXrXaXrXeXwX[.>.b.Y.J.0.3.5.s.3.=.3.s.L.].OX).2.} I Z w % l J U I &.5.b.U t e X T =.T r e &.=.] r T &.T >.B.s.",
"tXpXgXfXfXfXsXuXuXeXqXeXaXlXdXU.s.F.F.s.q.s.q.3.=.>.5.s.b.L.L.b.2.B 3 8 8 - I I J Y ] v F G U r e Y T r e ] B.2.R r 5 r T %.&.s.",
"tXtXrXsXgXaXuXuXsXrXtXdXaX;X].0.Y.g.:.| >.:.R U r J ] >.f.(.$XoXS.} z v f < ' J J Y I b v e r U ] ] %.G Y L.Y.2.G b   X G %.Y s.",
"rXtXtXaXsXaXaXsXrXsXaXtXOXs.>. .5.2.:.R J v b l H I ] ;.>.L./.Q.;.J z x < < <.2.H v 5 8 | e   D <.&.0.] Y q.] G e r y X r &.=.5.",
"uXrXrXrXfXfXaXtX7XrXOXb.s.<.i.b.I J J J v J J l w w l I ' i.g.g.f.' I v * 6 2.:.w | F.| w l :.:.s.&.>.>.=.] r % % - ; . u ] &.5.",
"aXaXrXrXaXfX7X).@X).<.<.b.&.I { 2.v v ' J l l v s 0 f [ O.y.i.f.h.H x w % 8 ' l v I | J l v { ' Y G D U b - - e e w e u &.>. .b.",
"fXaXrXwXlXtX:X7X).>.s.>.D x l J l J K z J v 8 B z l c K ! [ } O.P L 0 o = l J J { w 5 - l b H b r ; b . * w J I ) E ' J >.h.h.b.",
"fXaXfXaXaX7X2X@XD.| b.A.| &.[ L { ) M l B M h B B M M J K M m m z 0 * % % = 0 I ' l e % % - % 8   r :.-   % l v J l E :.f.s.f.5.",
"rXrXgXrXrX2X2X2XA.^ Q.1Xg.{ | ;.{ J s l J J K B z v c z z z s 9 6 < = - 0 w w l = ^ v x ^ | <.<.5 5 J l b - 5 v I I w l b.b.h.f.",
"tXaXaX2XtX}.!.@X;.L F.6XoXh.! x J v s J ' | | c 8 q s q s h s 9 - = % = 8 0 0 w I I D.s.Y { >.{ 5 - w 5 f 5 % 8 l l . 0 L.f.] >.",
"2X7XtX@XOXD.D.A./ b.+X+X(.).h.| ' ' I :.f.F.h.w < 8 8 3 3 q q 3 q , & , = $ w { F.g.L { D.{ &.U 0 * . X + % . % 6 + 6 ' A.' L ;.",
"OXOXtXOXb.b.L.&.1.1XpX@X/.Q.E.(.f.h.1.g.).(.h.8 - - < - - < < = < < , 2 w z P :.x U { U L L >.i.&.L 0 ; % . + * % z >.;./ x H <.",
"2X2XtXOXD.g.b.<.Q.@X:X7X6X+XL.F.).L.).L.).D.] 8 - * = - - = & & $ 9 q 9 M [ P f H f.>.;.H / i./ L <.<.H + . * .   L Q.>.Y H g ] ",
"$XiX1X(.6XQ.F.iX1X5X1X5X5X1X:X(.+X+X5XoXS.:.s - - = = < < = & & h B K P ) P l < S.I ^ ).H A.:X{ .   5 H b * % % - o h.s.L D x L ",
"@X5X(.(.D.k.#XQ.#X1X1X5X5X@X).(.E.^.^.d.M q q < 9 , 8 s j 2 C o.#.k.@.K :.s < :.| L ;.i.g.A.i.* ; w +   8 8 % w <   % g.>.l D H ",
"%X6X1XS.K y.Q.#X#X7X6X5X:XOXY.Y.~.u.N 3 2 9 8 < 8 s V V d A r.$.O.a.' [ ,.z z i.O.k.L . % * 6 * 6 w l w - % - q B w - :.:.w x L ",
"+X9XpX@.l O.K A.6X1XoXoX@XoXY.L.,._ m j m K ' ,.! 9 s _ N $.p.p.z.h.B B v - J 1.^ Q.x X - * + 0 0 w l v f 0 q w [ ) f J ^ 0 D Y ",
"#X9X%X3 P [ 9 E.8X+X~.oX@XD.2.:.} M z P 1.E./.~.' c c z s o.#.+.,.! h h q % [ ' ,.A.f - 0 0 6 6 l H l l K l = 0 I | P z v l ] ^ ",
"%X9X'.K y.} h ^.#XE.z.E.^.k.@.| s 8 ! D.%XiX@X:.8 ) S.k.,.z 2 2 P z w = < = 1.K [ ;.9 < * - 6 - + x L M l - 3 P B P ) J l z <.;.",
"%X9X<X#Xk.y.} ^.`.W.d.l.~.W.,.K a J S.<X%X5X%Xg.A.^.`.S.,.= < P P z s o $ - ,.B f J 8 6 x x 8 w 0 % < s h J P c M h B K f f ;.>.",
"<X4X#XpXS.'.'.4X`.W.W._.`.l.C , z ;.oXiXiX%X).f.5XiXS.| J h Q B 9 q s 4 2 z O.M P f f K <.L 6 g 9 0 x z < w K B M c z M l v ! ^ ",
"4X6X4XpX6XkX8X'.`.x.z.W.j.C k Q ' D.1X6X7X).g.E.%X^.K K s q P s h j q q = M [ ! [ = ^ /.+X^ * f 0 z s 9 s v M K v ) M z v ' J z ",
"#X^.#XkXjXu.`.'.l.t.l.u.k C A ~ K f.jX+Xh.D.S./.D.) v 3 l P ' K B M q = 4 h K } [ K O.#XD.f 9 9 f f 0 9 K [ B c P Q c c ! { H s ",
"W.S.`.9X'.V z.'.p.p.+.k i A A r.a.5X6Xd.9 ' i.a.z M q < ! [ ! @.P s s M c m Q [ [ K P f.,.6 9 z z l < m O.) P B B c K ! Q [ ! 9 ",
"z.l.'.0X^.m #.z.a.u.Q 2 2 N A W.pX6XS.[ E.^.c ) s z q K O.:.| K ) ) ! _ [ [ ,.z.} y.K z x f z s z c < P t.! ) P Q K B K K Q J a ",
"z.l.<XkX<Xt.#._ _ m j 2 O 2 ~ '.8X,.,.k.pXW.m a s s s d.d.f.D.| @._ #.! 9 ! E.W.Q W.y.9 < s x M s M s ! ,.} [ Q } O.M m O.K 9 f ",
"l.l.3XkX8X'.p.j c 4 q 4 4 p Q ^.9X4Xy.,.W.Q _ k 4 M M S.E.S.(.E.,.t.Q 4 s #.W.W.m ,.K < 6 < < a w c K O.y.O.K Q ! } Q [ y.K = w ",
"W.z.'.jX4X4Xd.j c c s 2 ! C 2 V ^.`.) N C C N 2 Q o._ S.E.F./.g.k.P k j K z.'.z.8 c s * < 6 * * 0 9 K O.y.) j K M m ) #.! s 8 0 ",
"W.u.~.0X'.'.t.B B z a = V a X O = B C Q r.$.: _ j.d.o.y.E./.(.1.} N 2 4 ! ,.y.d.< m Q s + = 9 s 9 s z ! @.V h m B m Q Q s q s 9 ",
"l.~ j.0X3X'.@.P _ 9 q , 2 & < N m $ Q u.n a ..p.z.8Xa.K (.oXA.k.B c a 4 < q M [ Q 9 8 8 & @ & & w K s M ) B K c P } Q j z m s 9 ",
"j.` x.0X_.x.o.~ C a a , q $ = k k : r.d : ~ r.`.<XpX/.O.{ @X@Xf.c z 3 4 < , s s < 2 > @ & 2 < = 9 z M z z Q [ P O.[ P j z 4 4 4 ",
"_.j.x._.j.X...u._ j 4 # 3 & = k : i n N $.u.W.#X8X#X7X(.[ k.@Xd.B s , a a $ $ o $ $ = 2 9 4 2 , j z c B M c V } O.,.@.m z 4 3 3 ",
"x.W._.x.u.A _ u._ m d 4 s 4 , a : : n r.j.p.#X`.6X%XtX5Xk.{ <.f.k._ s j s , , = 1 , , 9 9 2 2 9 z z h c M s j _ ,.d.#.c c a < = ",
"_.'._.x...n ~ +.C j a 4 a q < a i O X.j.d.W.#X+X1XpX%XF.1X/.i.O.y._ M c z M M 9 d p 9 9 4 2 1 q q z a 4 s s a M a.a.! h M c 3 = ",
"z.l.j.`.$.A _ +._ N q < q c a s 4 i r.p.`.8X<XiX<X+X@X$XpX7X@XQ.y.Q N k q j z 4 9 p p 9 9 q 9 8 < z s < 9 q 9 z ,.} c z K K 9 8 ",
"..C $.8X_.a.o.#.u.o.c a j V 9 2 2 C l.W.<X4X6X7X+XQ.$XpXiX1X6XpX#Xy.o.Q d a d d d j p > = 1 p 9 , a s a 9 , 3 m P K c K K M s s ",
"t.` o.W.W.p._ +.t.#.! c s c < & N r.~.<X<X(.6XoX+X7X$X/.@XiX7X^.'.j.l.l.+.} ~ V _ V p # O & 1 p 3 3 q h 9 = 2 j j j c Q c m d a ",
"r.+...Q u.p._ _ #.a.#.K q m z K @.W.`.'.jX6XoXoX6XtX1X1X/./.).`.`.l.z.p...#.+.C o.V p 2 = & 2 q 9 , < q q 4 2 , a a d M 9 z d < ",
"o.) _ a.a.Q V y._ } O.! B m K ,.,.z.W.^.6X6XoX/.OX6X6X%X$X$X(.E.W.x.x.u.....~ Q A V d & & 2 > > q 3 = = $ $ 8 9 8 a a 9 s a 7 < ",
"P _ @.t.t.} ! _ ! P P M M K K } S.~.E.^.<X6X%XOX/.+X@X$X1X<XQ.z.W.x.W.u.........( Q d > & > > , q 2 = = & $ < , , 2 , < a 0 < < ",
"@.,.,.O.[ [ Q m z z z a z K K ) S.S.S.^.#X5X1X@X1X1X%X#XoX^.E.^.x.j.j.r.X.X.+.#.Q N p > > O O @ p q 2 2 & @ = O & o O + 7 < @ + ",
"y.} ) ! B c z 9 a z m h c P ) @.a.y.d.E./.+X1X7X@X1X<X`.E.z.l.l.x.r.X.X.+.$.X.+.~ V a 1 2 > O > 4 q 4 4 > @ > O * o   o * @ O o ",
"P l l M z w 9 - < w z s l K ! @.#.! _ ,.d.k.Q.#X8X6X`.W.W.E.W.l.x.r.r.X.X.+.( S ..A p > > > > 2 & 2 q a 2 $ 1 1 < & o + * + O + ",
"z s s s s h s 8 = < 9 3 s M M ! O.! Q O.y.1.y.k.oX^.d.o.#.j.z.l.j.j.u.` S ( S d k d 1 2 1 1 > > $ 2 a z 4 O 2 q * & o o @ o O @ ",
"l z s 0 w w q 8 3 3 0 9 h c c Q O.y.y.y.d.d.y.y.d.k.y.t.u.u.t.r.X.X.X.S k n d 2 2 i i i d d 7 & $ , a M p O & 1 + & o O o o o @ ",
"< 0 0 w h 3 o % = = 8 3 8 9 q V P d.k.,.,.y.y.d.a.,.} o.u.r.~ N S i i i i i : 2 i p 2 O > 1 * @ O O 4 N s O = 9 & = o O + @ @ @ "
};
