/* XPM */
static char *ba4379a3c247476bd8dc366bd13ddf59tb0cfOMX96w2fIaQ[] = {
/* columns rows colors chars-per-pixel */
"64 64 214 2 ",
"   c #030301",
".  c #0A0602",
"X  c #060803",
"o  c #0B0A04",
"O  c #0A0709",
"+  c #050A09",
"@  c #0C0D0A",
"#  c #050608",
"$  c #130501",
"%  c #1A0201",
"&  c #120B04",
"*  c #130D0A",
"=  c #1C0C0A",
"-  c #1A0806",
";  c #0E110D",
":  c #07100F",
">  c #151206",
",  c #1B1205",
"<  c #12130D",
"1  c #1A130A",
"2  c #1D1B0F",
"3  c #0E0F11",
"4  c #110F10",
"5  c #0E1313",
"6  c #0F171A",
"7  c #0F1D18",
"8  c #131512",
"9  c #1A1511",
"0  c #151915",
"q  c #1A1A15",
"w  c #121619",
"e  c #151A1A",
"r  c #1A1D1A",
"t  c #270D09",
"y  c #360907",
"u  c #241A0D",
"i  c #29160B",
"p  c #36140D",
"a  c #260B10",
"s  c #231413",
"d  c #2C1411",
"f  c #251C13",
"g  c #2C1D14",
"h  c #221E1A",
"j  c #281D19",
"k  c #361916",
"l  c #3E1917",
"z  c #3E1D1C",
"x  c #371615",
"c  c #1D221D",
"v  c #252215",
"b  c #26221C",
"n  c #2A231C",
"m  c #2F2816",
"M  c #342315",
"N  c #32251D",
"B  c #3C211E",
"V  c #372D1E",
"C  c #1A1D23",
"Z  c #171F22",
"A  c #1E2422",
"S  c #1E2129",
"D  c #1C2828",
"F  c #232623",
"G  c #242A24",
"H  c #282B25",
"J  c #262C2B",
"K  c #2A2D2B",
"L  c #252527",
"P  c #342B24",
"I  c #392C26",
"U  c #332D2B",
"Y  c #382723",
"T  c #2C322E",
"R  c #263028",
"E  c #39322B",
"W  c #292F34",
"Q  c #312F30",
"!  c #243234",
"~  c #2B3434",
"^  c #2E3A3B",
"/  c #333432",
"(  c #363936",
")  c #343C39",
"_  c #3C3D3E",
"`  c #3C3733",
"'  c #431204",
"]  c #511308",
"[  c #550F11",
"{  c #411716",
"}  c #4D331C",
"|  c #561D23",
" . c #6D1720",
".. c #452926",
"X. c #462826",
"o. c #463729",
"O. c #543C2D",
"+. c #523A25",
"@. c #503533",
"#. c #72222B",
"$. c #682828",
"%. c #720E16",
"&. c #34403D",
"*. c #3A443D",
"=. c #564639",
"-. c #464239",
";. c #624738",
":. c #684F3D",
">. c #624535",
",. c #724F3B",
"<. c #735B37",
"1. c #3A3E42",
"2. c #373E46",
"3. c #394543",
"4. c #434644",
"5. c #434C4A",
"6. c #424946",
"7. c #525043",
"8. c #435254",
"9. c #4A5C5B",
"0. c #4A5656",
"q. c #555A56",
"w. c #70594C",
"e. c #5C645F",
"r. c #566058",
"t. c #60655E",
"y. c #796758",
"u. c #4C5B60",
"i. c #4C6364",
"p. c #566564",
"a. c #576A6A",
"s. c #5B6D6B",
"d. c #5C6664",
"f. c #5D6F71",
"g. c #597476",
"h. c #636865",
"j. c #656B6A",
"k. c #716D62",
"l. c #6A746F",
"z. c #6A7265",
"x. c #686D71",
"c. c #637373",
"v. c #6E7676",
"b. c #677979",
"n. c #777776",
"m. c #707869",
"M. c #815C4A",
"N. c #8C6554",
"B. c #857668",
"V. c #917E6D",
"C. c #917F73",
"Z. c #A37B69",
"A. c #73827A",
"S. c #898A78",
"D. c #A88E6D",
"F. c #B08E78",
"G. c #C3A174",
"H. c #657F80",
"J. c #6A8789",
"K. c #798A89",
"L. c #768F92",
"P. c #778C98",
"I. c #74979B",
"U. c #868986",
"Y. c #80908D",
"T. c #879794",
"R. c #91A09B",
"E. c #B4A399",
"W. c #85A7A9",
"Q. c #99A9A9",
"!. c #92A6AC",
"~. c #9EB1AF",
"^. c #81AAB0",
"/. c #99B8B8",
"(. c #8BB5B3",
"). c #A8B3B2",
"_. c #C69C85",
"`. c #C5A28E",
"'. c #C9B3A5",
"]. c #D4C8B2",
"[. c #E1CEAE",
"{. c #EDD6AC",
"}. c #A4BDC1",
"|. c #A9C6C5",
" X c #B4C7CA",
".X c #BBCCD1",
"XX c #BCDAD7",
"oX c #B7D7DB",
"OX c #B6D4CC",
"+X c #B8E0E0",
"@X c #C5D7DD",
"#X c #C1DBDB",
"$X c #CCD9DB",
"%X c #C4C5C7",
"&X c #C7E1DE",
"*X c #FFFEDA",
"=X c #ECE2C7",
"-X c #D5DCE2",
";X c #C6E6E7",
":X c #CEECEC",
">X c #DBECEF",
",X c #D5E5EA",
"<X c #D1F1EE",
"1X c #D3EDF1",
"2X c #DEEDF2",
"3X c #CDF1F1",
"4X c #D5F4F6",
"5X c #DCF1F4",
"6X c #E3ECF3",
"7X c #ECFCFF",
"8X c #E8F5FA",
"9X c #F4FEFE",
"0X c #F9FFFF",
"qX c #FCFEFF",
/* pixels */
"                                                                    +   .                                                       ",
"                                                          +   % { z s 8                                                         ",
"                                                  O .   .   o #.[ y %   @                                                       ",
"                                                    . #     X.%.y t . . .                                                       ",
"                                                    + + + - $.] p % .     8 O                                                   ",
"                                                .         k  .' y % . + ~ _ L @ X                                               ",
"                                                O   c 6.3.@.| p x j K v.l.) F F 8 X                                             ",
"                                              X   Y.$XOX|.R.A.m.z.6.K.l.c 0 8 7 r O                                             ",
"                                  X       O   1.Q.&XXXXXQ.b.s.h.*.r.j.e A 4.T 0 e 5     X                                       ",
"                                    +   o   v.0X>X#X<X~.9.b.c.h.e.q.G 5.e.T 0 0 w w X                                           ",
"                                X     o   _ 0X>X.X:X;Xs.c.~.p.0.d.*.) 6.c 0 < ; 5 e @                                           ",
"                                      o   ).7X#X@X4X Xu.f.c.5.3.&.A w 8 0 0 ; c 5 w 5 X                                         ",
"                                    X   Q 8X9X|.,X3XW.8.a.^ W D T r e 0 8 8 8 o 5 5 5 O                                         ",
"                                  X @   v.0X>X.X7X+XL.2.9.0.x.p.0.K c 0 < 0 ; 0 5 5 5 @                                         ",
"                                o   O + %X0X,X@X9X/.g.~ a.3.4.! c 8 ; 8 8 8 8 5 5 5 w 3 X                                       ",
"                                  o   / 9X0X.X@X8X(.i.L b.7 1.8.3.r 8 8 < < e 5 6 5 e 5                                         ",
"                                  .   q.qX7X|.-X1X^.4.! J.~ P.J.( 0 0 5 ; 8 @ 0 8 w 6 e       X                                 ",
"                                  O   n.qX8X|.6XoX^.K ^ J.~ P.i.c ; 5 8 < 8 ; < 8 w w C +                                       ",
"                                  o   U.qX5X/.6XoXI.e 8.H.J b.3.0 5 8 0 < 8 0 8 8 w 6 e +                                       ",
"                                X @   U.0X1X}.8XoXg.r p.9.S 8.~ e 0 0 8 @ 8 0 8 e w 6 w X                                       ",
"                                  +   n.0X1X/.8XoX9.J s.~ L ^ T 8 8 r 8 ; 0 8 < e w 6 w +                                       ",
"                              X   X   h.7X4X!.2X|.&.~ d.D S R K 0 e r 8 8 r 8 8 e w w e @                                       ",
"                              X o +   _ 5X4X!.>X/.~ 2.0.F C G K r A 0 ; 8 8 @ 8 8 5 w e ;                                       ",
"                              X   X   8 #X;X!.,XW./ 0.&.r S G F r G 0 8 r 8 ; 8 w 5 6 w @                                       ",
"                              X X . .   K.oXL.,XT.&.0.T G c A F K G 8 0 q 8 @ 8 ; 5 w 8 o                                       ",
"                              X   . *   !  XK. XK.) q.F F G e K ( F 8 e e 8 < 8 @ 5 w 8 o                                       ",
"                            X X o   . @   d.Q.|.A.5.q.K J r 5 / ( r 0 c q 8 8 < @ 5 8 ; X                                       ",
"                            X X O   X o o 4 j.).U.e.q.( F F K _ J 0 F c 8 < 8 ; @ 5 8 @ X                                       ",
"                              o . . X   & . < l.S.7.-./ K J K ( c c K r 8 8 8 @ ; 8 5 O X                                       ",
"                            X o o . . & . o   k.=X].B.f r H T K A J G 0 8 8 < @ 5 8 3 o X X                                     ",
"                            X o o . & . @ >   S.*X[.y.M 1 < 0 c c F c e 8 8 8 @ ; 8 @ X   X                                     ",
"                            X o X . &   + o $ :.{.<.} o.. < o ; e e 0 c 8 ; 8 < @ 8 @     X                                     ",
"                          X o o X X o . . o & o.G.+.=.I 1 o < @   X 8 8 < 8 @ @ @ @ o . o .                                     ",
"                          X X o . . o o & o   g D.+.o.f u 1 & o     @ o o @ @ @ @ o o . o o X                                   ",
"                          X X o o X . . o & $ o.V.o.E.o., v > & + X o       X o o X . . X o .                                   ",
"                          X X o . . o o o o . @.y.=.'.O.=.m & & X X o X     . X o . . . X X                                     ",
"                            . o . . o o * o   =.;.>.`.F.y.u > o   X o o     o & . o o X X X .                                   ",
"                            . o o o . . X & $ w.+.,._.F.:.u X @ X o o o     o & $ o o X X . . .                                 ",
"                            . o . o o o . . . y.g w._.Z.O., > o X o o o .   & o . . X X . X . .                                 ",
"                            . o o X . o o & & y.N O.Z.N.X., o o . o o & o X & o . . X . X X X X                                 ",
"                          X o o . . . . & . u B.o.i N.M.M , ;     X o o X       o o o o X . . .                                 ",
"                          X X X X o . . o o u y.1 t ;.;.g > o     o & & X       . . X X X . . .                                 ",
"                          X X X   o . . & $ $ g r $ V =.n > o     o & o o           X X X . . .                                 ",
"                          X X X X X . . & > & $ ` 1 $ v v o       o & o .             X X . . .                                 ",
"                            . . X o . . . o 1 $ =.o., >           o & o                   . . .                                 ",
"                            . . X . & $ o . $   o.B.V 2 X         o o .                     . .                                 ",
"                          X . . o   o . o o & & N =.P b           o o .                 X X                                     ",
"                          X . .   . & . o X o * U h H <     X     o & .               X . o .                                   ",
"                          X X X . o X . . & o F ! h = @         X & X     X               X                                     ",
"                          X X X o X X X o . 1 b S * .           . & o                     X                                     ",
"                          X X X o   X o . & q 9 Z O .           & X                                                             ",
"                          X X X o o   o   f 9 < C + X           <           X                                                   ",
"                            X X . o     & F < > 8             o o     .     o @ @ o X       X +                                 ",
"                          X X X . o o   h b < @ o     . s o X o . .       * 8 < 8 @ o       X +                                 ",
"                            X X . o X * U q < o X +   a B &   O   .     < r r q 0 < o       + + X                               ",
"                            X X . o   h / 9 < o o     a X.%   o .     @ r r c F c 8 o X X X + + X                               ",
"                          X X X X   * U b 9 < o o     = ..i     +   . f 1 U b H @ q < X o X o @ @ #                             ",
"                            X X X   9 U b < 8 > X     = ..x $   o   * h P E b q o 8 @ X o     o @ #                             ",
"                                  o b U b < < 8 O     = X.z t $   o b P I n h r o @ o   o   X O @ + X                           ",
"                                  o U P b < < q 8     & Y { d = * s j I P b q q @ @     X   X O + @ +                           ",
"                        X X       < E P n 9 < r 8     $ B l x d 9 j j I P b 9 < < @   X X     X + @ +                           ",
"                        X X X X   < U n n 9 < c 8     - z l x d j P I Y n 1 < < o o o o o X X   + + +                           ",
"                        X X X X   < n g v 0 0 F 0     s l l d d I I Y f f 1 < ; o o o @ @ o o X X + X                           ",
"                      X X X X X   < j f v 0 q K c O   k l { d j Y N N f f 2 9 < o o o o o X o   X                               "
};
