/* XPM */
static char *f1ff87c24a104adfb7f6faae50ad720dZGMBG36FmKptqzm3[] = {
/* columns rows colors chars-per-pixel */
"64 64 192 2 ",
"   c #6A8977",
".  c #6D8D7B",
"X  c #6F907D",
"o  c #70917F",
"O  c #BDA73F",
"+  c #C59A39",
"@  c #CA9E3E",
"#  c #C9A43E",
"$  c #D4A43D",
"%  c #DAA73C",
"&  c #D4AC3F",
"*  c #DEAA3C",
"=  c #E2AD3D",
"-  c #E5B13F",
";  c #E9B33F",
":  c #9E8D4B",
">  c #A99248",
",  c #B79A48",
"<  c #A89755",
"1  c #B19D53",
"2  c #BDAD42",
"3  c #87926C",
"4  c #8F9B7B",
"5  c #959B74",
"6  c #BA9F66",
"7  c #A49C78",
"8  c #8FA07D",
"9  c #9EA07B",
"0  c #BBA168",
"q  c #BCA470",
"w  c #BCA77D",
"e  c #C49D45",
"r  c #CDA342",
"t  c #C7A845",
"y  c #CBA34C",
"u  c #D2A541",
"i  c #D5AB42",
"p  c #DBAC43",
"a  c #D1A74B",
"s  c #D4AB4C",
"d  c #DAAE4B",
"f  c #C6B145",
"g  c #CDB343",
"h  c #CDBB47",
"j  c #CEBB49",
"k  c #D5B645",
"l  c #DDB343",
"z  c #D4BA46",
"x  c #DABC47",
"c  c #DCB14E",
"v  c #DABB4B",
"b  c #C4A353",
"n  c #C4A55E",
"m  c #CDAA5C",
"M  c #D2AD57",
"N  c #D3BA50",
"B  c #E1AF41",
"V  c #E4B342",
"C  c #EAB642",
"Z  c #E4BA46",
"A  c #EEB944",
"S  c #E1B34A",
"D  c #F1BC45",
"F  c #C2A462",
"G  c #CDAC64",
"H  c #C6AB6D",
"J  c #D1AF60",
"K  c #CDB06F",
"L  c #D3B268",
"P  c #C4AA73",
"I  c #C3AB74",
"U  c #C4AF7F",
"Y  c #CBB27A",
"T  c #D7C047",
"R  c #D5C44A",
"E  c #DAC34A",
"W  c #D6CA4C",
"Q  c #DBCC4D",
"!  c #DFD24F",
"~  c #DFD250",
"^  c #E0C74B",
"/  c #E1D34F",
"(  c #E5D751",
")  c #E9DC52",
"_  c #EDE154",
"`  c #739482",
"'  c #7B9585",
"]  c #769986",
"[  c #799987",
"{  c #7D9788",
"}  c #7B9C8A",
"|  c #7EA18E",
" . c #7FA490",
".. c #839686",
"X. c #839A84",
"o. c #839C8B",
"O. c #8B9C8C",
"+. c #939D8C",
"@. c #9B9F8E",
"#. c #87A185",
"$. c #82A18E",
"%. c #89A08E",
"&. c #93A18F",
"*. c #9AA18F",
"=. c #83A592",
"-. c #8BA593",
";. c #85A996",
":. c #8AA996",
">. c #87AC98",
",. c #8AAD99",
"<. c #94A593",
"1. c #9BA593",
"2. c #92AA97",
"3. c #9BA996",
"4. c #93AD9A",
"5. c #9BAC9A",
"6. c #96B09D",
"7. c #9BB19E",
"8. c #B8A780",
"9. c #BEAE8C",
"0. c #A3A593",
"q. c #ABA695",
"w. c #A3A996",
"e. c #AAA996",
"r. c #A3AC9A",
"t. c #ABAC9A",
"y. c #B1A795",
"u. c #B3A997",
"i. c #B5AC99",
"p. c #B9AE9C",
"a. c #A3B19E",
"s. c #ABB19E",
"d. c #B5B29E",
"f. c #BCB19E",
"g. c #BFB89D",
"h. c #9FB4A0",
"j. c #A3B5A1",
"k. c #ABB6A2",
"l. c #A7B8A5",
"z. c #ACB9A4",
"x. c #B4B5A2",
"c. c #BDB4A1",
"v. c #B3B9A5",
"b. c #BBBAA6",
"n. c #B5BDA9",
"m. c #BBBDA9",
"M. c #C2AD80",
"N. c #C5B083",
"B. c #CCB686",
"V. c #C3B18D",
"C. c #CBB78C",
"Z. c #D0B886",
"A. c #C4B594",
"S. c #CCBA94",
"D. c #C2B59A",
"F. c #C7B99A",
"G. c #CBBC9C",
"H. c #D0BF9D",
"J. c #C1B6A2",
"K. c #C3B8A5",
"L. c #C5B9A5",
"P. c #C6BBA6",
"I. c #CABDA5",
"U. c #C5BDA9",
"Y. c #C7BCA9",
"T. c #C9BEA9",
"R. c #C9BEAA",
"E. c #BEC1AC",
"W. c #D3C29F",
"Q. c #CEC0A6",
"!. c #C4C1AC",
"~. c #CBC0AB",
"^. c #CDC2AD",
"/. c #D0C2A5",
"(. c #D1C5AE",
"). c #CEC5B0",
"_. c #CFC8B3",
"`. c #D2C6B1",
"'. c #D4C9B3",
"]. c #D5CAB5",
"[. c #D7CCB6",
"{. c #D9CEB7",
"}. c #D7CEB8",
"|. c #D9CDB8",
" X c #DBCFB8",
".X c #DBD0B9",
"XX c #DCD1BA",
"oX c #DDD1BB",
"OX c #DDD2BB",
"+X c #E1D4BE",
"@X c #E3D6C0",
"#X c #E5D8C2",
/* pixels */
"` ' @.q...' ' [ { 0.p.@.0.e.f.u.K.K.K.J.J.J.K.L.L.~.~.`.`.~.~.~.~.`.`.`.^.<.&.1.*.0.J.J.J.c.w.%.[ { { [ [ [ [ [ [ ' ' ' +.' ` ` ",
"` ` ' O...' { [ { e.f.e.w.f.J.J.L.L.L.L.~.~.~.~.`.`.`.'.[.].`.`.`.`.^.(.].^.b.~.T.~.T.T.L.L.L.x.e.i.i.w.} [ [ [ [ ' ' ' ..' ` ` ",
"` ' ` ` ' ' +.1.O.<.f.f.w.c.c.L.L.L.L.T.~.].].].[.].'.'.[.].'.'.'.'.(.(.|.|.].`.`.].`.^.~.T.T.Y.L.K.J.J.w.1.3.&.1.+.0.w.+...' ` ",
"' ....+.O.*.1.f.c.t.e.J.w.w.i.K.L.L.T.~.~.`.].[.|.{.].'.'.'.'.'.'.].'.(.].|.|.].'.].].`.~.T.T.T.L.K.J.J.K.K.L.L.K.e.f.K.c.f.e.+.",
"' +.u.u.i.f.f.c.J.L.J.J.t.5.K.K.L.L.T.T.~.'.].|.|..X[.[.{.{.{.{.{.{.[.'.'.{.|.{.'.'.].].`.~.~.~.T.L.K.L.Y.L.L.L.L.L.K.J.c.c.f.c.",
"+.q.i.i.p.p.f.f.J.K.J.J.w.s.L.L.L.L.T.T.~.`.].{..XXX.X.XXXXX.X|.|.{.[.'.`.'.|.XX|.{.|.|.].].`.(.~.L.L.T.T.Y.L.L.L.L.K.c.f.p.p.p.",
"y.u.i.i.i.p.f.c.L.J.f.J.f.J.L.L.L.T.T.~.~.^.].{.|.XXXX.XXXXXXXXX|.{.].'.'.`.[.XXXXXXXXXX|.].`.'.'.`.L.T.T.Y.Y.Y.Y.Y.K.c.p.u.u.y.",
"y.u.i.p.p.p.f.L.J.c.c.J.L.L.L.L.T.T.T.~.~.^.[.{.{.|..X|.|.XX|.|.|.{.].'.'.`.`.{..XXXXXXXXX|.[.].'.'.~.T.T.Y.T.T.T.Y.K.c.i.u.u.u.",
"y.u.i.p.p.f.f.K.J.J.J.J.L.Y.T.T.T.T.~.~.^.^.'.{.{.{.{.{.|.|.{.{.{.{.[.'.'.`.`.`.'.'.'.].[.|.|.{.].].'.`.~.T.T.~.T.Y.K.c.p.i.p.i.",
"u.u.i.i.p.f.f.K.J.J.J.K.L.Y.T.T.~.~.^.(.`.`.`.].|..X|.|.|.|.{.{.{.{.{.'.'.].[.].'.'.'.`.`.'.{.[.|.|.].`.~.T.T.~.T.L.J.f.u.p.c.f.",
"y.u.i.i.p.f.c.K.L.J.L.L.L.Y.T.T.~.~.^.(.`.`.'.'.].|.XXXX|.{.{.{.{.|.{.[.].{.{.{.{.[.'.'.'.'.|.[.].].].].`.~.~.~.T.c.d.p.0.p.c.c.",
"u.u.i.p.f.f.c.L.T.L.L.L.L.L.T.T.~.~.^.(.`.`.'.`.'.{.{.|.|.|.{.{.{.|.|.{.{.{.{.{.{.{.{.{.{.].[.|.[.].'.`.`.`.`.).Y.3.O.e.O.i.p.p.",
"u.i.i.p.f.c.J.K.T.L.L.L.L.T.T.~.~.^.(.(.(.`.`.`.'.{.|.|.|.{.{.|.|.|.|.{.|.|.{.{.|.XXXX{.{.{.].|.{.[.`.`.~.~.~.T.K.-.} o.O.i.q.1.",
"u.i.p.f.f.J.J.K.T.T.L.L.T.T.~.~.(.(.(.(.(.`.`.`.`.'.|.|.|.{.{.XXXX|.|.|.XXXX|.|.XXXX|..X|.[.{.{.|.|.`.Y.x.x.t.r.d.1.} } <.i.O.' ",
"i.i.p.f.f.J.K.L.T.T.Y.T.T.T.~.~.(.'.`.`.(.(.(.`.`.'.'.{.{.[.{.XX.X|.|.XXXXXXXXXXXXXXXXXXXX.XXX|.|.|.].a.=.=.=.=.-.$.} } <.f.O.' ",
"u.i.p.f.c.J.L.L.T.~.T.T.T.~.~.^.(.Y.Y.`.`.(.(.`.'.'.'.'.].{.|.|..X|.XX+XXXXXXXXX+X+X@X+X+XXXXXXX{.|.'.5.=.=.=.=.$.| } } w.J.w.o.",
"u.i.p.f.c.J.K.L.T.~.~.~.~.~.^.(.~.F F w D.'.`.`.'.'.'.].[.[.|.|.XXXXXX+XXXXXXXXXXXXX+X+XXXXXXX+XXXXX^.,.;.;.=.=.=.| | o.e.K.f.0.",
"i.p.p.f.c.J.K.L.T.^.`.~.~.~.(.`.V.u % $ 0 9.9.Q.'.].[.{.{.{.|.|.XXXXXX|.[.XX|.XXXXXXXX+X+XXXXXXXXXXX!.:.;.;.=.=.$.| | } 3.L.f.u.",
"i.p.f.c.J.J.L.L.T.^.`.^.^.(.(.`.U % = = $ $ e F.].{.XX|.XXXXXXXXXX+X+X|.d.'.XXXX+XXX+X+XXXXX|.XXXX{.k.:.;.;.=.=.$.| } } %.c.c.f.",
"i.p.f.J.J.J.L.T.T.`.].`.(.(.'.~.P * * * * = u V.`.(.XXXXXXXX+XXXXXXX+XXX9 U XX@X@X+X+XXXXXXX|.XX|.].).s.2.2.:.=.| } } } } 3.J.c.",
"p.f.c.K.K.J.L.T.~.'.].`.(.`.~.w $ = * * * = = y 6 n F.F.A.|.XXXXXXXX{.g.5 s B././.G.'..X|.{.{.{..XXXXX^.Y.m.r.2.| } } } } { e.J.",
"f.f.J.c.J.K.L.~.`.`.`.(.`.].N.r = * * * = = = * i C p p s N.G..X'.F.G < 1 A C d d d m W.XX|.{.[.|.+X|.'.(.`.b.b.=.} } } } [ ..x.",
"p.f.c.f.J.K.L.T.`.`.`.`.'.|.B.= - = = * = = - C A A C C C V d V.H p r : V D D A D A C L /.I.M.I.`.{.XX'.'.~.^.v.5.} } } } } ` +.",
"p.f.f.f.J.J.L.T.~.`.'.'.'.A.I V C C - = = - C A C C C C C C C p p V V V V l V S V C A C c d p n n U |.|.].'.F.4 v.-.} [ [ [ [ ' ",
"p.f.f.f.f.J.L.T.`.'.'.'.^.n i V C A A C - V C C C C C V V l V V g & C C E Q R f f S A A D C C = = i H A.V.K.m 1 3.v.} [ ] [ [ { ",
"f.f.f.f.f.J.J.T.`.].'.'.A.a A C C A D D A C A C C V & i k h z l T l C V Q z j k S A A A D C - - = - - i @ y B i 4 v.$.[ ' ` ' [ ",
"p.f.f.f.f.J.J.T.~.'.].Y.b = A C C A D D D D D C C - O 2 2 ~ ( R T V V t T k N v A D A A D A - - V V - = * = V p 5 5.$.[ ` ` ` ` ",
"p.f.f.f.g.J.J.L.~.'.].C.% = C C C D D A A D D A A C # O # E ~ ! W k x h R l j x D D A D D C = = - V = * * = V p 8 -.2.[ ` ` ` ` ",
"p.f.f.f.D.f.<.w.~.`.].9.@ = C ; C A A a > , e C C C C V V i Q _ Q h W z Q Z V A D D D D D A - = = - = = = = V p 8 =.r.} ` ` ` o ",
"p.f.f.f.f.3.=.%.L.`.`.7 + * u * - C C < , u i C A C C D C z / ( ! / / g ! Z A A D D D D D A - = = = = - = = V p 8 =.-.} ' ' ' ` ",
"f.J.J.f.t.=.:.s.c.`.^.7 @ H A.I F p C r V A D C - V C D C g k x ( ) / R ) Z A D D D A A D A - = = = - C = = C a #.=.-.2.[ { o.o ",
"L.T.K.J.s.=.3.T.`.'.'.f.8.~.].].(.N.G p d A C - C C A A A l V V T ) ( ( ( Z D D D D A D D A - = = = C C - = ; b $.=.$.x.3.o.' . ",
"w.T.T.L.b.:.=.b.'.'.'.`.'.'.].[.XXXX'.S.S.S C A C C C A C A C C Z ) Q / x C A D D D D D A A V r e y a s p $ $ 1 | $.$.x.T.r.` . ",
"{ 0.T.~.^.5.=.<.~.'.'.`.'.].{.[.[.XX@X@XXXH , p C C C - = - C V E ) l V C A A D D D D D A A V q D.I.Q.G.V.7 3 X.} | -.s.x.<.` . ",
"} <.T.T.~.v.;.:.s.^.'.`.'.'.{.{.{.XXXX{.|.F., B - - V C C D D S Q ^ C D D A A D A D D A A C c G.`.{.XX@XXXl.=. .} } $.3.-.[ o . ",
"5.x.T.~.~.~.7.;.5.!.'.'.'.].{.{.{.XX{.{.|.|.Y p C D D D A A A A i i C A D D D A A A C A C - K ].Y.'.|.XX|.z. .| } } | <.3.' o . ",
"T.T.T.~.~.T.x.;.s.'.'.'.'.].[.XXXXXXXX+XXX|.(.I C D D D D D D D A A A A D D A A D A D A C y F.].j.b.`.{.'.7.| } } } } -.b.o.o . ",
"L.T.^.~.~.T.a.;.2.^.'.`.'.].].|.+X+XXXXXXX{.XX{.Y S A D D D D D A S m M d M V D D A D V a V.~.m.,.k.5.v.).,. .} } } | $.x.<.X . ",
"Y.T.~.~.`.`.7.;.;.b.{.'.'.[.].|.XX{.{.|.XX.X+X#XXXS.Y J M c C B m S.{.'./.(.B.d A c d Y I.~.~.j.,.,.>.a.{.n.;.| | } | $.d.3.o . ",
"T.~.^.~.`.`.k.>.;.v.XX|.[.[.{.{.|.|.|.|.XXXX|.+X@X#X@XXX{.S.P C.[.+XXXXXXXXXXXH.m Z./.(.XX`.~.!.j.7.,.4.v.'.7.=.=.| =.-.b.5.` . ",
"T.T.T.~.`.'.).z.4.b.XXXX|.{.XXXX|.|.XXXX|.XXXX+X+X@X#X#X@X+X@X@X+X+XXXXXXXXX|.XX(.{.@X+XXX'.~.`.!.^.j.,.,.).E.;.=.=.=.r.T.s.` . ",
"T.T.T.~.`.'.].].'.|.XX+XXXXXXX@X+X+XXX|.{.{.|.XXXX+X@X#X#X#X#X#X+X+X+X+X+XXX{.|.XXXX+XXX+X[.(.].'.m.,.,.>.m._.4.;.=.:.Y.T.s.` . ",
"T.Y.T.~.`.'.].{.{.XXXX+XXXXX+X+XXXXX|.{.].{.{.XX+X+X+X#X#X#X#X#X#X@X+X@X+XXXXXXXXXXX+X|.|.'.(.`.'.j.,.,.,.v.).6.:.k.b.Y.L.r.' . ",
"T.T.T.L.~.`.].|.XX+X+X+X+XXX+XXXXX|.|.{.[.{.|.|.+X@X@X#X#X#X#X#X#X@X@X#X#X+X+XXX|.XXXX|.|.'.(.(.(.v.,.,.,.7.a.:.5.^.~.b.3.o.` . ",
"~.).T.L.T.`.].{.XX+X+X+X+X+X+XXX|.|.|.{.|.|.{.|.XXXX+X+X@X@X#X#X#X#X@X+X@X@X+XXX{.|.|.XX|.'.(.(.(.~.h.,.,.>.,.:.s.x.b.r.} } ` . ",
").`.~.L.L.~.`.].{.XX+X+X+XXX+XXX{.{.|.{.|.XX{.|.XXXX+X+X@X+X+X#X#X#X@XXX+X+X+X+X{.|.XX|.{.'.`.(.(.(.b.,.,.,.,.:.b.k.-.} [ ] ` . ",
").`.).T.L.L.~.'.|.XX+X+X+XXXXX+XXX.XXX{.{.].[.{.|.XX+X+X+X@X+X@X#X+X+X+X+XXXXXXX].|.|.XX|.].'.`.(.(.^.j.,.,.,.;.a.j.| [ ` ` ` . ",
").`.~.~.L.L.L.`.{.XXXXXXXX+XXX+X#X+XXX|.].].].{.|.XX+X+X+X+X+X@X@X@X+XXXXXXXXX|.].{.{.{.{.'.`.].'.(.(.n.,.,.,.;.4.5.} ' ` ` o . ",
"~.`.).~.~.T.L.Y.[.|.XXXX|.+XXX+X#X+X|.|.].'.'.].{.{.XX+X+X+X+X+X+X+XXX|.XXXXXX|.].{.{.|.XX'.(.`.`.].'.v.,.,.,.;.;.=.[ ` ` o X . ",
"~.).`.`.`.~.x.5.).|.XXXX|.XX+X@X#X@X{.|.'.'.'.'.].{.{.|.+X+XXXXXXXXXXX{.|.|.XX|.{.{.{.|.|.'.(.'.`.].].^.6.,.,.;.;.| ] ` o X . . ",
").`.`.'.`.`.v.;.v.|.|.XX{.+X+X+X+X+X].].'.'.].].'.'.'.{.|.XXXXXX+XXX|.].{.{.|.{.{.{.XXXX|.].`.].`.'.{.'.6.,.,.;.=.} ] ` o X . . ",
").`.].].'.`.~.2.7.'.XX|.|.XXXXXX+X+X[.`.'.].|..X].`.'.'.'.[.{.|.|.{.[.'.].].[.{.{.|.+XXX|.{.'.'.`.[.|.^.4.,.>.=.=.} ' ` o . . . ",
"~.`.'.].].'.`.s.;.j.].).'.XX+X+X@X+X{.`.'.{.XXXX{.`.`.`.`.'.'.'.'.'.'.'.{.{.{.{.[.|.XX+XXX{.].].].{.|.m.,.,.;.;.=.[ ` ` X . . . ",
"T.).`.].].].].Y.2.,.7.7.m.XXXXXXXXXX{.`.'.{.|.XX[.'.`.`.`.`.(.`.(.`.'.{.{.{.{.{.{.|.XX+XXX|.].{.{.{.{.z.,.,.;.=.=.] ` ` . . . . ",
"L.~.`.].].[.].).s.,.>.7.j.b.!.^.^.^.).'.`.].|.XX{.[.`.`.`.(.(.(.(.].|.|.[.{.{.{.|.|..XXX|.{.{.{.{.|.{.j.,.;.=.=.} ] ` ` . . .   ",
"c.~.`.].[.[.].'.Y.,.,.E.7.,.4.5.4.,.j.(.`.'.XXXX|.|.{.[.].'.].'.(.(.`.|.{.[.{.{.|.|..XXX{.].{.{.{.{.).6.l.,.=.| [ ` ` o . . . . ",
"3.Y.`.].].[.].'.^.s.v.'.n.,.;.=.=.;.,.m.(.(.{.|.XXXX|.|.|.|.|.'.(.(.'.|.[.{.|.|.{.|.XX|.].].].'.].].v.,.m.:.| } ] ` ` o . . . . ",
"o.x.`.].].].].`.^.^.'.'.|.E.:.=.| =.;.7.!.(.`.|.XX.XXXXXXXXX|.'.(.(.'.|.'.{.XX|.|.{.{.|.].'.].'.'.!.4.,.m.;.} [ ' ` ` o . . . . ",
"} t.`.].].].].`.^.^.`.'.].[.7.| | | =.>.k.`.~.{.{..XXXXX{.{.{.'.`.Y.!.|.'.{.XXXXXX|.].].].'.'.`.m.6.,.,.h.=.} ] ` ` o X . . . . ",
"{ r.).`.].].].`.`.(.(.`.'.`.5.| } } | =.z.`.m.].{.XX|.{.].].[.Y.k.6.z.{.].{.XXXXXXXX{.'.!.m.Y.a.,.,.;.=.=.| [ ] ` ` o X . . . . ",
"o.<.Y.`.].].'.`.`.(.(.`.'.b.;.| } } } | ,.j.k.|.|.{.].{.{.{.].s.;.>.7.'.].{.XX|.XXXXXX^.7.6.7.,.,.;.;.| | | [ ' ` ` o X . . . . ",
"O.o.s.~.'.].].`.`.`.`.'.'.a.=.} } } } | =.>.j.XXXXXX].{.XXXX).7.;.;.;.v.].{.XX|.|.XXXXb.,.6.a.,.>.;. .| | | [ ' ` o o . . . . . ",
"<.} <.T.`.].].'.`.'.'.'.).5.| } } ] } }  .;.7.|.XXXX[.[.XX{.k.;.=.=.=.4.'.].|.|.|.{.{.k.>.n.n.>.;.| | } | =.} ' ` o o . . . .   ",
"t.{ -.Y.~.].].].].[.[.{.m.;.| } } ] } } | ;.6.}.+XXX|.].|.).4.=.| | | ;.E.'.{.|.{.[.[.m.>.z.j.;.=.| } } =.5.$.' ` o X . . . .   "
};
