/* XPM */
static char *_7298f35ec2f4e5edf3069a24c974fablk7LOQ4zIyCxKu5X[] = {
/* columns rows colors chars-per-pixel */
"64 64 256 2 ",
"   c #151202",
".  c #251B05",
"X  c #3A1C05",
"o  c #37160B",
"O  c #292408",
"+  c #392908",
"@  c #2C2513",
"#  c #352B17",
"$  c #3A3217",
"%  c #363306",
"&  c #282C15",
"*  c #4B1A06",
"=  c #482707",
"-  c #552A0A",
";  c #48360B",
":  c #5A360B",
">  c #482A17",
",  c #542A14",
"<  c #493716",
"1  c #583818",
"2  c #693609",
"3  c #673817",
"4  c #75330B",
"5  c #573927",
"6  c #4B392C",
"7  c #653B2A",
"8  c #671D00",
"9  c #5A441B",
"0  c #55490D",
"q  c #66440A",
"w  c #684718",
"e  c #774918",
"r  c #79561A",
"t  c #6C5112",
"y  c #79651A",
"u  c #5A4627",
"i  c #574836",
"p  c #4B462F",
"a  c #664826",
"s  c #784A26",
"d  c #685429",
"f  c #775729",
"g  c #694A36",
"h  c #685639",
"j  c #775938",
"k  c #764D35",
"l  c #7C642B",
"z  c #7B643A",
"x  c #7D732C",
"c  c #564F44",
"v  c #6B5744",
"b  c #775B45",
"n  c #6E5C55",
"m  c #786749",
"M  c #776958",
"N  c #726B56",
"B  c #766964",
"V  c #7A756A",
"C  c #787877",
"Z  c #6A6871",
"A  c #685F5F",
"S  c #8D330A",
"D  c #AA3104",
"F  c #874918",
"G  c #87561C",
"H  c #91500E",
"J  c #876819",
"K  c #947017",
"L  c #AE7016",
"P  c #865A27",
"I  c #965B26",
"U  c #845D35",
"Y  c #91512C",
"T  c #876529",
"R  c #96672A",
"E  c #997529",
"W  c #876737",
"Q  c #966A38",
"!  c #8C7438",
"~  c #99753A",
"^  c #8B7427",
"/  c #A86A26",
"(  c #A67A38",
")  c #B67937",
"_  c #AC722B",
"`  c #AA5719",
"'  c #886A45",
"]  c #966B45",
"[  c #8A7548",
"{  c #987747",
"}  c #876C58",
"|  c #887659",
" . c #967B58",
".. c #A77B47",
"X. c #A37C55",
"o. c #B47D48",
"O. c #887966",
"+. c #8F7A6A",
"@. c #805C46",
"#. c #CA7C32",
"$. c #B99519",
"%. c #B18E0D",
"&. c #99822E",
"*. c #A98739",
"=. c #B48639",
"-. c #B89738",
";. c #B08C29",
":. c #A7921F",
">. c #C69B1A",
",. c #CA980B",
"<. c #C9A718",
"1. c #D0AD17",
"2. c #C6983A",
"3. c #CD932F",
"4. c #CAA627",
"5. c #CAA636",
"6. c #D7AA36",
"7. c #D6B131",
"8. c #E2B53B",
"9. c #9C8248",
"0. c #998457",
"q. c #988D57",
"w. c #AB844C",
"e. c #A78648",
"r. c #B58948",
"t. c #B9954A",
"y. c #AC8B5C",
"u. c #A88756",
"i. c #B38B53",
"p. c #B58A58",
"a. c #AA925B",
"s. c #B89559",
"d. c #AB9248",
"f. c #B8A258",
"g. c #988567",
"h. c #878578",
"j. c #998A77",
"k. c #948B70",
"l. c #A78A66",
"z. c #AB9468",
"x. c #BD9C63",
"c. c #B79767",
"v. c #A58E75",
"b. c #A99878",
"n. c #BB9C72",
"m. c #B59877",
"M. c #B38B67",
"N. c #BBA26B",
"B. c #BBA477",
"V. c #C48A45",
"C. c #C49748",
"Z. c #C69B58",
"A. c #D0994C",
"S. c #C8A646",
"D. c #D4A74A",
"F. c #DBB54A",
"G. c #C8A558",
"H. c #D6A858",
"J. c #D9B558",
"K. c #CFB652",
"L. c #E2B65B",
"P. c #E3AE4B",
"I. c #C49C65",
"U. c #C29C74",
"Y. c #CBA463",
"T. c #C8A668",
"R. c #D3AC64",
"E. c #D4AA69",
"W. c #D9B569",
"Q. c #C3A372",
"!. c #C8A978",
"~. c #D5AC75",
"^. c #DBB474",
"/. c #D7B778",
"(. c #CBB373",
"). c #E5B668",
"_. c #E4B978",
"`. c #E8B567",
"'. c #E7C057",
"]. c #DDC46F",
"[. c #E7C67A",
"{. c #E9C467",
"}. c #D7C250",
"|. c #757C87",
" X c #788792",
".X c #7D8FA8",
"XX c #878784",
"oX c #979484",
"OX c #868B96",
"+X c #959696",
"@X c #8B9395",
"#X c #A79A90",
"$X c #B8A486",
"%X c #B6A798",
"&X c #AEA79B",
"*X c #8A94A5",
"=X c #979BA5",
"-X c #929BB1",
";X c #A69DAA",
":X c #99A4A9",
">X c #9CA5B7",
",X c #A8A8A8",
"<X c #B6ACA5",
"1X c #B9B3A9",
"2X c #ADADB4",
"3X c #A6AAB9",
"4X c #B7ADB7",
"5X c #ABB3B9",
"6X c #B3B4BB",
"7X c #BBBBBC",
"8X c #B8B6B7",
"9X c #ADB2AD",
"0X c #9AA190",
"qX c #C6AB85",
"wX c #CAB48A",
"eX c #D7B987",
"rX c #CAB598",
"tX c #D8BC94",
"yX c #C6AA8F",
"uX c #E5BE8D",
"iX c #C5B8A8",
"pX c #D4BEA7",
"aX c #C5BAB8",
"sX c #D2BCB4",
"dX c #BDC3BA",
"fX c #DAC389",
"gX c #DAC498",
"hX c #CEC099",
"jX c #E8C787",
"kX c #E6C897",
"lX c #F0D091",
"zX c #DAC6A8",
"xX c #C8C3BA",
"cX c #D5C7B6",
"vX c #D4CBB2",
"bX c #E4CBA7",
"nX c #EAD3B1",
"mX c #9CA7C2",
"MX c #A7ADC5",
"NX c #ABB7C5",
"BX c #BBBDC3",
"VX c #B7BAC6",
"CX c #BCADC0",
"ZX c #C5BDC5",
"AX c #BCC4C9",
"SX c #BBC6D5",
"DX c #C3C4C3",
"FX c #C3C4CB",
"GX c #C8CAC8",
"HX c #D2CBC8",
"JX c #C7CAD4",
"KX c #CBD2D5",
"LX c #D7D6D6",
"PX c #D4D3CC",
"IX c #E4DACF",
"UX c #D1DAE1",
/* pixels */
"AX7XJXJXDXAXJXaXFXLXLXUXSXSXDXVXNX6XJXIXPXLXKXJXKXKXJXVXFXJXDXcXHXPXFXFXJXJXJXGXAXaXsXZXAXb.j.| O.k.0XSXAXNXSXHXFXBX-X+XO.h.V B ",
"GXAXVXBXGX7XDXGXAXGXLXJXAXFXdXFX5X6XZXIXPXLXPXKXLXPXAX6XVXFXGXzXAXGXAXJXFXFXJXGXxXiXpXDXAXoXO.+.+.k.<XSXAXVXFXcXHXDX6X&Xj.V N O.",
"AXJXVXAXAXGXxXFXKXGXLXBXAXKXDXDXxX6XBXIXIXLXLXLXPXLXAXVXAXGXHXB.$XdXFXLXVXSXFXxXDXaXpX7X#XO.| O.j.j.%XAXVXzXsXcXcXiXxX%XiXXXA V ",
"SXAXFXFXNXAX1X6XKXLXJX7XDXKXDX7XFX8X7XIXIXLXLXIXLXPXBX6XAXGXPXrX1XAXGXFX1XxXiX8XZX4XsX=X+.| } +.j.k.#XSXxXkX%XyXgXqXwXqXrXh.A h.",
"SXAXSXKXAX5X9XBXJXLXVXVXGXJXVXVX5X8X8XDXHXLXPXIXLXGXBXBXFXGXFXiXiXZXFXAXtX<X&X1XHXaXiX@X+.M V j.j.oXoX6XzXlXqXB.eX!.qXqXyXh.V h.",
"GXKXJXKXAX5X5XBXAXVX>XNXBXVXNXMX3X9X2X5XBXKXIXIXGX7X7X7XDXGXVXiXQ.aXGXvXkX,X,XiXaXcX<XXXO.C h.+.k.3X,X6XbXkXn.n.m.c.n.n.$XXXV h.",
"GXLXJXAXdX3XBX8XBX>X-X5X5X5X2X5X3X,X,X3X2XZXLXPX7X7X7X8XZXxXAX1Xb.dXxXvXlX%X;X,X,X1X7XO.B  XV N oX6X3X6XbXnXm.Q.U.T.T.T.wXj.N h.",
"6XcXaXFXVXAXBXDXAX3X>X3XAXVX9X6XNX8X9X3X9XZXLXDX8X7X8X6X7XdXAX&XX.rXaXaXlX#X+X0X+X=X6XM C  Xn h.8XxX6X5XnXnXm.n.Q.I.u.n.qXC +.XX",
"mXaXpXVXJXGXGXKXHXAXVXJXKXJXJXFXJXcXiX>XNXFXxXiX9X6X9XvX7XNXVXBXB.<X5XiXgXyX@XqXj.+X+Xn XXC M *X6XDX7X6XnXkXX.w.~.c. .U.qXV C +X",
"VXNXvXaXVXJXLXPXPXLXPXLXLXLXUXLXPXnXkXzXaXHXnXkXm.%XcXnX<XVXNX6Xm.#XCXzXpXuXwXI. .+XoXn +XB XX>X*X2XAXBXtXtXc.I.z.b.{ n.b.N XX,X",
"BXNXiXpXcX7XGXLXLXLXLXGXDXDXFXPXcX7XsXlXfXbXnXcX%XrXnXvX+X2X,X2Xm.+X7XbXrXbXtXy.u.=XXXc XXC ,XMX3X=X:X6XbXuXU.I.E.uXE.U.l.R.z.XX",
"aX7XBXZXsXBXSXFXJXVX3X6XcXBXVXaXsXBX1X8XiXzXxXiX8X8X8X8X7X=X*XVX$Xy.vXgXgXrXB.u.v.=XC c |.B OXMX2X2X3X6XnXkXn.Q.E._.).E. .9.[ h.",
"6X6X6XMXBX7XMXMX4X2XMXNXZXZX8XaXZXZX8X4X6X1X4X4X9X8X6X2X2X3X.X3XrX2.!.zXzXqXM.e.g.*XM p A c  X:X=X=X:X:XbXkXn.T.).jX_.H.} m M oX",
"3XmX3X,X9XaXZX3XaXaXZXmX3XxXiX7XZX6XaXsX4X3X8X<X2XiXcX2X3X,X.X,XuX_ r.T.c.c.w. .+.@XZ 6 n M |.OX*X*X=X:XnXtXI.E.`.jXjXR.}  .z ' ",
"%X,X>X9X6X4X4XCX9XaXxX6X>X2XaXZX8X7X>X2X2X,XxXiX8X8X8X7X=XOX XN.).Z.s.I.Z.!.l.C C k.B 6 j Y.G.m.OX*X*X:XbXeXx.I.Y.W._.Y.} M u.i.",
"cXrXsXaXaXaX8X1X,X2XaXiX5XmX5XCX5X4XmXMX2X,X1XiX1X<X;X*XOXC |.s.`.L._.Y.A.Z.$XC C k.V c R P.D.E.oXOX.X*XwXy. . .a.I.~.{.~ v u.a.",
"rXpXzXpXzXzXsXsXrX,X9X8X4XaX7X2X8X5XMX3X>XdX1X=X9X&X X X X X Xx.).H.`.D.A.t.Q.m.Z h.C v I Z.C.A.i.OX@X=XbXqX~ 9.G.`.Z._.W.u.w.Q ",
"pXrXrXzXzXbXzXzXgXwX%X2X7X8X1X4X8X7X,X,X2XxXiX;X*XOX|.+X&X1X$X!.L.H.).D.2.Y.W.E.v.C C  ./ V.V.3.) k.@X=XnXQ.! ~ Z.`.E.E.^.~.y.W ",
"zXzXgXtXgXtXfXfXtX[.fX%X,X1XrXzX<X>X-X:X1XzX1X,X,X=X1XpX$X%Xg.t.H.H.).H.2.G.^.R.D.I.Q.W._.^./._.^.Q.0.#XbXT.~ 9.Z.H.`.W.E.~ ' [ ",
"rXzXbXgXkXgXkXjXjXfXjXkXeXfXgXjX(.yX&X+XpXzX9X=X<XzXwX#Xq.b.z.s.i.U.E.Z.r.G.{.H.C.V.G.^._._._._./.z.C._.bXQ.~ { t.H.H.W.^.*.a T ",
"wXtXgXbXnXnXlXjXjX[.jXjXlXjX/.fXE./.[.(./.fXhXhXzXrXb.j.v.l.f.W.N.N.u.n.T.Y.[.A.V.t.H._._.^.)._./.!.A.).bXm.Q ~ H.H.A.R.).`.j y.",
"qXwXwXtXgXfXeXjX[.{.[.lXjX[.jX]././.[./.T.!.b.$XN.N.B.z.s.-.G.G.(.N.N.fXqXs.W.D.C.C.R.).~.E._._./.!.Z.D.eXn.^ o.Z.H.H.H.`.r.a Z.",
"wXqX!.qXtXfXeXkXjX[.[.jXgXfXeX^.{.{.^.jXW.W.R.m.l.x.eXK.-.*.S.G.N.Q./.uXG.s.Q.t.C.Z.D.H.Z.s.T.^.eXB.r.-.H.M.! ( C.H.H.W.).] h r.",
"(.wXwXtX!.qX!.wXkXkXeXlXkX/.].^.[.H._.jX_./.'.K.g.g.b.z.9.x.t.t.t.!.U.H.S.s.z.y.C.t.H.W.s.{ g./.wXN.;.5.( X.E e.V.H.[./.).f u i.",
"B.eXqX!.!.qXqXwXkXlXeXeXjX].W._.J.S.6.W.jX_.J.'.L.S.f.s.g.0.u.s.i.c.s.i.-.G.d.d.t.~ -.C.~ W { G.Q.t.&.&.~ T Q W s.~.G.H.).P k *.",
"!.Q.!.Q.n.n.N.B.eXjXjX_.jXjXT.G.}.}.J.F.F.W.L.L.J.7.t.d.! z ! ' [ ' !  .X. .*.&._ P W ' b v z z [ *.y ~ E z Q j c.W.( C.H.W d ( ",
"!.!./.(./.T.n.wX/.eXeX_.^.eXjX[.W.J.J.8.F.F.7.5.^.].}.7.4.5.5.:.&.E :.:.^ v v v v b n n B M M B m J K Q T d T [ s.*.] V.( j u ) ",
"a.n.!.!.(.Q.Q.!./.kXkX/.!.jX_.Z.C.r.Y.S.C.H.F.-.T.{.7.8.4.1.1.1.1.1.<.<.4.;.E ! z v n | ' b M B m T T z l ^ K G.Y.x.9.=.( v i _ ",
"n.z.z.c.!.eX~.s.~.jX[.W.!./.W.Y.Y.S.6.7.J.}.S.5.t.S.1.8.6.4.6.>.6.7.<.<.<.8.F.D.<.;.:.-.*.~ &.e.q.*.&.! K Z.{ e.G.^.~ W Q i g =.",
"z.z.m.c.~.^.I.s.!./.W.J.H.R.R.r.Y.J.F.8.8.8.'.8.3.$.<.6.6.6.8.6.6.1.<.%.%.4.5.S.6.<.:.[ | [ ^  .a.~ 9.E K I.M.[ Y.~.~ u U M  .w.",
"c.z.Q.!.eX^.Y.I.c.x.~._.{.J.t.Z.Y.d.R.J.F.6.5.S.;.5.:.-.M.G.6.D.W.J.F.1.<.4.F.4.4.%.E m N N B A u.W U K t.Q.Y. .I.Y.~ y.( v j.g.",
"c.c.c.Y.R.^.~.x.c.i.Q././.(.Q.~.W.W.x.u.R.w.C.F.2.*.G.r.o.2.;.&.^.uXR.&.G.{.J.5.5.C.>.$.*.*.9.{ u.' E K d.z.T.w.( t.R.E._ w N | ",
"x.s.0.x.I.T.n.s.y.i.C.H.N.B.l.0.u.a.{ w.i.~ t.i.t.C.1.>.2.$.%.^ G.D.$.K :.<.<.D.P.G.t.u.[ { | 9.Q ! L T u.| e.r.e.s.Z.G.~ 9 p ] ",
"c.p.w.Z.i.x.s.t.M.v.c.x.l.u.u.u.y.x.e.i.t.2.r.u.-.4.5.*.R Q W T ! Q 2.t.=.$.4.F.s.M M B } m O.l.' E L 9.i.m { u.( W s.d.P ! j E ",
"p.x.x.c.i.!.I.I.x.k.g.l.y.c.z.x.I.!.c.x.D.J.w.u.$.,.>.$._ L J T y k j j ' ] { W.i.h m } j m b.9.z E ;.! e.'  .y.P ! Z.e.T { a ~ ",
"3.t.i.y.( p.i.x.s.y.| u.y.l.y.c.s.T.s.u.r.Z.s.w.=.;.>.,.,.,.,.$.$.Q g a h g W ).F.1.C.C.&.j.v.! T *.=.~ l.U a.9.T E =.l f f u E ",
"#.t.p.l.( Q ] I.i.y.y.! u.z.Z.Q.I.p.u.{ X.u.~ ( { 9.$.>.4.4.,.>.%.3.%.K Q J J ~ *.5.G.R.5.m.u.T T ( d.~ 0.{ ~ G J T R a k ] d P ",
"` V.E.i.{ Q e.s.i.u...~ 9.p.s.I.x.X.{ s.u. .s...u.' ~ 4.D.4.,.%.K %.%.%.%.%.&.K J m g.n.T.$X! P T r.d.^ { ....I G s s f f ( t f ",
"` _ o.] { Q f Z.s.u.P i.e.Q p.I.y.s.{ { ' { i.] y.[ ! -.J.6.>.R E %.%._ $.>.,.>.*.m N | m.l.f =.( 2.*.9.W s.I.P P : < f r r w 1 ",
"L / w X.U ~ U ~ r.e.U r.t.' ( s.X.s.e.' ] w...r.s.u.' Q H.J.t.P *.>.;.j ~ *.%.:.W |  .q.g.a Q 3.) ;.*.a. .~ K P 1 1 # < e d l r ",
"L ` 7 ..{ k g H ..' e { A...) w.X.w.W ] Q w.] p.G.0.b Q R.Z.G./ ! e.~ j g W ;.( '  .q.b.M 5 ..) ( 9.e.y.| R H P f > # < e R K E ",
"L G 7 P ( F F H ..' F ~ C.R _ s.t.t.{ U { ~ s.Y.G.9.W s.i.~ R.H.C.i.( s v e.R ' ' g.$XoX[ j ~ s.v.g.a.K F Q f R K q @ < w f G ( ",
"r.U 5 e =.I S I e.] H ( Q R ( Z.Z.T.x...] ] c.G.Z.a.s.W.C.W s.).L.Y.i.] l.u.' g.g.g.j.#X'  .N.n.{ i j q w T 3 F H w # > f a l t ",
"{ Q 3 R ) H S W Z.~ s R i.I Q Z.p.M.X.I.s.w.w.T.T.s.t.L.H.w.a.R.H.H.T.n.Q.!.B.g.+.0. .l.l.g.g.' W u 1 t W ( 3 e s ; d Q r.f T r ",
"f F s I ` H H ( V.Q b Q =./ Y u...{ ..C.R.s.s.E.E.f.H.`.H.E.c.s.Y.T.I.E./.eXI.v.g.[ u.g.g.m 7 f K [ d f ( r.q { d.l f R e r r G ",
"e 4 Q K H H / V.V./ e Q o.H I ( u.w.) ) ..] p.H.Z.S.D.R.Y.R.(.Z.l.n.~././.Q.qXqXb.[ 9.| a j g l J j w w _ H G s.R Q t w s R w 1 ",
"R F G L _ _ r./ =./ e U Y H / Q ..o.~ w.i.Q ..^.W.C.A.R./.R.Y.R.b.n.Q.!.n.N.wX .b g.a.m a j j t T t q P G w r ~ ) Q T ; w f w = ",
"H R ] ( ( ( s.) / ( r f H H ) ..C.r.{ ..Z.) o.R.W.H.A.R.~.H.G.Z.f.M.U.c.a { u.j 5 v  .h w s k h J J P T f 0 0 t *.^ f : w : 1 w ",
"I U } o.w.g.s.r.F _ K Q / K A.i.t.r.e.i.t.) Q Y.J.S.H.Y.T.I.G.Z.x.M.c.g.5 T ~ j a 5 h j k w 6 j E J T 1 a 9 0 ; f e e q : : r r ",
"R R / R r.C.Z.X.S ) r.o.V.o.i.G.C.G.C.t.t.] P r.H.H.^.^.~.~.!.Q.B.n.B.c.g f T b u i j j a 1 i ' E J ~ z w 0 % % ; P w w w 9 f w ",
"F s F R ( 3.R 4 S C.r.o.w.t.t.r.t.2.2.C.G.{ X.A.W.W.^.E.T.!.!.Q.B.Q.B.qXj b f  .h i b k 7 i M [ T f l W 1 % % % d a w a < + : 9 ",
"g k U I F ) G S S =.V.;.~ t.t.t.=.R *.G._ r.G.2.R.^.R.Y.T.!.Q.x. .y.$Xb.h m ' ' i 6 ] Q a 1 ' O.9 u f j z [ z % ; 1 1 9 % + ; t ",
"b j U R F j k 8 Y R 2.2.e ..r.t.i.k e.Z.F r.2.2.E./.~.T.Y.Y.T.u.s  .|  .m m z n v h ' l f e E m % w C.U q.N.u.a O u ; < O ; a 1 ",
"M @.} ] e > , 4 * e L F e w.R e 3 3 ..G 3 R D.)./.^.W.E.G.G.Z.P s { j | } | 0.[ m '  .| W T R x 0 e.r.T W ! r u + $ < < + u a w ",
"O.} { ] > - G 4 o S ` 4 P k - 3 * - e 2 1 ~ J.eX^.R.R.G.G.Y.i.r Y ' d M V m m ! [ u.b.g.[ [ [ 0.e.d.w ! c.j a W [ O ; + + w 9 : ",
"} O.+.U 3 G I 4 8 S 4 H s * = - - : w , 1 s.^./.R.Y.Y.i.i.i.{ f I j z O.+. .' { u. .O.|  .| |  .{ y ; 0 i.j [ s. .$ % = ; ; u d ",
"] j.U 2 1 3 H 2 S D 8 f f X 3 > - 4 a 1 G r.!.Z.s.w.( ..w.9.W U s m M k.b.v.g.0.q.N M } j.k.0.m q ' 0.t T f ' { j > . @ $ O h ( ",
"Q +.3 - * - 4 F S S 3 o > 1 j 1 - 2 = u 4 r ..( ..T { w.] j b 7 j +.O.g.m v j.l.l.} 0.g.j.j.v.} ! e.N.9.y ! { W T > . O . 1 e._ ",
"I b * - : P 4 4 3 2 s 5 o 9 f , = 2 5 5 e P R ~ ~ ~ w.Q ] | v g b M N m h O i m j.v.g.l.b.j.j.h j W ! a.f f ~ e.w < @ . 9 w._ H ",
"F i 6 , j a * - - - 3 1 X - 2 X = 2 u 1 q ~ E ( R Q u.W y.l.m m | i @ v | . # # p N g.b.yX$Xb.v < u l T  .+ a r 1 : O a y.i.K H ",
"F i > 1 7 = X = , = k 3 , : q = X 3 d e e d.r.~ e Q { l.Q.z.| +.k.p @ < $   @ # p $ $ i | $Xk.M 6 $ { T ' # ; : ; 1 = W k W *.H ",
"2 7 5 1 , = , = > , F 4 q e - , , 1 W P Q e.w.{ e T { y.l. .v.v.} O O $ O O O @ 6 u $ @ @ p # i h $ f r u ; 0 @ . O j j 9 u T H ",
"2 5 5 1 1 w - = X = F 4 q P 1 = 3 1 ! ( u.u.l.~ P { [ 0.l. . .j.m @ O O . . . @ # = < # @ @ O   > < = = + < ;     O u u 9 u 5 r ",
"2 v 1 , 3 G - 1 1 - w e q z , 2 f 1 Q ( 0.z.n.Q  .l. .+.g.g. .O.| p . . . .   @ @ ; < $ O O . + X . + = . + X .   # 6 < u i 6 9 "
};
