/* XPM */
static char *_3ddd2dcb0ce49fcc04f76caef24021au7ttyIdzqQfobgTT[] = {
/* columns rows colors chars-per-pixel */
"64 64 256 2 ",
"   c #040100",
".  c #0B0201",
"X  c #050A03",
"o  c #0D0A03",
"O  c #0D0B09",
"+  c #09060A",
"@  c #130401",
"#  c #1B0400",
"$  c #140A03",
"%  c #1B0C03",
"&  c #140D0A",
"*  c #1A0D0A",
"=  c #14060A",
"-  c #0C120B",
";  c #1B1106",
":  c #14120C",
">  c #1B120C",
",  c #18140A",
"<  c #141411",
"1  c #1C1513",
"2  c #1C1A14",
"3  c #1A1B16",
"4  c #0F1413",
"5  c #230200",
"6  c #230C01",
"7  c #2A0803",
"8  c #340201",
"9  c #370B03",
"0  c #241304",
"q  c #2B1403",
"w  c #23140B",
"e  c #2C1B0D",
"r  c #291809",
"t  c #361906",
"y  c #231611",
"u  c #2A1512",
"i  c #241B14",
"p  c #2B1D14",
"a  c #251D19",
"s  c #2A1E1A",
"d  c #341B15",
"f  c #310D12",
"g  c #38220C",
"h  c #2C231B",
"j  c #29241A",
"k  c #332314",
"l  c #3B2313",
"z  c #33241B",
"x  c #3A251B",
"c  c #3C2B1C",
"v  c #33281C",
"b  c #3F331C",
"n  c #2C2522",
"m  c #2A2821",
"M  c #342B24",
"N  c #3B2C23",
"B  c #362823",
"V  c #3D322A",
"C  c #3A3228",
"Z  c #3E3C33",
"A  c #550706",
"S  c #471608",
"D  c #4A1914",
"F  c #581916",
"G  c #490907",
"H  c #7A1616",
"J  c #681111",
"K  c #45291A",
"L  c #56281B",
"P  c #48341D",
"I  c #4C290F",
"U  c #63291D",
"Y  c #711A21",
"T  c #442D24",
"R  c #433224",
"E  c #43342C",
"W  c #4B3A2C",
"Q  c #493629",
"!  c #573A27",
"~  c #4C3C33",
"^  c #453833",
"/  c #513F34",
"(  c #592623",
")  c #702F28",
"_  c #5F1C23",
"`  c #58432D",
"'  c #4A4438",
"]  c #594638",
"[  c #564B32",
"{  c #66442D",
"}  c #664738",
"|  c #724835",
" . c #77533A",
".. c #6A543C",
"X. c #594A43",
"o. c #524841",
"O. c #664C44",
"+. c #645342",
"@. c #685849",
"#. c #775A46",
"$. c #6B5B53",
"%. c #795753",
"&. c #77634E",
"*. c #736254",
"=. c #7B6454",
"-. c #7B6A5A",
";. c #786857",
":. c #70664F",
">. c #7B6F64",
",. c #921816",
"<. c #87201E",
"1. c #982928",
"2. c #8B312F",
"3. c #AE3331",
"4. c #A6211E",
"5. c #A34637",
"6. c #C8483D",
"7. c #855B46",
"8. c #974F4A",
"9. c #87634B",
"0. c #95694E",
"q. c #876A58",
"w. c #966A57",
"e. c #87735C",
"r. c #94745A",
"t. c #89714D",
"y. c #AF7455",
"u. c #897767",
"i. c #987966",
"p. c #947C73",
"a. c #8D726A",
"s. c #A67B66",
"d. c #B16766",
"f. c #A75253",
"g. c #D04445",
"h. c #F9666C",
"j. c #B9865D",
"k. c #98836D",
"l. c #988776",
"z. c #998E77",
"x. c #AB846A",
"c. c #B98A69",
"v. c #A48C7B",
"b. c #AB8C7C",
"n. c #A78774",
"m. c #B58B77",
"M. c #AC947D",
"N. c #A6977D",
"B. c #B99978",
"V. c #B7916D",
"C. c #BAA27B",
"Z. c #C38C6A",
"A. c #C7966A",
"S. c #C49C7A",
"D. c #CA9D7B",
"F. c #C79774",
"G. c #D79A78",
"H. c #C5A37D",
"J. c #C8A47C",
"K. c #D1A378",
"L. c #AD9483",
"P. c #AC9A82",
"I. c #AA9888",
"U. c #B39582",
"Y. c #B39B84",
"T. c #BA9A84",
"R. c #B49C8A",
"E. c #BA9D8C",
"W. c #B79486",
"Q. c #BB9E92",
"!. c #B2908B",
"~. c #B4A38C",
"^. c #BBA48C",
"/. c #BDAB8C",
"(. c #B8A585",
"). c #BEB28D",
"_. c #BBA492",
"`. c #BCAB93",
"'. c #B9A998",
"]. c #BDB296",
"[. c #ADA28B",
"{. c #AB9D91",
"}. c #C49B86",
"|. c #C99490",
" X c #C5A582",
".X c #C4AA84",
"XX c #CBAA86",
"oX c #C3AC8C",
"OX c #CAAC8A",
"+X c #CCA484",
"@X c #D3AA88",
"#X c #CBB18B",
"$X c #D2B28D",
"%X c #D6B487",
"&X c #C2AD94",
"*X c #C5A798",
"=X c #C3B294",
"-X c #CCB493",
";X c #C4B59B",
":X c #CAB69D",
">X c #C6B99E",
",X c #CABA9D",
"<X c #CDB894",
"1X c #D3B493",
"2X c #DBB993",
"3X c #D3BB9B",
"4X c #D9BD9B",
"5X c #D4BA95",
"6X c #D3AE91",
"7X c #E3BF99",
"8X c #C6BAA2",
"9X c #CBBCA3",
"0X c #CDBEA9",
"qX c #C9B4A4",
"wX c #D4BBA9",
"eX c #CAA9A0",
"rX c #D5C29C",
"tX c #DBC39E",
"yX c #DCC69C",
"uX c #CFC09F",
"iX c #E3C39C",
"pX c #CEC1A5",
"aX c #CEC1AA",
"sX c #C7C0A4",
"dX c #D4C5A5",
"fX c #DCC4A3",
"gX c #D7C8A7",
"hX c #DACAA5",
"jX c #D2C3AB",
"kX c #DBC6AC",
"lX c #D6CAAC",
"zX c #DACCAC",
"xX c #DFD0AF",
"cX c #D5CCB3",
"vX c #DBCDB2",
"bX c #D9CDBA",
"nX c #D4C9B5",
"mX c #DCD1B4",
"MX c #DCD4BB",
"NX c #DED8BC",
"BX c #D7D0B6",
"VX c #CFC2B1",
"CX c #E2CCAB",
"ZX c #E3C7A6",
"AX c #E2D1AD",
"SX c #E2CEB3",
"DX c #E2D3B3",
"FX c #E1D6BA",
"GX c #E2D9BC",
"HX c #E9D4B7",
"JX c #F0D8B4",
"KX c #DACFC1",
"LX c #DDD3C2",
"PX c #E3D8C3",
"IX c #EEE1C6",
"UX c #FDF0E0",
/* pixels */
"/./././././.&X=XoX&X=X&X;X:X9X>X9X9XpXpXpXjXjXjXlX>X9X>XpXdX/.pX>X].sX].MXBXBXmXcXcXcXnXnXBXKXMXMXcXjXlXvXmXzXzXlXlXgXdXuX,X<X<X",
"/././././././.&X&X=X;X;X;X:X:X;X>X>X9X9X9X9XpXjX9X>XpX>X;X,X>XpX[.mXGXBXcXmXsXjXcXcXnXcXBXBXKXMXMXmXlXlXvXmXzXzXzXzXzXgXdXdXdXhX",
"/./.oXoX/./././.=X:X:X:X:X,X:X;X;X;X;X>X>X9XpXjX9XlXdX>X,XFXmXz.:.].aX8XcXPXBXBXcXcXBXBXMXMXLXLXNXMXmXmXmXmXzXzXzXzXzXhXgXzXzXAX",
"/././././././.oX;X,X9X9X,X9X:X&X;X;X;X>X>X9XjXjXpXjXlXGX9X).mX9Xb [.PXcXBX8XjXMXBXBXMXMXLXLXLXLXFXFXFXmXmXvXzXmXzXzXhXgXgXgXzXAX",
"/././././.&X=X=X:X9X0X9X9X9X:X;X:X>X>X9X9XjXjXlX9XlX9X9X=XjXGXP.` N.].MXPXMXVXVXbXMXLXLXPXPXPXPXFXFXDXmXmXvXzXmXzXzXzXgXdXgXzXzX",
"/././././.=X;X:X>X9X0X9X9X9X9X>X9X9X9XpXjXjXjXlXjXjX9XpXvXvXz.e ..u.:.'.[.nXnXMXbXbXbXbXMXMXMXMXMXmXmXmXmXmXmXmXmXmXzXzXgXgXhXzX",
")./././.=X;X;X;X>X9X9X9X9X0X0X9X9X9X9XjXjXjXjXjXjX`.jXFX[.[ c ..-.P.I.'.u.l.VXPXbXbXbXbXbXbXbXbXmXcXlXlXmXmXmXzXmXmXzXzXhXgXhXzX",
"=X`.`.=X;X;X;X=X9X9X9X9X9XjXjX0X>X9X9XpXjXpX9X9X9XnXaX:.0 r @.nX;X].bX0XPX'.UX0XLXLXbXbXbXbXbXMXvXlXjXlXmXmXmXzXzXzXzXzXzXgXhXhX",
"`.).=X;X;X>X>X>X>X9X9X0X0X0X9X9X9X>X].lXnX;X0XnXbX;X-.] -.I.R.~.I.[.u.k.l.'.'.'.KXKXPXPXFXbXnXnXcXcXzXvXvXzXzXzXxXzXlXgXzXzXgXdX",
"=X=X=X;X>X>X>X>X9X9XjXjXjXjXjXjX9XjX9X9XaXjXvXaX;XR.z.I.R.u.+.] *.:.[ +.] *.;.>.L.{.0XbXMXvXnXlXcXcXlXzXzXzXzXzXzXlXgXgXgXgXdXdX",
"=X=X;X>X>X>X9X9XjXjXaXaXjXjXjXjX9XvXlXlXjX9X0X].R.I.u.;.$.' z k b k k z k N N ^ O.;.l.].vXPXFXvXvXcXzXlXlXzXzXzXzXlXgXgXgXgXgXdX",
";X;X>X>X9X9X9X9X9X9X9X9X0XaXjXjX;X9X8XjX;Xz.k.u.u.;.] R k p r w k r e 0 0 s w s z N ~ ;.R.jXlXpXmXmXvXlXlXlXzXzXzXzXzXzXzXzXhXhX",
">X>X>X9X9X9X9X9X9X9X9X9X0XjXjXjXvXFXvXvX].k.u.u.*.W k z p % w z c c K k k x z u B N Q @.z.pXFXGXmXmXmXvXlXlXzXlXlXlXzXhXgXgXhXhX",
">X>X>X9X9X9X9X9X9X9X9X0XjXnXVXjX9XlX`.z.e.:.*.] +.R r % @ w z x e x k z E z N u % p N ] -.P.9XlXmXmXmXmXvXlXzXzXlXlXhXgXgXgXgXgX",
">X>X>X>X8X8X8X8X9X9X8X0XaXjXaX9X9X9Xz.;.@.+.@./ p p p % % E ] z 6 e 0 R ~ @ s * # u N ] =.P.9XjXlXlXvXmXmXmXzXzXzXzXzXzXgXgXgXhX",
">X>X>X>X8X>X8X8X9X8X8X9X0X0X8X;XaX~.-.:.+.' ' R k % $ % r / *.*.! ` Q =.*.@ z u # # 0 R =.~.-X=XdXgXzXDXDXDXmXmXmXDXDXAXzXzXzXzX",
"9X9X9X8X8X8X>X>X0X0X9X9X0XVX0X;X8Xz.@.@.' ' m 2     w w r ] p.wX6X9.{ q.qXv.I.X.. z 0 P u.(.oXC.oX-XrXCXAXhXgXzXzXzXzXzXzXlXlXlX",
"9X9X9X9X9X8X8X8XaX0X0X0X0X0XqX;XjXN.;.' $.i O . : o i % % R ..r.s.| I t ` L.PX+.@ e k ` r.B.XXC..X.X1XhXCXhXzXAXzXzXzXzXlXlXlXlX",
"9X9X9X9X9X9X9X9XaX9X0XjXwXqX;XqX`.R.] R V * . y & , i $ % R ` ` I t 7 5 6 @.u.. . % +.k.M.oXXXB. X XOX5XfXhXhXzXxXxXvXvXSXSXSXSX",
"9X9X9X9X9X9XaXaX0X8X9XjXwX'._.*X*XwXq.O.d % . $ @ y j $ % Q ] Q 5 t 5 d e p w . . @ u.9XoX-XXXB. X X X#X3XfXfXdXHXDXDXDXDXDXSXSX",
">X>X>X9X9X9X0X0X0X8X0XjXqX_.R.*X*X*XwX!.%.w p . > h j @ . k R e q } } O.z * . . . . -.&XT. X+XXXXX X XOX5XfXhXdXgXgXgXgXkXSXSXvX",
";X;X>X>X8X9X9X9X0X0X0XwXqX_.R.Q.*X!.wXwX%.d u y s M i @ . $ k 6 W +.p.I.~ i & .   . ] v.Y.B.H.H.J.J. XXX1XfXCXhX,X:X<XdXkXSXDXSX",
";X>X>X>X8X8X9X9XjXjX0X9X;X_.E.!.*XQ.Q.p.d u . i M B * $ . . p 0 e @ s ^ $     o   . e =.T.}.B.F.S.H.H.J.#X4XfXfX3X,X,XdXCXHXHXHX",
">X>X>X>X8X8X9X9X0XjX0X;X*X_.R.L.L.I.Q.N % s s V V h . $ @ . e w w u .   O O   . . . . P n.B.S.D.F.S.H.S. X$X5X-XrX3X3XhXCXHXHXDX",
";X>X9X9X9X9X9X9X;XjX_.*X*Xb.U.v.I.l.e $ ; > $ * . . @ w @ % @ @ * . .     <   . . @ . @ i. Xc.@XF.F.S.B.B. XOX-X3X4XwXhXCXCXHXHX",
">X>X>X9X9X0X0X0X0XR._._._.*Xn.L.'.$..   ; h i o.o.N N @ d # @ @ . . 1 o       O . @ R R.n.s.+Xj.F.D.D.D.J.OX1X5X-X-X<X,X4XfXkXkX",
">X>X>X9X0XjXaX9X0Xv.~.E.R._.b.b.R w @ . e N . @ N $.-.$.r x # r % , . o & : < . $ p c v.n.x.J.c.c.F.F.S.J.XX$X$X1X<X5X5X4XwXfXhX",
">X;X;X9X0XaX9X;X'._.L._.U.W.|.q.@ 0 x l R ] W ] # e a.p.] l d 6 C z   . 2 3 n O , > c # i.x.F.V.c.Z.F.F.S.+XXXXX4X4XtXfXfXkXCXCX",
">X>X>X9XjX9X;X_.R.&XE._.E.*XW.L 5 5 5 9 9 5 K O.} 7 T =.k.+.T T x E i > $ o n n , V W #.I x.x.V.Z.F.D.D.D.+X@XXX4X4X4X4XfXfXZXZX",
"9X9X9XpX0X8X`.~._.Y.*XE.|.eX%.8 9 D D F F 5 8 5 ! } K ` =.u.R *.r c N h $ o j M B N ] #.! S c.F.Z.F.D.D.D.@X@XXX1X1X4X4X4XfXfXhX",
">X>X9X8X>X`.~.~._.v.*XE.b.q.D 9 _ ) 2.) ) F F 8 5 L } q R c R ` k e k p p M M M z z 0 ! ! 7  .F.Z.A.F.F.D.+X@XXX1X1X1X5X4XfXfXZX",
";X;X;X=X_.~.~.R.R.Y.b.*Xw.8 8 U 8.<.5.2.2.J A S S # d W # q t 0 l q l e x ' R W c e l ..#.! ! F.Z.A.F.F.D.K.@X$XOXOX-X1X5XrXfXfX",
";X)./.~.~.P.L.U.*XU.|.s.G A 2.H 1.5.3.,.1.J J F D 7 $ j % 6 { 7.#.9. .5 { i.q.r.#.{ t q.9. .g 9.c.G.G.A.A.A.K.%XXX#X-X<XrXhXhXrX",
"pX/.N.Y.Y.M.v.M.i.*Xw.G A J H 3.,.3.4.6.3.3.H A f u . > w 6 ! 9.9.9.7.I I 0.0.0.0.| S 9.r.9.t L y.y.y.j.A.A.A.K.H.XX-X5XrXhXhXrX",
"~.~.P.P.M.b.L.R.*Xa.S 8 F J J <.1.3.4.g.3.3.1.H G f . . i % K 7.i.9.q.{ 9  .w.r.s.9.L { #.#.l t ) y.G.F.A.K.F.A.V.H.OX5XfXZXyXrX",
"N.~.~.L.L._._.L.L.l 5 D L U ) H 1.3.3.3.g.4.1.2._ f @ $ > @ 0 ! &.| #.! 7 ! | { { ! t q K l q 7 S f.G.F.A.K.F.A.V.B.+X1X4XtXtXrX",
"_.~.~.R._.R.k.;.W W K K ! ( _ 2.H 1.3.4.h.4.,.1.) 8 # > .   @ r g g P t t q 7 7 6 # 6 t K q 6 5 L ) 0.F.@XF.A.@XF.S.+X@X6X1X2X2X",
"&X^.^.&XL.=.] ~ E ] ~ W } ( ( d.2.f.1.4.g.4.,.3.Y 8 5 *     o   6 q t 6 l 7 t K K q q R ] K r 6 8 L 7.c.D.c.j.c.S.S.}.@X@X@X$X2X",
"^.^._.^.l.$./ E N ; y E E T O.w.w.|.f.1.,.4.3.3.J 8 5 . . < X o p c K l e q ! e.=.P 6 c Q N w # 7 #.x.S.+X6X@XF.D.}.+X@X6X@X$X2X",
"^.`.L.v.L._.u.E .   : , . w T T O.!.|.d.H 1.3.<.A G 5 . : m X < p Q ' ] 6 @ K -.u.W 6 c C E i # 7 T } 9.m. XJ.J.D. X+X6X1XOX$X2X",
"^.L.E.L.L.'.u.j     X X   . . @ > B } 8.8.2.2.2.G 8 # @ 1 3 < X , R E Q z @ d +.] z % r B h > $ w u d q t r.$XH.S.S. XXX1X5X2X5X",
"^.Y.*XU.R._.X..   X X X O & & : O . * K | 7.) ) G 8 # @ * 3 < X y p w p w . % k e @ . $ > & = > 1 z e % P t.B.H.OXXXXXOX1X4XyXyX",
"^.Y.*XE.;XL.z . o X - - < 3 2 3 4 X   $ T } ) D 8 5 @ @ = & O + & $ @ w * @ r s w @ @ $ & . . & ^ X.c % u.(.B.V.XX.X.XoX-XrXyXZX",
"&X(.&XE.qXu.@ , : - - - 3 3 1 : 4 - X o e T K d # @ . . = & & o . * s N > $ N W N w $ > a 1 = + n >.p.[ (..X.XC. X X.XOX<XrXhXCX",
",XoX(.M.*Xu.@ . ; O O - : : = + X X     $ p h p @ . . = a n i , @ s E ^ w $ N W B w $ , s a < + 2 $.l.e.(.C.H.H.#X$X1X4XtXfXhXCX",
"-X=XM.k._.R./ @ o o X X O O = o .       o 2 i 2 O + + < a n p > * z N V p ; z x p > * , > & O o n ^ $.e.#XC.H.H.2X2XiXZXZXhXfXtX",
"=X=XM.M.^._.l.~ $ O o X + o = = * @ @ * y 2 < O O +   + & > ; $ $ j r w w * e r w * * $ = . . . * o.e.i.(.B.H.iX2X7XZXZXZXfXtXtX",
",X/.M.^.U.v.R.u.* ; & o . . = = @ # y B M a : O - + +     . . . . s $ . @ . . @ % @ . . @ = . . @ *.u.q.(.2XH.@X2X7XZXZXZXZXzXzX",
"pX;X~.Y.L.b.v.v.W # @ = = =   + $ r z M V Z m :     X     & : o . i * * > . . 1 & & > . $ u $ x l.=.#.r.oX.XiX$X5XyXAXCXzXlXmXmX",
"9X].R.P.M.b.n.n.q.d # . . = + < > > i M V Z Z Z 3 X   : 3 O o : & B a y y = > 2 y $ = @ $ w ^ u.;.k.l...x.JX.X#X#XrXCXxXvXmXMXMX",
"8X_.L.L.U.M.n.n.b.=.@.] u $ = 1 h w w h v j M ' ' j     : n 2 . $ z s s y & 1 1 1 > . . * N $.$.Q e.P./.r.(.tX.X#XrXhXxXmXMXNXNX",
">X~.M.M.U.U.b.n.n.i.l.a.x @ . . u * > i y , i C C ' Z 1     $ $ @ w w i > . $ & o :   . $ M ' 0 q =.} k.-X(.(.-X<XtXzXAXDXMXNXNX",
";X~.M.L.Y.T.m.m.n.i.a.a.K K T x w % % > > > j M M C ' o.M .   . . @ @ ; @   . o $ .   > $ . i % r ` P g Y.hX(.fXfXAXHXDXmXMXNXNX",
">X_.P.U.Y.T.W.W.W.W.n.n.! O.i.a.X.E r * , > y i M a a V o.o.n @ @ % $ % @ @ w . > , & 2 1 , > . l P K ! M.-XCXrXAXHXHXDXmXFXGXNX",
":X`.Y.U.T.T.T.}.m.}.}.}.{ 7.n.s.l.X.i > > $ @ , $ a h i h ~ o.] x ! P e r Q o.y > j m 2 a j $ . c } q i.IX,XhX<XAXFXHXFXFXGXGXNX",
":X`.Y.U.U.T.T.}.}.}.x.m.| w.m.r.l.~ @ * i , $ y > > y h s s E X.+.e.=.W R >.l.^ 1 2 M j 1     C c q #.SX,X:XzXrXzXDXGXGXGXGXGXNX",
"9X^.M.M.E.E.m.n.m.m.s.s.w.7.w.s.p.~ * * i > $ , , $ > @ h E s E ` ` ..Q k C v $ 2 , & O . , v C -.U.:X&X9XgXdXzXmXmXmXFXGXGXPXPX",
">X`.Y.U.Y.U.m.m.n.m.x.s.w.0.s.s.] i . $ y > $ & , $ * * B ^ B ~ ] l =.l.' ; $ . .         . ; p z.kXHXwXjXDXjXpXmXmXmXmXGXGXGXGX",
">X;X:X=X^.U.M.U.n.m.x.s.s.x.m.w.6 . . o & $ o o i , * , z V N ~ R +.k.u.+.h . o . o . . > $ $ v l v.kXdXjXlXlXlXmXmXmXMXFXGXGXGX",
"/.=X:X:X^.M.n.n.b.n.i.s.x.m.c. .. . . . . . .   m i > > s N ^ X./ u.>.E ' ^ @ .   o   . > @ @ R t n.kXSXkXpXjXlXmXmXMXMXFXGXGXGX",
").=X:X,X;X/.R.E.E.n.i.s.s.s.s. .@ = $       o o j j j h h N ] +.$.] ^ h w a & .   $ . . , @ ; W k.:X0XkXvXlXvXmXMXMXMXNXGXGXFXFX",
",X=X=X:X,X9XwXwX:XE.b.n.r.r.x.#.. + .     o : : 2 j v v y i V N B z p $ $ $   $ . & = @ > w p W M.wX;X9XkXpXFXPXNXNXNXGXGXGXFXFX",
").(.(./.=X;X>XqXkX*XR.b.i.x.n.} .       O < 2 : 2 m j i @ $ h @ . M M . = &   & . . . . * r i w k.kXkXSXvX9XMXNXNXNXNXNXGXFXFXFX",
").).=X,XpX9X>X>XwX*Xb.v.s.T.n.t .     & 3 3 : o 2 j 2 $ . ; N @ $ h o.n   . o   . . . @ > z p . e.wXwXkXFXvXIXcXMXNXMXMXMXMXmXmX"
};
