/* XPM */
static char *b04af70ad41e4c39e277535f8d9a709aY6N8za0E2DwIz2Gx[] = {
/* columns rows colors chars-per-pixel */
"64 64 256 2 ",
"   c #261A16",
".  c #371916",
"X  c #2E1709",
"o  c #35221B",
"O  c #2F2313",
"+  c #3A2925",
"@  c #3C312A",
"#  c #251111",
"$  c #491D0A",
"%  c #491D1A",
"&  c #521C12",
"*  c #4C2613",
"=  c #492519",
"-  c #5C241B",
";  c #552715",
":  c #4B250D",
">  c #672819",
",  c #73281B",
"<  c #4B2322",
"1  c #472B27",
"2  c #542B25",
"3  c #5A2A25",
"4  c #552C2A",
"5  c #5C2D2B",
"6  c #572422",
"7  c #493329",
"8  c #55342A",
"9  c #483A36",
"0  c #563A37",
"q  c #4B2E32",
"w  c #6C2C24",
"e  c #632C2A",
"r  c #6A2B2A",
"t  c #672625",
"y  c #732B24",
"u  c #742D2B",
"i  c #7B2C28",
"p  c #66342A",
"a  c #75332C",
"s  c #7A3429",
"d  c #772E31",
"f  c #6B3834",
"g  c #773634",
"h  c #6C2E31",
"j  c #5F1E1D",
"k  c #49433B",
"l  c #55453A",
"z  c #5D583D",
"x  c #67443B",
"c  c #754639",
"v  c #6C593D",
"b  c #6B3E43",
"n  c #4D4742",
"m  c #534B45",
"M  c #5A4E4B",
"N  c #574947",
"B  c #5D544E",
"V  c #5A5645",
"C  c #5D5753",
"Z  c #644947",
"A  c #774A44",
"S  c #64534C",
"D  c #655A49",
"F  c #7A5548",
"G  c #635C53",
"H  c #6A5E5C",
"J  c #665956",
"K  c #765A55",
"L  c #66624B",
"P  c #6A644C",
"I  c #636147",
"U  c #6C6652",
"Y  c #6B635D",
"T  c #6D6855",
"R  c #726B54",
"E  c #73625D",
"W  c #7D635D",
"Q  c #746D5B",
"!  c #786858",
"~  c #76725C",
"^  c #7B745C",
"/  c #7D7558",
"(  c #7A6C4F",
")  c #6D6561",
"_  c #6E6A63",
"`  c #6F6B68",
"'  c #736463",
"]  c #756B64",
"[  c #7C6B65",
"{  c #756C69",
"}  c #7B6B6B",
"|  c #7B6562",
" . c #7B7562",
".. c #7C726D",
"X. c #7A7667",
"o. c #7C7471",
"O. c #7E7973",
"+. c #7F6F71",
"@. c #842C2B",
"#. c #8B2E2A",
"$. c #872D26",
"%. c #952E2A",
"&. c #962E25",
"*. c #83332C",
"=. c #8B332C",
"-. c #85352A",
";. c #94332D",
":. c #98332A",
">. c #873834",
",. c #943633",
"<. c #8B2F30",
"1. c #8D443E",
"2. c #854B46",
"3. c #845749",
"4. c #885852",
"5. c #975854",
"6. c #86634E",
"7. c #85645B",
"8. c #837A5D",
"9. c #82755A",
"0. c #95775E",
"q. c #95645D",
"w. c #846966",
"e. c #976964",
"r. c #8A7564",
"t. c #847D63",
"y. c #827D6B",
"u. c #867669",
"i. c #987765",
"p. c #837574",
"a. c #837A75",
"s. c #8B7E7D",
"d. c #877B77",
"f. c #957C79",
"g. c #A7726D",
"h. c #8C856C",
"j. c #888369",
"k. c #95866C",
"l. c #8B827D",
"z. c #8A8576",
"x. c #948779",
"c. c #96927B",
"v. c #A28778",
"b. c #A8967C",
"n. c #B9827F",
"m. c #937E85",
"M. c #8C8482",
"N. c #8D8985",
"B. c #938A84",
"V. c #948C89",
"C. c #9A8D8B",
"Z. c #968684",
"A. c #9B9483",
"S. c #9D9985",
"D. c #9C928B",
"F. c #9B978A",
"G. c #9D9592",
"H. c #9D9A95",
"J. c #9C8D90",
"K. c #A48884",
"L. c #A3938D",
"P. c #A29C8C",
"I. c #AA9787",
"U. c #B49B8B",
"Y. c #A39593",
"T. c #A39B94",
"R. c #AA9D9A",
"E. c #A89A96",
"W. c #B49B94",
"Q. c #BA8380",
"!. c #A8A38D",
"~. c #B4A48D",
"^. c #AAA593",
"/. c #ABA29B",
"(. c #AEAB9A",
"). c #A9A695",
"_. c #B3AD9A",
"`. c #B4A796",
"'. c #B8B49C",
"]. c #AEA7A3",
"[. c #B2A5A3",
"{. c #B4ABA4",
"}. c #BAADAC",
"|. c #B9ABA6",
" X c #B9B2A5",
".X c #BDB3AC",
"XX c #B7B4A9",
"oX c #BBB4B1",
"OX c #BDBAB3",
"+X c #B8B7B3",
"@X c #BAAFB1",
"#X c #AE9FA2",
"$X c #C3AB99",
"%X c #C5B99F",
"&X c #C3BAAE",
"*X c #C3BAB4",
"=X c #C6BCB9",
"-X c #C7BAB6",
";X c #D3B3AE",
":X c #ECBCB0",
">X c #BEC0A8",
",X c #CCC3BB",
"<X c #C9C6B9",
"1X c #D5CDBD",
"2X c #D3C5B8",
"3X c #CEC9B7",
"4X c #E8C5BC",
"5X c #CDBEC1",
"6X c #CEC5C2",
"7X c #CECBC3",
"8X c #C7C6C2",
"9X c #D2C6C3",
"0X c #D4CCC4",
"qX c #D7CDC9",
"wX c #D5D1C5",
"eX c #D5D3CC",
"rX c #DCD3CB",
"tX c #DBD4C6",
"yX c #DED7D2",
"uX c #CFD2CB",
"iX c #E2D7CC",
"pX c #E3DBD4",
"aX c #E6D9D6",
"sX c #E9D3CE",
"dX c #E9E3D8",
"fX c #F1E6DE",
"gX c #E6E1CE",
"hX c #EDEBE3",
"jX c #EBE7E4",
"kX c #F2EBE4",
"lX c #F4EDEA",
"zX c #F6EBE8",
"xX c #F4F2EC",
"cX c #F9F2EE",
"vX c #FFFEED",
"bX c #F7F7E6",
"nX c #FAF5F3",
"mX c #FEFDF5",
"MX c #FEFFFA",
"NX c #FDFEFA",
"BX c #FBFFFE",
"VX c #FAFEFD",
"CX c #FDFFFC",
"ZX c #FEFEFC",
"AX c #FFFEFC",
"SX c #FEFDFF",
"DX c #FFFDFE",
"FX c #FDFFFE",
"GX c #FEFEFE",
"HX c #FEFEFF",
"JX c #FFFFFF",
"KX c #FDFDFD",
"LX c #FEFEFD",
"PX c #F8F7F6",
"IX c #F9EFF0",
"UX c #DEE0DB",
/* pixels */
"SXSXSXSXSXSXSXMXMXMXMXMXMXMXMXSXVXVXSXSXMXMXMXMXMXMXSXVXVXVXSXSXSXSXSXSXSXSXVXVXSXSXSXKXSXSXSXVXSXSXSXMXSXSXSXSXMXMXSXSXSXSXSXSX",
"SXSXSXSXSXSXSXMXMXMXSXSXSXSXSXSXVXVXSXSXSXSXMXMXMXMXSXVXVXVXSXSXSXSXSXSXSXSXNXNXVXSXSXSXSXSXSXVXSXSXSXMXSXSXSXSXMXMXSXSXSXSXSXMX",
"SXMXMXMXSXSXSXSXSXSXSXSXSXSXSXSXSXSXSXSXSXSXSXSXSXSXSXSXSXSXSXSXSXMXSXSXMXSXSXVXVXSXSXSXKXSXSXSXSXSXSXSXSXSXSXSXSXMXSXSXSXSXSXMX",
"MXMXMXSXSXSXSXSXSXSXSXSXSXSXSXSXSXSXSXSXSXSXSXSXSXSXSXSXSXSXSXSXSXSXSXKXSXSXSXSXVXVXSXSXKXSXSXSXSXSXMXMXSXSXSXSXSXSXSXSXSXSXSXMX",
"SXSXSXSXSXSXSXSXSXSXSXSXSXSXSXSXSXMXMXMXVXVXVXSXSXSXSXSXSXSXSXSXSXSXSXKXKXSXSXVXVXVXVXVXSXSXVXNXMXmXmXmXmXMXMXMXSXSXSXSXSXSXMXMX",
"SXSXSXSXSXSXSXSXSXSXSXMXSXSXSXSXSXSXSXSXSXSXSXSXSXSXSXSXSXSXVXVXVXSXSXSXSXSXSXSXSXSXSXSXMXMXNXNXMXmXmXmXmXMXMXSXSXSXSXSXSXSXMXMX",
"MXMXSXSXSXSXSXSXSXSXSXSXSXSXSXSXSXSXSXSXMXMXSXSXSXSXSXSXSXSXVXVXVXVXVXSXSXSXSXSXSXSXSXSXSXSXMXMXSXSXSXSXSXSXSXSXSXSXSXSXSXSXMXmX",
"mXMXSXSXSXSXSXSXSXMXMXMXMXKXMXMXMXMXMXMXNXNXNXNXNXMXMXMXSXVXVXVXVXVXNXNXNXNXNXNXNXNXNXNXNXNXNXNXKXKXKXSXSXSXSXSXSXSXSXSXSXSXMXmX",
"mXMXSXSXSXSXSXSXSXMXmXmXMXMXMXMXSXSXSXMXMXMXMXMXMXMXMXMXSXSXSXMXSXMXMXMXMXMXMXMXMXMXmXMXMXMXSXSXSXSXNXMXMXMXSXSXSXSXSXSXSXSXMXMX",
"MXSXSXSXSXSXSXSXMXhX1XwXrXeXrXwXeXuXeXeXrXwX0XrXrXrXwX0X0XrXrXrXrX0XrXrXwXwXwX0X0XrXwXwX0XwX7X7X0X0XeXwX7X<XyXMXSXSXSXSXSXSXMXMX",
"SXSXSXSXSXSXSXMXMXF.y.z.X.y.y.y.X.y.y.y.t.h.c.8.8.8.8.r.r.r.r.r.r.r.r.r.t.9./ 9.( ( / ( P P R P P D P I P c.(.vXmXMXSXSXSXSXSXSX",
"SXSXSXSXSXMXSXNXmX!.j.I V G G D L T D P D P 8.O : ; ; * * * ; * ; ; * * * : * : X v 9.z P L P P I I z z z k.'.vXmXMXSXSXSXSXSXSX",
"MXMXSXSXSXMXMXmXmXP.c.R B..X.X.X+X+X.X&X^.k.k.: w , y i y u d u u y u u y , y > $ 6.I.A.OXOX*X*X.X.X&X!.Q I '.vXmXSXSXSXSXSXSXSX",
"mXMXSXSXMXMXMXmXmX).z.^ /.6XjXkXlXlXzXfXiX~.k.- >.=.,.,.>.u u d u d *.<.,.;.#.>.w F `.1XhXlXcXkXzXaX0X*Xx.P '.vXmXSXSXSXSXSXSXSX",
"MXSXSXSXSXMXMXmXmX^.h.~ /.E.|.dXhXlXzXfXgX~.i.- $.;.%.i a 3.q.g.e.4.g y #.,.#.=.> 3.$X1XhXhXlXlXaX9XE..Xz.L  XvXmXSXSXSXSXSXSXSX",
"MXSXSXSXSXMXSXMXmX^.h.R |.-X|.].jXxXzXkXgX~.i.> =.=.@.1.g.i.4.F 7.e.Q.g.s @.;.=., 3.$X1XbXxXlXjX9XG.Y.0Xc.U '.vXmXSXSXSXSXMXSXSX",
"SXSXSXSXSXSXSXMXmX^.k.t.-X*X0XOX].yXzXfXgX~.i.> >.i 2.q.c p f f f f e e.n.a @.>., 3.`.1XkXkXjX,XV.B.6XaXc.P '.vXmXMXSXSXSXSXSXSX",
"SXMXSXSXSXSXSXmXmX^.k.8.rXrX{.7X,X].eXdXtX~.i.; r A w.8 f A c p a c A 2 K g.r a - 3.U.1XkXyX*XN.l.OXjXfXc.R '.vXmXMXSXSXSXSXSXSX",
"SXSXSXSXSXSXSXMXMX^.h.j.rXkXoXV.6X6X].*X1XU.k.x F r.K w.A 6 p q.c 3 4 K S v.7.A x 7.W.&X9X.XE.s.T.jXzXfXA.R _.vXmXMXSXSXSXSXSXSX",
"SXSXSXSXSXSXSXMXmX(.h.t.iXkXeXD.a.[.8XXXT.^.c.! L.Y.Y.Y.W.4 f 3.2.f 4 K.Z.L.E.x.W L.L.L.C.V.V.s.oXlXzXkXA.R _.vXmXMXSXSXSXSXSXSX",
"SXSXSXSXSXSXSXMXmX).h.t.pXlXhXqXC.l.H.OXOXD.D.[ p.Y.#Xp.W.f.% e 6 2 Z.Z.Z.R.Z.E p.A.C.D.N.B.p.C.eXlXcXzXA.R _.vXmXMXMXSXSXSXSXSX",
"SXSXSXSXSXSXSXMXMX).j.j.rXnXmXjX*Xl.G.H.<XeX/.D.N.o.s.p.L.K.< e e < L.l.M.{ p.L./.{./.{.V.a.Z.rXnXnXxXhXS.R ^.vXMXMXSXSXSXSXSXSX",
"MXMXSXSXSXSXSXNXMX(.t.j.pXIXnXmXdXoX+.M.M.H.wX,X/.G.V.o.d.| Z 4 4 S | O.{ R..X.XF.O.D.l.H M.7XxXnXnXnXlXS.R ^.mXMXSXSXSXSXSXSXSX",
"MXMXSXSXSXSXSXNXMX).j.j.pXnXPXPXxXhX5XC.) B ] /.rX}.M.a.B.p.W W W [ l.V.R./.R.[ 7 l [ ' /.yXxXxXPXPXnXlXA.~ ^.vXMXSXSXSXSXSXSXSX",
"MXMXSXSXSXSXSXNXMX(.8.j.pXnXnXmXPXnXIXaX0X^.! X [ 0X,X/.T.l.} p.} 9 E.|.D.p.Z 7 X U `.-XfXzXnXPXPXMXnXlXA.Q !.mXMXMXSXSXSXSXSXSX",
"MXMXSXSXSXSXSXNXmX(.j.t.rXnXnXPXxXxXcXlXpX`.r.: . 1 I.tX{.l.  ' p.# l Z.w.0 = 8 = F W.iXzXxXnXnXmXnXnXkXA.^ ^.mXMXMXSXSXSXSXSXSX",
"SXSXSXSXSXSXSXMXMX).8.j.pXnXnXxXMXmXxXxXgX`.0.; f - % x |.0X' p.s.' E.K 6 j w a ; 3.U.1XkXxXcXMXmXnXxXkXA.Q ^.vXMXMXSXSXSXSXSXSX",
"SXSXSXSXSXSXSXMXmX(.t.t.rXIXxXhX6XkXxXlXgX`.0.; s *.u 6 . E [.} ' } 0 % r >.=.-.> F ~.1XhXxXzX=XpXmXcXkXA.R !.mXMXMXSXSXSXSXSXSX",
"MXMXSXSXSXSXSXMXmX(.8.t.iXIXoXN.V.6XaXdXgX`.0.; *.,.>.g < N N 9 9 N 0 5 g ,.;.=.> c U.tXdXpX7Xo.` ,XnXdXc.~ P.mXMXSXSXSXSXSXSXMX",
"MXMXSXSXSXSXSXMXMX(./ 8.rXjXd.Y ../.-XrXpX`.0.; *.#.u e x w.}.6XT...w.f t i =.,.> 6.I.1XpX*XR.o.o.z.aXfXc.R P.vXMXSXSXSXSXSXSXMX",
"MXSXSXSXSXSXSXMXmX_./ / tXqXC k Y V.oXrXrX~.i.; i a 4.l ! (.MXMXMX6XD.f.A e.y i > 3.I.2XrX.XC...Y _ 9XpXc.R P.mXMXSXSXSXSXSXSXMX",
"SXSXSXSXSXSXSXMXmX_./ / iXT.n m { D.-XrXwX`.i.$ 5.;XI.D ..D.8XhXMXxX.XL.E U.:X5.& A U.<XiX-XY.[ m 9 T.dXx.R !.vXMXSXSXSXSXSXSXSX",
"SXSXSXSXSXMXSXmXmX X^ R 1XR.B Y H R.6XyX0XP.u.I.4X7.7 H [ C.+XUXxXPXqXC.l.l 7.4XW.W x.-XpX9XR.} Y B /.iXk.P P.mXMXSXMXMXSXSXSXSX",
"SXSXSXSXSXMXSXNXmX XR R <Xl.M J +.M.6X,X.XP.B.c.1 . 7 H w.Y.].eXPXSX{.} E l . 1 K.x.E.{.,X,XZ.Y o.G V.0Xh.I P.mXMXSXMXMXSXSXSXSX",
"SXSXSXSXSXMXSXNXMX XQ I  X] ..s.N.9XG.C.D.Q ! 1 2 5 0 H } C.*XMXcX/.S 1 . = 3 ; = 0 B.[.D.T.-X{ l.s.D.{.y.I F.mXMXSXMXMXSXSXSXSX",
"SXSXSXSXSXSXMXNXMX XR k B.C.D.{ l.G.H ..Y J r.8 e e 0 H p.V.{.l.m o . % 5 e r r 8 K G Y ] _ V.].H C.T.*XR V P.mXMXSXMXMXMXSXSXSX",
"SXSXSXSXMXMXMXNXMXXXQ V x.[.G.k B m _ Y p.K l * w - 0 K S n   n 9 1 3 r y i y w 2 0 D Q _ ..M { _ a.l.d.R I P.mXSXSXSXMXMXSXSXSX",
"SXSXSXSXMXMXMXMXmX*XL ^ P.M..XO.m l.Y a.E D i.& u u 3 % o   M C k 1 t i @.#.$.s ; x S Y z.Y a.m B./...d.x.D P.mXMXSXMXMXSXSXSXSX",
"SXSXSXSXMXSXMXMXMXOXL l T.B {.G.Y O.H.z.] x.r.- *.i t e < q N + Z 2 u @.#.$.$.*.- 4.x.] O.T...H ].rX..x.l D P.mXSXSXMXMXMXSXSXSX",
"SXSXSXSXMXMXSXMXMXOXT z B.C C ) l.G V.*X/. X7.; *.$.*.y 5 Z + N Z 2 u @.#.#.$.*.- F L.M..Xl.H l.G a.Y D.Q I P.mXSXSXMXMXSXSXSXSX",
"MXMXSXSXSXSXMXNXMX*X~ U *XY o.D.O.B a.*X/.{.`.8 y =.@.y p Z @ } N 4 r s @.=.-.w 3 W.[ M.*Xd.B a.Y.m Y =Xy.D P.mXNXSXMXMXSXSXSXSX",
"MXMXSXSXSXSXMXNXMX<X .P &XO.G.G.M M M.}.].*X9X:Xr @.-., p 0 0 s.N x 2.g y y y - ;X2XJ V.-XM.M G B.m a.0Xy.U F.mXNXSXMXMXSXSXSXSX",
"SXSXSXSXSXSXMXMXMX7X~ P <XG.) {.N H N.C./.*Xl.u.f y $.i w 4 Z m.J l x e.4.c p p r.| Y V.C.o.H m G k T.rX .T ).MXKXSXSXSXSXSXSXSX",
"SXSXSXSXSXSXMXMXMX0Xy.L .Xz.m ..J J C.) d.G.a.9 = a s i g . w.C.p.d.X 7 S 8 F 4 + N ..o.{ G.n C { k l.,X .~ (.mXKXSXSXSXSXSXSXSX",
"SXSXSXSXSXSXSXMXMXpXh.V  XB.B m a.' o.m ) Y.Y.Z K 5 t > 2 W 9Xo.o.qXw.1 o o w.W 9 ..Y Y C M.Y a.) B Z.,XQ ~  XmXKXSXSXSXSXSXSXSX",
"SXSXSXSXSXSXSXMXSXpXx.I /.,X] M yX) k m J D.E.  K e.g.g.$XsX[.{ ].[.9X|.d.a.u.d.+ ..Y C n m O.M.+ ] =X=XU t.<XmXKXSXSXSXSXSXSXSX",
"SXSXSXSXSXSXSXMXSXxXP.U B.rXE.C MXoXn m m | S . 1 0 K 7.w.E.R.a...{ R.p.[ J Z Z 9 M Y k _ n B.H 9 T.pX|.D  .rXMXKXSXSXSXSXSXSXSX",
"SXSXSXSXSXSXSXSXMXmX_.Q a.0X9Xo.G.eX+XXXl.L.l.H + q 4 2 0 |.&XS N | K.0 1 + Z J H ) G.l.pX.XJ J d.0XrXF.U j.kXmXKXSXSXSXMXSXSXSX",
"SXSXMXMXMXSXSXSXNXMXXXx.] =XR.{ s.a.hX+XO.6XC.E . 8 5 h r j 5 U.K.< 6 6 e 4 7 l 9 Y G.M oX@X9 ..J Y.wXy.R A.mXMXSXSXSXSXSXSXSXSX",
"SXSXMXMXMXSXSXSXSXMXwXS.Q T./.G.{.J H.XXl.] M 9 0 < 6 r d g 3 2 4 3 h g e = + @ k { M s.J.m Y T.Z.[. XU ~ '.mXMXSXSXSXSXSXSXSXSX",
"SXSXMXSXSXSXSXSXSXMXxX).y. . X.X*Xm   M.NX[.Y 9 N L.i.6 e 6 1 Z x 8 % 5 < K p.9 k C @XqXn @ Y {.G.*XA.U  .gXmXNXSXSXSXSXSXSXSXSX",
"SXSXSXSXSXSXSXSXMXMXMX.XS.R _.0X*X[.] m =XfX{.B.{ 9XsX< . Z S @ 9 7 . . + sX=X` V.oX}.n @ { /.*X0X,XQ T A.mXnXSXSXSXSXSXSXSXSXSX",
"SXSXSXSXSXSXSXMXSXNXMXfXS.S. .wXpXyX6Xp.S E.T.l.Y V.dXw.q 0 '     o o 9 E s.J C ` T.D.B s.=XpXpXrXF.G ] yXmXMXNXSXSXSXSXSXSXSXSX",
"SXSXSXSXSXSXSXMXSXPXMXMXXXP.y.S.pXpX9X}.V.D.N.o.l.B S ' =X=X] ) O.n }.qX' 9 7 ..l.H.V.Y R.qXyXpX.X . .T.mXMXNXSXSXSXSXSXSXSXSXSX",
"SXSXSXSXSXSXSXSXMXMXSXNXnXF.(.~  XpX9XR.}.oXXXOXl.@ + + p.9XM /.eXd.7X..+ + 1 Z.*X3XT.l.C.9XaX,Xy.Q X.hXSXNXSXSXSXSXSXSXSXSXSXSX",
"SXSXSXSXSXSXSXSXSXMXMXSXSXpXc.!. .&X0X=X=X=XB.+ 1 1 1 4 1 Z 9 $XW.Z Z.0 2 2 4 = 1 .X.XXX-X0X0Xl. .Q 7XMXKXSXNXSXSXSXSXSXSXSXSXSX",
"SXSXSXSXSXMXSXSXSXSXSXKXSXMX1Xc.c.~ &X0X}.}.|.. b f r a a 2.t g.5.j 5.2.y d >.A < d...{.0X2Xh. .~ (.MXNXSXSXKXSXSXSXSXSXSXSXSXMX",
"SXSXSXSXSXSXSXSXSXSXPXSXKXPXmX<Xz.j.Q .X=X*X[.w.4.t =.=.=.=.#.@.@.<.<.=.=.,.*.5.e.K.d.&X<Xy.t.^ ^.mXxXKXSXSXVXSXSXMXSXSXSXSXSXMX",
"MXMXSXSXSXSXSXSXSXSXSXKXSXSXMXmX3Xx.z.R z._.$X$ a =.;.%.:.:.&.:.:.:.&.:.&.;.=.s & v.u.x.~ j.^ _.vXcXMXSXSXSXVXSXMXMXSXSXSXSXSXMX",
"MXMXMXSXSXSXSXSXSXSXSXSXSXMXNXSXmXpXA.x.V k.b.$ s -.#.:.%.%.:.&.&.:.%.%.:.=.*.>.; v.9.R A.y.<XmXmXMXSXKXSXSXSXMXMXMXSXSXSXSXSXSX",
"MXMXSXSXSXSXSXSXSXSXKXSXMXPXSXKXSXSXcX{.c.`.b.; & , -.=.;.;.:.&.&.&.:.;.$.*.w ; * b.%XS.S.dXMXPXMXPXSXSXKXSXSXSXMXMXSXSXSXSXSXSX",
"SXSXSXSXSXSXSXSXSXSXSXPXMXSXKXSXSXPXMXmXtXS.b.~.0.c > > > , , i s , , , j - c i.$Xb.z.&XmXMXxXSXSXSXSXNXSXSXSXMXMXSXSXSXSXSXMXSX",
"SXSXSXSXMXSXSXSXSXmXmXmXMXSXSXKXSXSXMXMXVXPXeX_.~.I.b.i.6.v c x c c 3.6.v.U.`.!.P.,XcXMXMXMXMXMXSXSXSXSXSXSXNXSXSXSXSXSXSXSXMXMX",
"SXSXSXSXMXMXSXSXSXmXmXmXMXSXSXSXSXMXSXVXVXVXSXMXfX3X~.I.b.~.$X$X$X$X$XU.b.!.>XgXmXSXKXKXSXSXmXMXSXSXSXSXSXSXSXNXSXSXSXSXSXSXSXSX"
};
