/* XPM */
static char *f729be2f10f24617aa17171a0d1d82f18jIPf8noVVF5eVrS[] = {
/* columns rows colors chars-per-pixel */
"64 64 256 2 ",
"   c #353A38",
".  c #2C3530",
"X  c #282C1B",
"o  c #37453D",
"O  c #4D443A",
"+  c #67523C",
"@  c #3C4A44",
"#  c #3A5251",
"$  c #395664",
"%  c #355A74",
"&  c #3B646B",
"*  c #3B6876",
"=  c #444B48",
"-  c #45524D",
";  c #4A524E",
":  c #4A5A4B",
">  c #575848",
",  c #4C5552",
"<  c #4D5A55",
"1  c #4D5D5B",
"2  c #465557",
"3  c #525553",
"4  c #525C55",
"5  c #5A5D54",
"6  c #535E5A",
"7  c #5A5D5B",
"8  c #565558",
"9  c #4D4D4F",
"0  c #695B47",
"q  c #665D55",
"w  c #705448",
"e  c #4D6359",
"r  c #5C6253",
"t  c #55625D",
"y  c #59635D",
"u  c #536354",
"i  c #56634A",
"p  c #67644B",
"a  c #656559",
"s  c #726F55",
"d  c #555C62",
"f  c #4B5D62",
"g  c #4D6364",
"h  c #49676A",
"j  c #546563",
"k  c #5B6562",
"l  c #5C6A65",
"z  c #576869",
"x  c #456876",
"c  c #556B72",
"v  c #5A6972",
"b  c #4D7776",
"n  c #597578",
"m  c #537069",
"M  c #626564",
"N  c #626A66",
"B  c #636D6A",
"V  c #6C6C6C",
"C  c #6A6C67",
"Z  c #65726D",
"A  c #6A736E",
"S  c #697766",
"D  c #75766A",
"F  c #646D76",
"G  c #6B7572",
"H  c #6D7A75",
"J  c #677878",
"K  c #747C7A",
"L  c #757A77",
"P  c #746A68",
"I  c #615F60",
"U  c #847B66",
"Y  c #877E78",
"T  c #907947",
"R  c #74817B",
"E  c #79847B",
"W  c #6C8375",
"Q  c #898877",
"!  c #387899",
"~  c #396E88",
"^  c #0478BA",
"/  c #197EBD",
"(  c #1174AE",
")  c #277EB9",
"_  c #4A7687",
"`  c #557785",
"'  c #437A98",
"]  c #577390",
"[  c #647B89",
"{  c #737C86",
"}  c #507CA9",
"|  c #027CC4",
" . c #017CCC",
".. c #0777C8",
"X. c #167BC4",
"o. c #017ED4",
"O. c #017BDB",
"+. c #0778D9",
"@. c #177BDD",
"#. c #2479CB",
"$. c #017AE2",
"%. c #027BE8",
"&. c #1585BC",
"*. c #0483B9",
"=. c #3A86A9",
"-. c #2886B8",
";. c #378AB9",
":. c #2D8CB1",
">. c #48829C",
",. c #558690",
"<. c #7C8382",
"1. c #7D8A85",
"2. c #748785",
"3. c #6F8992",
"4. c #4987A7",
"5. c #548BA7",
"6. c #468BB6",
"7. c #5395B4",
"8. c #6A99B4",
"9. c #5BA3B1",
"0. c #0383CC",
"q. c #0C83CC",
"w. c #048BCC",
"e. c #0786C7",
"r. c #1787C9",
"t. c #1893C8",
"y. c #0184D4",
"u. c #0B85D5",
"i. c #018AD5",
"p. c #0B8AD4",
"a. c #0186DB",
"s. c #0A85DA",
"d. c #0189DC",
"f. c #0B8CDB",
"g. c #148BD5",
"h. c #148EDD",
"j. c #1A89D7",
"k. c #0293DD",
"l. c #0B92D8",
"z. c #1795DA",
"x. c #0594C5",
"c. c #2788C7",
"v. c #3889C6",
"b. c #3A94C6",
"n. c #2493D6",
"m. c #3B9CD8",
"M. c #2B8DD3",
"N. c #0185E2",
"B. c #018BE3",
"V. c #0A8DE2",
"C. c #0084EB",
"Z. c #008CEB",
"A. c #0D87E6",
"S. c #138AE6",
"D. c #0191E4",
"F. c #0B91E3",
"G. c #0293EC",
"H. c #0896ED",
"J. c #1392E4",
"K. c #1797E7",
"L. c #008CF3",
"P. c #0189F8",
"I. c #0293F4",
"U. c #0293FD",
"Y. c #039DFB",
"T. c #1894F3",
"R. c #329AE8",
"E. c #29A5E7",
"W. c #35A6E3",
"Q. c #2FA9F3",
"!. c #23A6DE",
"~. c #499BC9",
"^. c #5097CA",
"/. c #619BC9",
"(. c #4AA7D3",
"). c #57A9D8",
"_. c #54ABCC",
"`. c #6DAED4",
"'. c #52AEE8",
"]. c #68B6E5",
"[. c #6FB7ED",
"{. c #7AC8D8",
"}. c #59C5F4",
"|. c #72C8F2",
" X c #868D8A",
".X c #868987",
"XX c #8C9494",
"oX c #979999",
"OX c #849091",
"+X c #9AA29E",
"@X c #8BA19F",
"#X c #AFA99D",
"$X c #9DA6A7",
"%X c #94AAB8",
"&X c #A7A8A8",
"*X c #ACB4B3",
"=X c #B5B8B7",
"-X c #AAADB0",
";X c #A0968D",
":X c #BCC0BF",
">X c #CCC9B9",
",X c #89B6D7",
"<X c #B2BAC3",
"1X c #8BB8E6",
"2X c #94C9DA",
"3X c #BBC4C3",
"4X c #B0CBD2",
"5X c #8BC6E9",
"6X c #94C6E6",
"7X c #86CBF5",
"8X c #92D9FB",
"9X c #91D0F4",
"0X c #B9D6E8",
"qX c #A5DAF7",
"wX c #AFD0EC",
"eX c #94EAFF",
"rX c #B5E7F8",
"tX c #C5C8C7",
"yX c #CDD1CE",
"uX c #CDD2D0",
"iX c #D2D3D3",
"pX c #D7DADB",
"aX c #CCCFD1",
"sX c #F1D8C0",
"dX c #E3ECDD",
"fX c #FBE9DD",
"gX c #F7F1D2",
"hX c #C6DAE8",
"jX c #D3DCF7",
"kX c #DDE6E4",
"lX c #D7EBF8",
"zX c #C6FBFF",
"xX c #D7F9FE",
"cX c #C9E7F1",
"vX c #E4E4E4",
"bX c #ECEDEC",
"nX c #E6ECE9",
"mX c #F8EAEC",
"MX c #FEFCEC",
"NX c #F8F7EA",
"BX c #E7ECFA",
"VX c #F9ECF9",
"CX c #E5FDFE",
"ZX c #EBFEFE",
"AX c #EAF3F9",
"SX c #F4F4F4",
"DX c #FCF6F4",
"FX c #F5FAF6",
"GX c #FEFCF4",
"HX c #FDF6FB",
"JX c #F4FDFD",
"KX c #FFFFFF",
"LX c #FDFDFD",
"PX c #FDFDFD",
"IX c #F3F5FF",
"UX c #DDDFDF",
/* pixels */
"KXKXFXKXKXKXFXKXyX= 3 6 t t j < < l k - B , l t 6 K KXFXPXKXHXPXKXKXKXKXKXKXKXKXNXLXCXMXHXZXZXmXJXGXJX|.o.f.d.d.C.j. .r.xXMXfXPX",
"FXKXKXFXFXKXKXKXbX-XN 3 B k l l k t t Z k k l - , oXFXFXKXPXKXKXKXKXKXKXKXKXKXKXPXVXJXNXDXIXJXMXFXMXCX~.a.y.V.B.L.e./.E.Q.CXGXJX",
"FXKXKXFXKXKXKXFXKXLX&X- , 6 t < t k 6 - - - @ t =XFXKXKXKXPXKXFXKXKXKXKXKXKXKXKXJXVXKXFXPXPXZXGXGXGX0X-.H.B.d.y.0.O.M.5X(.m.7X7X",
"KXFXFXKXKXPXKXKXKXSXSXH 6 - k , = 3 L .XpX3X X<.SXKXSXKXKXKXKXHXKXKXKXKXKXKXKXKXJXPXJXFXHXJX2XcXPXCX|.h.a.y.y.f.&.P.%.wXNX(.%.p.",
"KXFXKXKXFXFXKXKXPXbXKXuX=X$XuXvXtX:XFXFXKXLXKXKXSXFXFXKXSXFXKXKXKXKXKXKXKXKXKXKXNXKXCXPXHXzX_.zXZX7Xq.O.B.H.F.| y.D.P.m.JXKXW.O.",
"KXKXKXFXFXKXbX&X.XbXKXKXKXFXKXFXKXKXKXPXSXKXFXSXKXFXKXKXSXKXKXKXKXKXKXKXKXKXKXKXDXLXZXDXHX`.:.wX2Xc.Z.C.B...F.p.y. .h.o.W.cXlX).",
"KXPXFXFXKXKX=X= L KXKXSXSXKXKXKXbXKXKXFXFXKXKXKXSXFXSXFXFXKXKXPXKXKXKXKXKXKXKXKXPXIXJXGXPX0XqXZX4X/ Z.N.h.y.B.y.l.a.y.J...(.PXkX",
"KXFXKXKXFXbX&X= 3 tXKXKXKXKXSXKXKXbXKXKXKXSXKX-XtXFXKXKXKXFXKXPXKXKXKXKXKXKXKXKXJXPXPXFXGXPXJXSXJX'.Z. ...J.N.B.N.k.o.G.r.[.xXDX",
"KXKXKXKXFXKXbXK L bXKXFXKXFXKXFXKXKXSXPXFXKXpX. 8 C bXKXFXSXKXKXKXPXDXKX-X3XKXGXCXGXNXGXIXJXAXIXrXc.y.Z.d.d.y.Z.d. .G.L.( 0XPXJX",
"FXKXFXSXKXKXFXbXbXKXFXFXKXFXKXKXFXKXKXFXKXFXXXM =XSXSXbXKXyX-X&XSXSXDXKX-Xd .X=XDXBXxXLXGXCX~.k.[.X.d.Z.d.f.a.B.B.y.B.Z./ lXDXPX",
"KXFXFXPXKXKXKXKXKXFXFXKXKXFXFXFXKXFXKXFXKXKXvXbXpXKXbXKXKXiX=XiXSXKXPXDXKXkXpX$X_.z.E.rXMXhXM.C.r. .B.B.y.h.a.B.a.i.N.d.n.CXJXPX",
"KXSXKXKXSXKXKXFXKXFXFXFXFXKXKXKXKXKXFXKXFXKXKXFXKXKXKXFXSXKXKXKXLXFXPXMXDXFXZX0Xs.L...`.,Xc.i.| o.N.G.a.0.f.y.B.d.i.a.y.n.rXJXMX",
"FXFXKXFXKXKXbXPXKXKXKXSXKXKXFXKXFXKXKXFXKXKXFXFXSXSXKXFXKXKXPXKXKXPXSXNXGXJXrX/.^ V.X.^.n.C.U.w.Z.G.B.y.y.p.y.B.d.d.d.y.r.(.ZXMX",
"KXFXKXKXKXFXSXFXSXKXPXFXKXFXSXKXKXKXFXKXFXSXKXFXKXFXKXKXKXKXKXvX XSXKXNXPXCX).^ e.d.H.g.u.L.N.X.Z.B.a.y.f.i.a.d.a.O.k.s.o.p.cXGX",
"KXKXbXvXSXKXKXFXKXKXFXPXFXSXKXKXFXKXSXKXKXSXKXSXFXFXKXFXKXKX-X7 &XSXPXFXPXwXc.Z.A.$.L.y. .l.w.e.d.a.y.i.B.d.d.a.y.d.i.f.B.B.].PX",
"yXKX&XL yXFXbXKXKXKXFXKXKXKXKXtXV .XoXXXiXKXvXKXKXKXFXFXKXtX3 vXPXKXJXKXJX6Xg.P.D.0.q.g.y.y.Z.Z.a.y.y.d.d.d.B.y.s.D.o.f.Z.P.&.nX",
"N oX  I vXKXnXLXKXSXSXFXFX3XXXA Z Z t 4 3 iXKXFXSXKXKXKXFX7 iXFXDXBXlXMX7XP.X.w.d.d.d.d.d.d.d.d.d.d.d.d.d.d.d.d.d.d.a.a.a.d.V.V.",
"pX, G yXKXSXKXkX<.k N A Z l k t j t 1.A y =XKXKXKXbXFXKXL XXKXKXGX/.`.qX~.R.K.y.d.d.d.d.d.d.d.d.d.d.d.d.d.d.d.d.d.d.i.a.a.d.V.V.",
"=X; iXKXKXKXFX<., t l y Z K 6 y @ 1.B N M A kXKXFXKXFXKXM &XFXbXbXQ.E.b./ '.Y.B.d.d.d.d.d.d.d.d.d.d.d.d.d.d.d.d.d.d.d.d.d.d.d.d.",
"3 L FXFXSXKXoXo t l H Z 6 - ;  X3X- ,  X7 , .XFXKXFXFXSXvX&XbXKXIXe.z.].X. .B.q.d.d.d.d.d.d.d.d.d.d.d.d.d.d.d.d.d.d.d.d.d.d.d.d.",
"= =XKXFXFXKX-X.XH l j < G $X=XyX+X< K B ; 6 = iXpXyXtXvXFXKX+X.XpX~.z.qX'.B.h.s.d.d.d.d.d.d.d.d.d.d.d.d.d.d.d.d.d.d.d.d.d.d.a.a.",
"M iXKXSXKXiX3XkXl G 6 K JXAX X; = l B ; *X X, uX X*X=Xk K <.A , P `.y.5X/.T.r.C.d.d.d.d.d.d.d.d.d.d.d.d.d.d.d.d.d.d.d.d.d.d.a.a.",
"kXFXvXKXSX8 G &X; ; ; oXJX1.= k y k K ; tXSXoX XZ L @ = B , , 4 ` c.n.8X-.A.S.G.d.d.d.d.d.d.d.d.d.d.d.d.d.d.d.d.d.d.d.d.d.d.d.d.",
"<.G 3 &XoX3 &XG 3 7 =XSXuX- 6   , E 3 k XXE N , t 6 6 4 - t 6 B c.T.`._.i.P.C.e.d.d.d.d.d.d.d.d.d.d.d.d.d.d.d.d.d.a.a.a.a.d.d.d.",
"L .XN , 3 XXoXH V =XbXFXbX&XoX3 J l 5 5 t e g j u u r > ; 1 ` } U.B.q.r.y.N.B.B.i.0.0.p.f.i.y.u.d.d.d.d.d.d.d.d.d.d.d.d.d.d.d.d.",
" XN y 6 3 6 nXLXFXvXvXtXL 7 uXH $XXXE C y t t y d v v 6 : h :.k.| o.d.B.Z.B.a.y...A.U.N.o.d.Z.L.d.d.d.d.d.d.d.d.d.d.d.d.d.d.d.d.",
"E - N 6 N G N <.vXKX.Xk G Z 6 , H A l l k t 7 y 1 h h 3 > c c.U.&.f.I.L.y.y.d.Z.Y.k.w.i.G.I.B.q.d.d.d.d.d.d.d.d.d.d.d.d.d.d.d.d.",
"l N k t B Z < - E .XB B 6 1.6 t : < e j z t 5 7 u 4 4 > 5 ` c.C.i.a.d.i.p.y.B.L.S.+.$.A.u.|  .f.d.d.d.d.d.d.d.d.d.d.d.d.d.d.d.d.",
"6 o B Z K t l @ l Z <.l G B < l a k g g 6 7 z n V a a v ' -.r.w.Z.y.y.f.V.a. .q.x.x.k.i.i.F.B.C.d.d.d.d.d.d.d.d.d.d.d.d.d.d.d.d.",
"oXB H l Z K , - ; t = 3 <.H A t r t f 1 4 t n ,.6.' ' ;.g.B.d.q.B.f.f.d.N.J.'.6XBXIXCXqX'.B.d.f.d.d.d.d.d.d.d.d.d.d.d.d.d.d.d.d.",
"t XX, Z N G 6 - l <.- t 6 B l < t j z k a y _ =.l.w.p.f.B.N.N.+. .i.a. .n.7XxXLXxX2X).].|.).n.a.d.d.d.d.d.d.d.d.d.d.d.d.d.d.i.d.",
"B N 4 l k G 6   K L G y ; N B @ 6 j z y p y _ ;.a.N.Z.d.0.w.k.B.i.B.y.r.5XZXJX4XZ.N. .o.B.H.J.g.d.d.d.d.d.d.d.d.d.d.d.d.d.d.i.i.",
"#X$ OXQ v { D D s M F J 4 Q a M r r * > e C ;.j.d.d.d.d.d.d.d.d.0.Z.Z.Q.PXGXrXr.P.$.$.S.D.y.w.E.V.y.B.d.a.d.i.i.r.y.d.e.f.L.F.-.",
"cX[ L [ 7.,.D ] 8 > s S F { l : i < ~ J 3.,.r.B.d.d.d.d.d.d.d.d.i.s. .qXHXPX'.C.d.t.|.(...%.$.T.J.y.f.d.d.B.i.i.Z.Z.G.0.d.d.;.n ",
"sXB V V 3.b Z G m x * $ 4 a Z x ] 9 > W ~.t.B.s.d.d.d.d.d.d.d.d.i.s.g.dXPXZXK.B.t.5XAXJX8XW.E.M.K.y.i.d.d.B.a.d.Z.B.D.y.B.p.4.0 ",
"sXA m r a M a p ,.H q > j n H q $ f a 0 k >.n.N.d.d.d.d.d.d.d.d.B.A.Y.dXJXhX| b.VXKXJXkXlXzX}.x.E.i.a.B.B.B.a.B.p.e.p.d.L.V.4.q ",
"IX*Xm * 1 0 5 & q s p p 9 9 y S : 2 6 q + 8 _ -.d.d.d.d.d.d.d.d.a.N.Z.JXJXZXE.8XNXPXAXwX9X(.e.K.E.i.i.d.B.B.a.B.q.e.p.B.L.g.' d ",
"4XiX2 j s p j v 8.4.~ ~ ` J l N D 4 : h : # z OXd.d.d.d.d.d.d.d.f.s.y.4XKXJXE.j.[.eX(.e.A.$.S.h.K.y.i.d.d.B.a.i.N.a.B.B.h.! n y ",
"#X&X2 s T H ' [ i.'.1X~.e.*.~ a ,.4.n $ O ` 5.r.d.d.d.d.d.d.d.d.0.a.B.7.KXKXeXr.N.N.S.N.Z.B.0.W.f.y.i.d.d.d.y.y.N.B.Z.d.;.l q j ",
"JX.Xb ,.D XXv.g.<XlXxX6.m.[.].=.T.) p a S M.z.B.d.d.d.d.d.d.d.d.e.I.L.d.wXMXJXqXr.V.O.a.r.r.Q.B.a.o.d.d.a.d.i.y.u.f.V.0.5.p > x ",
"NXoX6.|.(.{ } eXKXMXCX:._.xX`.N.s.*.^.;.z.D...r.d.d.d.d.d.d.d.d.y.G.B...n.8XCXLXxX6X/.].|.}.z.| P.Z.y.B.I.L.G.r.5.] ` M.c.c g k ",
"lXe N VXzX!.;.VXKXAXKXKXBX1X( J.B.k.j.B.C.L.L.d.d.d.d.d.d.d.d.d.0.a.G.H.y./ ).qXNXFXCXrX).r.y.I.0.k.0.&.p.N.c.] z 5 k c c k p q ",
"FX2 X pXxXM.|.9.|.qXCXIXKXLX^.D. .I.Z.d.X.;.].].d.d.d.d.d.d.d.d.f.y.y.B.B.y. .g.f.F.J.V.a.a.d.d...Z.B.e.p.G.c.l h > g 0 0 h a f ",
"gXhXvXkXyXn. .n.*.D.i.9XMXMX4X( y.V.o.e.wXNXZXqXd.d.d.d.d.d.d.d.i.d.i.a.B.G.Z.a.B.B.y.o.N.G.B.o.+.Z.Z.y.d.z.=.u c t g y r j k x ",
"GX<XfXPX%XP.C. .A.O.I.K.,XNXDX,Xf.u.u.*.jXSX1XO.d.d.d.d.d.d.d.d.B.d.d.f.i.a.B.G./ r.r.g.u.a.B.H.d.w.w.a.u.4.V w a > p _ _ 0 q z ",
"KXaX#XGXwX+.I.k.U./ ( Z.G.8.hX[.$.o.J.0.jXFX6XC.d.d.d.d.d.d.d.d.G.d.y.d.f.y.y.a.U.L.C.Z.B.d.y.y.L.q.p.L.B.4.N 6 t 1 B b.=.0 5 h ",
"mXZXcXmXIX{.t.#.d.0.l.i.B.B.0.( U.B.y.0.1XMXmXb.d.d.d.d.d.d.d.d.o.B.V.d.y.a.d.d.d.d.d.B.d.y.a.d.L.o.V.L.V.=.x & h x >.b.! t 6 x ",
"oXDXZXFXZXNXCX}.a.F. .S.S.S.y.G.@.w. .Z.v.BXPXm.d.d.d.d.d.d.d.d.V.a.y.d.B.B.B.B.y.s.f.d.i.d.d.B.w.e.p.g.c.5.l q 5 l >.n r 4 0 k ",
"o 3XKXDXGXPXxX1X{.9XG.Z.A.d.w.P.V.a.F.Z...0XJX).a.a.i.d.d.d.d.d.d.G.B.d.r.| y.N.y.i.a.F.y.p.y.d.i.e.U.U.F 0 & j t t t t t t t t ",
"E - &XKXbXPXCX8.hXhX' b.4.4.^ U.$.f.0. .6XMXNX9Xa.a.i.d.a.a.d.d.d.p.e.y.L.L.B.g.G.Z.N.B.y.B.B.I.y.y.a.r.' z 5 0 t y y y y y t t ",
"a k v =XdXGXZXZXnX<.+ n 2 A n.O.I.t.y.u.4XgXGXcXa.a.i.d.a.a.d.d.e.y.d.N.Z.B.d.N.| 0.y.B.f.g. .| C.U.r.:.z.;.M 7 k y t t t t t t ",
"C k d t ; D KXJX*XB 0 6 k H b.V.y.^ i.I.;.0XJXpXa.a.d.d.d.d.d.d.y.B.L.B.p.r.0.B.F.V.d.y.0.p.V.G.M.J.=.>.z.;.B d y t 6 t t 6 t k ",
"3 6 l t ; O Q oX[ D 2.OXz n x b.B.G.F.B.+.M./.6.y.a.i.d.d.d.d.B.Z.B.d.y.N.h.;.8.R 4.n.I.V.c.>.[ b n Z M c v r : 6 6 t k l y t t ",
"B 4 t j , 7 = 1.{ s 3.XXl 1 + ` V.N.0.| U.N.j.N.y.a.i.d.d.d.d.d.q.y.G.B.f.;.[ Q l l A D U a t g i p a 7 w q g u 6 t l G G l t t ",
"< t e 1 9 k < l K E D 8 2.a w Z ^.r.d.p.n.r.J.N.d.d.d.B.d.d.d.d.q.y.H.j.4.2.a C J g 6 5 a > 1 x g 5 g h t j x j l l B G A l t t ",
"t l e j 8 d $XW v b 0 d h U F $ N 4.Z.L.=.7.r.z.V.V.F.V.B.d.d.d.Y.a.=.` R 1.j z U t h x ` g 5 r z 7 t g h h t 0 G B l B l t t l ",
"j 1 t t 6 @ iXiX@ t t j k k H B 2 _ c.I.y.4.R D b J m n 5.7.) v.3.J j 4 E A t < K R l t R R l Z 6 6 t l t G G 1.H t A t t l N t ",
"Z B l t , = &XbXB j t t t 6 G Z G D @X:.y.j.>.B 8 a a < t R a p n 1 Z E H < t 6 R Z t t B G G Z H A Z < A G G Z t < Z t - 4 l R ",
"B Z l t < < K KX1.< 6 6 t < k k E U >XCXm.L.J.6.v 8 7 t j 2.e u # J 2.l y y l l K t t k < l H l l l Z Z  X2.Z A R H R t o @ @ B ",
"t k t l l l B JX*Xt 6 t l 6 6 6 > 2 3.JX,X..N.B.z.m.5.z 3  X<.F H 2.l < t , < K B < t l < k Z t G H l Z B G = < R l Z - - t e t ",
"6 < < t Z B A tXFX<.6 6 k t t j r x % 3XKX,Xc.u.( 4.c a > P Y V G 6 < l l G <.<.t t t k t t t t - l < 6 , H , - 1.H A @ < @ @ e ",
"l , , , t 6 k XXKXXX3 6 k k t t t z , U sXKX0XwX;XY O y z g n W , l l l l R B , t l t 6 k t < k t t l l < t N <.kX<.t o - t t - ",
"M , 6 - , 6 , <.FX$X, k y k 1 6 g 5 0 r A NXGXPX$X<X1.c $ m S p = k - < Z H t N t k t 6 t t 6 k l < 1 t <  XtXKXSXLXtXl = < @ R ",
"y 3 l 1 < l - XXKXtX6 N 6 t 6 j z 5 j & _ XX+XF : >XMXfX>X=X$X$X*X=XOXt - R H ; t 6 t k t t t t 1 l 1 l l nXKXLXKXbXLXuX. +X3Xl "
};
